<?xml version="1.0" encoding="UTF-8" standalone="no"?>
<!-- Created with Inkscape (http://www.inkscape.org/) -->

<svg
   xmlns:dc="http://purl.org/dc/elements/1.1/"
   xmlns:cc="http://creativecommons.org/ns#"
   xmlns:rdf="http://www.w3.org/1999/02/22-rdf-syntax-ns#"
   xmlns:svg="http://www.w3.org/2000/svg"
   xmlns="http://www.w3.org/2000/svg"
   version="1.1"
   preserveAspectRatio="xMidYMid slice"
   viewBox="0 0 1052 744"
   id="svg3020"
   xml:space="preserve"><metadata
     id="metadata3026"><rdf:RDF><cc:Work
         rdf:about=""><dc:format>image/svg+xml</dc:format><dc:type
           rdf:resource="http://purl.org/dc/dcmitype/StillImage" /><dc:title></dc:title></cc:Work></rdf:RDF></metadata><defs
     id="defs3024"><clipPath
       id="clipPath3034"><path
         d="m 0,595.276 841.89,0 L 841.89,0 0,0 0,595.276 z"
         id="path3036" /></clipPath></defs><g
     transform="matrix(1.25,0,0,-1.25,0,744.095)"
     id="g3028"><g
       id="g3030"><g
         clip-path="url(#clipPath3034)"
         id="g3032"><g
           transform="translate(53.4863,238.3594)"
           id="g3038"><path
             d="m 0,0 c 3.777,0.063 7.989,1.322 12.029,3.821 7.116,4.399 14.889,13.605 10.269,21.891 -0.275,0.402 -0.542,0.827 -0.867,1.184 -4.494,4.593 -13.347,5.088 -22.045,-0.412 -9.5,-6.002 -13.6,-14.896 -9.661,-21.264 C -8.19,1.848 -4.425,0.084 0,0 m -6.778,29.898 c 5.968,3.245 12.205,4.661 17.706,4.606 4.974,0.053 9.389,-1.086 12.527,-3.163 l -0.326,22.471 0,15.953 0,16.426 45.021,9.318 0,-10.223 -40.199,-8.531 0,-5.99 40.199,8.317 0,-10.222 -40.199,-8.533 0,-5.516 40.199,8.321 0,-10.225 -40.199,-8.533 0,-8.948 0.084,-22.092 c 0.266,-2.789 1.033,-8.104 5.428,-6.456 0.914,3.43 6.067,5.294 8.807,2.152 C 43.871,7.237 43.697,3.033 40.97,0.603 35.474,-4.309 26.133,-1.811 24.707,5.887 24.595,6.495 24.5,7.128 24.419,7.772 21.474,2.994 17.007,-1.482 11.134,-4.603 5.339,-7.68 -0.572,-9.131 -5.864,-9.069 c -7.619,-0.085 -14.041,2.928 -17.124,8.733 -5.159,9.715 1.708,22.352 16.21,30.234"
             id="path3040"
             style="fill:#e1e1e1;fill-opacity:1;fill-rule:evenodd;stroke:none" /></g><g
           transform="translate(180.3208,290.792)"
           id="g3042"><path
             d="m 0,0 -0.037,0 -10.834,-20.616 13.645,0 L 0,0 z m 14.733,-35.571 c 0.122,-0.899 0.18,-1.613 0.168,-2.137 -0.013,-0.525 -0.188,-0.918 -0.525,-1.181 -0.337,-0.262 -0.895,-0.424 -1.669,-0.488 -0.774,-0.062 -1.837,-0.093 -3.186,-0.093 -0.95,0 -1.724,0.02 -2.324,0.056 -0.599,0.037 -1.061,0.107 -1.386,0.207 -0.325,0.1 -0.552,0.247 -0.675,0.449 -0.126,0.2 -0.202,0.476 -0.224,0.824 l -1.313,9.746 -18.218,0 -5.023,-9.52 c -0.175,-0.352 -0.375,-0.644 -0.599,-0.882 -0.225,-0.236 -0.551,-0.418 -0.976,-0.543 -0.424,-0.124 -0.993,-0.213 -1.706,-0.261 -0.711,-0.049 -1.604,-0.076 -2.678,-0.076 -1.15,0 -2.045,0.037 -2.681,0.111 -0.636,0.077 -1.063,0.257 -1.276,0.546 -0.212,0.287 -0.235,0.691 -0.072,1.217 0.161,0.526 0.479,1.226 0.955,2.098 l 23.54,43.034 c 0.248,0.425 0.5,0.768 0.75,1.03 0.248,0.264 0.606,0.462 1.067,0.601 0.462,0.137 1.088,0.224 1.875,0.263 0.787,0.036 1.817,0.056 3.094,0.056 1.474,0 2.641,-0.02 3.505,-0.056 C 6.017,9.391 6.686,9.304 7.159,9.167 7.635,9.028 7.947,8.823 8.096,8.546 8.246,8.272 8.346,7.899 8.396,7.423 l 6.337,-42.994 z"
             id="path3044"
             style="fill:#e1e1e1;fill-opacity:1;fill-rule:nonzero;stroke:none" /></g><g
           transform="translate(231.7876,252.8584)"
           id="g3046"><path
             d="m 0,0 c -0.051,-0.25 -0.169,-0.473 -0.356,-0.674 -0.186,-0.2 -0.48,-0.363 -0.881,-0.488 -0.399,-0.126 -0.907,-0.218 -1.519,-0.281 -0.611,-0.063 -1.38,-0.093 -2.305,-0.093 -0.925,0 -1.673,0.03 -2.249,0.093 -0.573,0.063 -1.03,0.155 -1.368,0.281 -0.338,0.125 -0.555,0.288 -0.656,0.488 C -9.433,-0.473 -9.458,-0.25 -9.409,0 l 5.396,26.99 -0.711,0 c -1.749,0 -3.26,-0.232 -4.536,-0.692 -1.274,-0.464 -2.367,-1.171 -3.279,-2.12 -0.912,-0.95 -1.68,-2.174 -2.303,-3.672 -0.627,-1.501 -1.163,-3.275 -1.614,-5.322 -0.575,-2.575 -1.186,-4.802 -1.836,-6.674 -0.65,-1.875 -1.344,-3.448 -2.082,-4.723 -0.736,-1.275 -1.542,-2.3 -2.417,-3.073 -0.874,-0.777 -1.831,-1.365 -2.867,-1.764 -1.037,-0.399 -2.182,-0.662 -3.432,-0.785 -1.247,-0.126 -2.61,-0.188 -4.084,-0.188 -0.675,0 -1.131,0.138 -1.368,0.41 -0.238,0.275 -0.357,0.7 -0.357,1.275 0,0.15 0.019,0.425 0.056,0.825 0.039,0.401 0.095,0.851 0.168,1.35 0.076,0.499 0.183,1.031 0.319,1.593 0.139,0.562 0.314,1.074 0.526,1.538 0.211,0.462 0.452,0.835 0.71,1.125 0.264,0.286 0.57,0.43 0.921,0.43 0.899,0 1.673,0.089 2.324,0.261 0.649,0.175 1.23,0.613 1.742,1.315 0.513,0.698 1.002,1.716 1.462,3.051 0.463,1.339 0.957,3.184 1.481,5.531 0.625,2.773 1.462,5.279 2.511,7.517 1.052,2.237 2.456,4.141 4.217,5.714 1.762,1.576 3.961,2.787 6.598,3.637 2.637,0.849 5.867,1.273 9.691,1.273 1.248,0 2.436,-0.016 3.559,-0.055 1.125,-0.038 2.112,-0.092 2.964,-0.166 0.897,-0.077 1.504,-0.346 1.817,-0.808 0.311,-0.46 0.367,-1.205 0.167,-2.23 L 0,0 z"
             id="path3048"
             style="fill:#e1e1e1;fill-opacity:1;fill-rule:nonzero;stroke:none" /></g><g
           transform="translate(266.7993,278.1992)"
           id="g3050"><path
             d="m 0,0 c 0,0.999 -0.395,1.828 -1.182,2.492 -0.788,0.664 -1.931,0.994 -3.429,0.994 -1.25,0 -2.367,-0.225 -3.355,-0.675 -0.987,-0.45 -1.857,-1.056 -2.606,-1.818 -0.749,-0.763 -1.392,-1.663 -1.929,-2.7 -0.538,-1.038 -0.97,-2.141 -1.293,-3.316 l 3.147,0 c 2,0 3.674,0.13 5.022,0.393 1.352,0.263 2.437,0.617 3.262,1.068 0.826,0.451 1.425,0.981 1.8,1.593 C -0.188,-1.355 0,-0.701 0,0 M 9.258,0.711 C 9.258,-1.087 8.852,-2.704 8.039,-4.142 7.227,-5.58 5.965,-6.816 4.254,-7.853 2.541,-8.89 0.368,-9.685 -2.269,-10.235 c -2.637,-0.549 -5.778,-0.823 -9.426,-0.823 l -3.45,0 c -0.098,-0.576 -0.175,-1.143 -0.225,-1.705 -0.05,-0.561 -0.075,-1.082 -0.075,-1.558 0,-2.022 0.525,-3.548 1.573,-4.573 1.052,-1.025 2.736,-1.537 5.062,-1.537 1.649,0 3.131,0.12 4.442,0.357 1.311,0.238 2.46,0.501 3.449,0.787 0.987,0.289 1.804,0.551 2.455,0.787 0.649,0.237 1.124,0.357 1.424,0.357 0.301,0 0.512,-0.088 0.638,-0.261 0.126,-0.177 0.187,-0.45 0.187,-0.828 0,-0.424 -0.037,-0.91 -0.112,-1.459 -0.075,-0.55 -0.182,-1.094 -0.319,-1.632 -0.138,-0.537 -0.313,-1.042 -0.525,-1.519 -0.214,-0.473 -0.454,-0.836 -0.73,-1.085 -0.301,-0.301 -0.85,-0.602 -1.649,-0.902 -0.801,-0.299 -1.763,-0.572 -2.888,-0.823 -1.123,-0.248 -2.386,-0.457 -3.786,-0.62 -1.398,-0.161 -2.823,-0.242 -4.272,-0.242 -2.399,0 -4.493,0.247 -6.281,0.747 -1.785,0.504 -3.279,1.266 -4.477,2.289 -1.199,1.026 -2.1,2.331 -2.701,3.916 -0.598,1.587 -0.899,3.467 -0.899,5.642 0,1.674 0.157,3.469 0.469,5.38 0.313,1.91 0.817,3.798 1.518,5.66 0.7,1.861 1.601,3.643 2.698,5.341 1.101,1.701 2.432,3.191 3.993,4.479 1.563,1.289 3.368,2.32 5.417,3.092 2.05,0.775 4.385,1.162 7.008,1.162 2.276,0 4.231,-0.265 5.869,-0.805 C 3.754,8.851 5.098,8.14 6.146,7.253 7.195,6.366 7.978,5.354 8.49,4.217 9.002,3.08 9.258,1.912 9.258,0.711"
             id="path3052"
             style="fill:#e1e1e1;fill-opacity:1;fill-rule:nonzero;stroke:none" /></g><g
           transform="translate(310.1685,252.8945)"
           id="g3054"><path
             d="m 0,0 c 0,-0.272 -0.069,-0.509 -0.205,-0.71 -0.138,-0.2 -0.394,-0.368 -0.77,-0.507 -0.376,-0.137 -0.875,-0.231 -1.499,-0.279 -0.625,-0.05 -1.425,-0.076 -2.4,-0.076 -1.049,0 -1.892,0.026 -2.529,0.076 -0.637,0.048 -1.131,0.122 -1.482,0.224 -0.348,0.1 -0.587,0.244 -0.712,0.432 -0.126,0.187 -0.213,0.405 -0.261,0.654 l -1.537,8.096 c -0.226,1.075 -0.489,1.969 -0.787,2.68 -0.3,0.713 -0.675,1.275 -1.125,1.689 -0.449,0.412 -0.994,0.699 -1.631,0.862 -0.637,0.162 -1.392,0.243 -2.267,0.243 l -1.911,0 -2.738,-13.644 c -0.024,-0.175 -0.137,-0.345 -0.337,-0.506 -0.201,-0.163 -0.506,-0.307 -0.918,-0.432 -0.412,-0.126 -0.924,-0.218 -1.537,-0.281 -0.612,-0.063 -1.345,-0.093 -2.194,-0.093 -0.873,0 -1.598,0.03 -2.173,0.093 -0.576,0.063 -1.037,0.155 -1.388,0.281 -0.349,0.125 -0.586,0.269 -0.71,0.432 -0.127,0.161 -0.176,0.331 -0.151,0.506 l 6.747,33.847 c 0.025,0.176 0.137,0.346 0.336,0.506 0.2,0.163 0.5,0.303 0.903,0.415 0.398,0.112 0.903,0.199 1.517,0.262 0.612,0.062 1.355,0.091 2.229,0.091 0.85,0 1.568,-0.029 2.155,-0.091 0.587,-0.063 1.057,-0.15 1.407,-0.262 0.351,-0.112 0.593,-0.252 0.731,-0.415 0.137,-0.16 0.18,-0.33 0.129,-0.506 l -2.585,-13.005 1.91,0 c 0.675,0 1.338,0.087 1.989,0.261 0.649,0.176 1.281,0.487 1.893,0.938 0.612,0.449 1.223,1.042 1.836,1.78 0.612,0.738 1.23,1.68 1.855,2.83 l 4.086,7.046 c 0.149,0.253 0.337,0.469 0.563,0.656 0.224,0.188 0.555,0.339 0.993,0.449 0.437,0.115 0.992,0.194 1.668,0.244 0.674,0.052 1.538,0.075 2.587,0.075 0.924,0 1.661,-0.023 2.211,-0.075 0.549,-0.05 0.982,-0.118 1.291,-0.205 0.317,-0.087 0.521,-0.185 0.62,-0.3 0.099,-0.11 0.15,-0.243 0.15,-0.393 C 5.959,33.637 5.88,33.32 5.717,32.933 5.553,32.544 5.272,32.024 4.872,31.376 L 0.711,24.742 c -0.723,-1.175 -1.454,-2.197 -2.192,-3.073 -0.737,-0.874 -1.475,-1.619 -2.212,-2.231 -0.738,-0.614 -1.463,-1.112 -2.174,-1.5 -0.711,-0.386 -1.394,-0.682 -2.044,-0.879 l 0,-0.077 c 0.676,-0.25 1.307,-0.575 1.895,-0.974 0.588,-0.401 1.122,-0.907 1.612,-1.519 0.487,-0.612 0.925,-1.331 1.311,-2.154 0.387,-0.824 0.719,-1.787 0.994,-2.888 L -0.264,1.838 C -0.163,1.363 -0.093,0.981 -0.058,0.695 -0.02,0.407 0,0.177 0,0"
             id="path3056"
             style="fill:#e1e1e1;fill-opacity:1;fill-rule:nonzero;stroke:none" /></g><g
           transform="translate(346.4897,284.0459)"
           id="g3058"><path
             d="m 0,0 c 0,-0.575 -0.067,-1.224 -0.206,-1.95 -0.137,-0.725 -0.318,-1.41 -0.542,-2.061 -0.226,-0.65 -0.506,-1.193 -0.845,-1.63 -0.336,-0.438 -0.705,-0.655 -1.106,-0.655 -0.373,0 -0.735,0.149 -1.085,0.449 -0.352,0.298 -0.782,0.637 -1.293,1.013 -0.513,0.374 -1.157,0.718 -1.93,1.03 -0.776,0.311 -1.776,0.468 -3,0.468 -1.301,0 -2.462,-0.288 -3.485,-0.861 -1.027,-0.576 -1.919,-1.318 -2.682,-2.23 -0.762,-0.914 -1.393,-1.951 -1.894,-3.111 -0.497,-1.164 -0.911,-2.338 -1.235,-3.525 -0.327,-1.188 -0.558,-2.324 -0.694,-3.411 -0.138,-1.088 -0.207,-2.033 -0.207,-2.831 0,-2.023 0.445,-3.56 1.332,-4.611 0.888,-1.049 2.28,-1.571 4.179,-1.571 1.4,0 2.599,0.178 3.597,0.541 1,0.363 1.856,0.762 2.569,1.199 0.712,0.439 1.326,0.831 1.838,1.181 0.511,0.351 0.98,0.524 1.405,0.524 0.249,0 0.432,-0.112 0.544,-0.336 0.111,-0.227 0.17,-0.551 0.17,-0.974 0,-0.425 -0.051,-0.958 -0.151,-1.594 -0.101,-0.638 -0.233,-1.28 -0.394,-1.932 -0.162,-0.648 -0.35,-1.253 -0.565,-1.816 -0.211,-0.563 -0.484,-1.006 -0.821,-1.331 -0.34,-0.326 -0.871,-0.693 -1.595,-1.105 -0.723,-0.414 -1.562,-0.781 -2.511,-1.107 -0.95,-0.324 -1.98,-0.586 -3.092,-0.785 -1.112,-0.203 -2.268,-0.302 -3.468,-0.302 -4.274,0 -7.472,1.082 -9.597,3.242 -2.124,2.164 -3.186,5.353 -3.186,9.577 0,1.527 0.145,3.2 0.432,5.024 0.287,1.826 0.756,3.656 1.406,5.493 0.649,1.837 1.492,3.616 2.528,5.34 1.039,1.724 2.308,3.249 3.806,4.574 1.5,1.325 3.236,2.386 5.211,3.185 1.975,0.799 4.249,1.201 6.822,1.201 0.999,0 1.974,-0.075 2.925,-0.226 C -5.873,3.937 -4.998,3.73 -4.196,3.469 -3.397,3.206 -2.689,2.899 -2.079,2.548 -1.465,2.199 -1.011,1.881 -0.711,1.593 -0.412,1.306 -0.215,1.05 -0.131,0.826 -0.043,0.601 0,0.325 0,0"
             id="path3060"
             style="fill:#e1e1e1;fill-opacity:1;fill-rule:nonzero;stroke:none" /></g><g
           transform="translate(373.8169,276.249)"
           id="g3062"><path
             d="m 0,0 c -0.875,1.374 -1.843,2.406 -2.904,3.094 -1.062,0.684 -2.291,1.031 -3.694,1.031 -1.048,0 -2.011,-0.252 -2.885,-0.75 -0.874,-0.5 -1.651,-1.169 -2.324,-2.005 -0.673,-0.838 -1.269,-1.807 -1.779,-2.906 -0.514,-1.1 -0.939,-2.241 -1.276,-3.43 -0.339,-1.186 -0.586,-2.388 -0.749,-3.599 -0.164,-1.211 -0.245,-2.331 -0.245,-3.357 0,-0.746 0.057,-1.46 0.17,-2.135 0.112,-0.674 0.319,-1.275 0.616,-1.799 0.3,-0.526 0.702,-0.943 1.201,-1.255 0.499,-0.313 1.138,-0.469 1.911,-0.469 1.102,0 2.225,0.332 3.376,0.994 1.147,0.661 2.223,1.56 3.223,2.7 0.999,1.136 1.88,2.461 2.642,3.971 0.762,1.512 1.32,3.129 1.667,4.855 L 0,0 z M 4.651,-23.465 C 4.55,-23.991 4.153,-24.366 3.466,-24.59 2.78,-24.816 1.674,-24.927 0.149,-24.927 c -0.774,0 -1.403,0.027 -1.892,0.076 -0.486,0.048 -0.878,0.129 -1.181,0.243 -0.301,0.112 -0.493,0.262 -0.583,0.449 -0.086,0.188 -0.103,0.42 -0.055,0.694 l 1.053,5.361 c -0.377,-0.801 -0.978,-1.645 -1.803,-2.531 -0.823,-0.889 -1.798,-1.692 -2.923,-2.418 -1.124,-0.725 -2.366,-1.324 -3.728,-1.798 -1.363,-0.476 -2.767,-0.712 -4.218,-0.712 -1.998,0 -3.66,0.348 -4.984,1.048 -1.326,0.702 -2.387,1.642 -3.188,2.83 -0.8,1.187 -1.368,2.543 -1.705,4.068 -0.338,1.526 -0.506,3.123 -0.506,4.797 0,1.575 0.149,3.293 0.451,5.154 0.299,1.863 0.759,3.718 1.385,5.566 0.624,1.851 1.425,3.63 2.4,5.343 0.975,1.711 2.142,3.231 3.503,4.554 1.364,1.324 2.925,2.382 4.686,3.169 1.763,0.787 3.757,1.179 5.981,1.179 2.075,0 3.909,-0.43 5.51,-1.293 1.597,-0.862 3,-2.117 4.197,-3.767 l 0.601,2.963 c 0.097,0.524 0.492,0.898 1.182,1.123 0.686,0.224 1.789,0.336 3.316,0.336 0.748,0 1.373,-0.029 1.874,-0.092 0.499,-0.062 0.893,-0.149 1.182,-0.262 0.285,-0.111 0.479,-0.262 0.58,-0.451 0.1,-0.186 0.122,-0.407 0.073,-0.654 L 4.651,-23.465 z"
             id="path3064"
             style="fill:#e1e1e1;fill-opacity:1;fill-rule:nonzero;stroke:none" /></g><g
           transform="translate(420,252.8213)"
           id="g3066"><path
             d="M 0,0 C -0.052,-0.249 -0.176,-0.469 -0.376,-0.655 -0.574,-0.843 -0.873,-1 -1.255,-1.125 c -0.39,-0.126 -0.89,-0.218 -1.5,-0.281 -0.614,-0.063 -1.383,-0.093 -2.308,-0.093 -0.9,0 -1.65,0.03 -2.249,0.093 -0.6,0.063 -1.062,0.155 -1.384,0.281 C -9.024,-1 -9.244,-0.843 -9.355,-0.655 -9.467,-0.469 -9.486,-0.249 -9.41,0 l 2.624,13.158 -13.233,0 L -22.64,0 c -0.052,-0.249 -0.171,-0.469 -0.359,-0.655 -0.188,-0.188 -0.474,-0.345 -0.863,-0.47 -0.386,-0.126 -0.893,-0.218 -1.518,-0.281 -0.622,-0.063 -1.388,-0.093 -2.287,-0.093 -0.923,0 -1.679,0.03 -2.266,0.093 -0.586,0.063 -1.048,0.155 -1.389,0.281 -0.332,0.125 -0.552,0.282 -0.653,0.47 -0.103,0.186 -0.128,0.406 -0.074,0.655 l 6.669,33.438 c 0.051,0.25 0.17,0.467 0.358,0.654 0.189,0.187 0.477,0.344 0.86,0.47 0.389,0.126 0.89,0.218 1.5,0.281 0.61,0.062 1.379,0.092 2.306,0.092 0.923,0 1.679,-0.03 2.269,-0.092 0.586,-0.063 1.05,-0.155 1.387,-0.281 0.335,-0.126 0.554,-0.283 0.654,-0.47 0.101,-0.187 0.127,-0.404 0.076,-0.654 l -2.512,-12.522 13.233,0 2.512,12.522 c 0.049,0.25 0.161,0.467 0.334,0.654 0.175,0.187 0.459,0.344 0.844,0.47 0.389,0.126 0.893,0.218 1.52,0.281 0.625,0.062 1.388,0.092 2.29,0.092 0.92,0 1.68,-0.03 2.266,-0.092 0.586,-0.063 1.048,-0.155 1.387,-0.281 0.334,-0.126 0.56,-0.283 0.672,-0.47 0.112,-0.187 0.143,-0.404 0.093,-0.654 L 0,0 z"
             id="path3068"
             style="fill:#e1e1e1;fill-opacity:1;fill-rule:nonzero;stroke:none" /></g><g
           transform="translate(455.4971,272.0137)"
           id="g3070"><path
             d="m 0,0 c 0,2.576 -0.496,4.579 -1.481,6.015 -0.985,1.439 -2.443,2.156 -4.367,2.156 -1.227,0 -2.325,-0.268 -3.3,-0.806 -0.972,-0.537 -1.817,-1.236 -2.528,-2.098 -0.711,-0.862 -1.318,-1.841 -1.819,-2.943 -0.498,-1.098 -0.9,-2.21 -1.199,-3.335 -0.299,-1.126 -0.517,-2.215 -0.657,-3.262 -0.136,-1.05 -0.207,-1.95 -0.207,-2.698 0,-2.05 0.402,-3.642 1.204,-4.781 0.798,-1.137 2.083,-1.703 3.861,-1.703 1.171,0 2.244,0.217 3.222,0.655 0.974,0.437 1.853,1.017 2.64,1.743 0.788,0.724 1.473,1.548 2.046,2.472 0.571,0.926 1.054,1.888 1.439,2.887 0.389,1 0.678,1.992 0.864,2.979 C -0.095,-1.729 0,-0.824 0,0 m 11.732,12.219 c 0,-1.098 -0.051,-2.41 -0.147,-3.935 C 11.483,6.76 11.286,5.109 11.001,3.337 10.712,1.562 10.314,-0.281 9.801,-2.192 9.287,-4.104 8.626,-5.972 7.814,-7.797 7.004,-9.622 6.017,-11.351 4.854,-12.99 3.689,-14.626 2.321,-16.063 0.75,-17.3 c -1.574,-1.236 -3.386,-2.218 -5.438,-2.941 -2.046,-0.726 -4.373,-1.087 -6.969,-1.087 -2.375,0 -4.426,0.293 -6.148,0.879 -1.725,0.588 -3.143,1.451 -4.256,2.587 -1.112,1.137 -1.931,2.525 -2.457,4.162 -0.521,1.636 -0.786,3.504 -0.786,5.603 0,1.551 0.152,3.22 0.45,5.004 0.3,1.787 0.772,3.574 1.406,5.362 0.637,1.787 1.445,3.503 2.417,5.154 0.975,1.648 2.151,3.11 3.526,4.384 1.373,1.275 2.942,2.288 4.702,3.036 1.762,0.75 3.758,1.126 5.982,1.126 1.12,0 2.19,-0.119 3.204,-0.358 1.011,-0.236 1.926,-0.582 2.739,-1.031 0.809,-0.449 1.516,-0.997 2.113,-1.648 0.599,-0.649 1.077,-1.399 1.425,-2.249 0.025,0.225 0.037,0.451 0.037,0.674 l 0,0.9 c 0,1.575 -0.191,3.066 -0.58,4.48 -0.388,1.411 -1.042,2.663 -1.969,3.749 -0.922,1.085 -2.162,1.943 -3.711,2.566 -1.549,0.626 -3.484,0.939 -5.807,0.939 -0.826,0 -1.374,0.113 -1.65,0.337 -0.276,0.225 -0.413,0.598 -0.413,1.126 0,0.148 0.009,0.371 0.037,0.673 0.024,0.299 0.072,0.65 0.151,1.052 0.073,0.398 0.156,0.81 0.241,1.236 0.091,0.425 0.191,0.835 0.304,1.235 0.112,0.4 0.233,0.757 0.373,1.07 0.137,0.311 0.27,0.529 0.392,0.653 0.149,0.153 0.371,0.27 0.66,0.358 0.284,0.089 0.74,0.131 1.365,0.131 3.05,0 5.791,-0.363 8.229,-1.086 2.436,-0.726 4.495,-1.876 6.184,-3.451 1.688,-1.575 2.978,-3.602 3.878,-6.09 0.899,-2.487 1.351,-5.493 1.351,-9.016"
             id="path3072"
             style="fill:#e1e1e1;fill-opacity:1;fill-rule:nonzero;stroke:none" /></g><g
           transform="translate(497.7061,274.8242)"
           id="g3074"><path
             d="m 0,0 c 0,0.852 -0.069,1.626 -0.206,2.324 -0.141,0.701 -0.364,1.294 -0.677,1.78 -0.312,0.491 -0.711,0.858 -1.198,1.107 -0.488,0.249 -1.084,0.373 -1.782,0.373 -1.123,0 -2.254,-0.328 -3.392,-0.989 -1.138,-0.664 -2.206,-1.564 -3.204,-2.7 -1,-1.14 -1.887,-2.464 -2.661,-3.976 -0.775,-1.51 -1.325,-3.129 -1.651,-4.854 l -1.046,-5.097 c 0.871,-1.374 1.839,-2.406 2.903,-3.093 1.06,-0.687 2.293,-1.03 3.689,-1.03 1.024,0 1.97,0.249 2.831,0.748 0.864,0.501 1.635,1.17 2.321,2.007 0.69,0.837 1.291,1.803 1.802,2.903 0.512,1.1 0.942,2.251 1.276,3.45 0.339,1.201 0.585,2.406 0.75,3.618 C -0.082,-2.218 0,-1.073 0,0 m 9.707,0.824 c 0,-1.622 -0.147,-3.371 -0.449,-5.246 -0.3,-1.875 -0.762,-3.737 -1.388,-5.586 -0.625,-1.848 -1.424,-3.631 -2.396,-5.342 -0.979,-1.711 -2.145,-3.215 -3.504,-4.514 -1.365,-1.301 -2.926,-2.338 -4.689,-3.113 -1.76,-0.774 -3.745,-1.162 -5.942,-1.162 -1,0 -1.935,0.1 -2.811,0.297 -0.874,0.202 -1.679,0.483 -2.42,0.845 -0.736,0.364 -1.403,0.787 -2.004,1.275 -0.599,0.488 -1.125,1.007 -1.575,1.556 l -2.958,-15.107 c -0.051,-0.248 -0.17,-0.475 -0.358,-0.675 -0.188,-0.199 -0.478,-0.368 -0.863,-0.504 -0.389,-0.14 -0.893,-0.246 -1.518,-0.319 -0.622,-0.077 -1.396,-0.114 -2.323,-0.114 -0.928,0 -1.671,0.037 -2.251,0.114 -0.574,0.073 -1.027,0.179 -1.367,0.319 -0.334,0.136 -0.556,0.305 -0.654,0.504 -0.102,0.2 -0.128,0.427 -0.078,0.675 l 9.37,46.746 c 0.103,0.524 0.489,0.898 1.163,1.123 0.677,0.223 1.789,0.336 3.338,0.336 0.775,0 1.407,-0.03 1.893,-0.092 0.488,-0.063 0.874,-0.15 1.163,-0.262 0.288,-0.111 0.479,-0.263 0.581,-0.451 0.099,-0.187 0.124,-0.407 0.074,-0.654 l -1.05,-5.438 c 0.373,0.826 0.969,1.68 1.78,2.569 0.815,0.887 1.789,1.699 2.925,2.438 1.135,0.735 2.388,1.341 3.749,1.814 1.359,0.475 2.766,0.713 4.217,0.713 1.923,0 3.539,-0.33 4.852,-0.991 C 5.528,11.916 6.589,11.009 7.402,9.858 8.214,8.71 8.802,7.36 9.161,5.812 9.525,4.261 9.707,2.601 9.707,0.824"
             id="path3076"
             style="fill:#e1e1e1;fill-opacity:1;fill-rule:nonzero;stroke:none" /></g><g
           transform="translate(566.4902,298.6274)"
           id="g3078"><path
             d="M 0,0 C 0,-0.149 -0.019,-0.412 -0.055,-0.789 -0.098,-1.16 -0.152,-1.58 -0.226,-2.042 -0.301,-2.505 -0.401,-2.986 -0.529,-3.486 -0.65,-3.985 -0.806,-4.442 -0.994,-4.854 -1.183,-5.266 -1.406,-5.609 -1.668,-5.885 -1.932,-6.161 -2.215,-6.297 -2.512,-6.297 l -17.319,0 -2.399,-11.844 14.694,0 c 0.348,0 0.598,-0.126 0.747,-0.375 0.155,-0.252 0.228,-0.602 0.228,-1.052 0,-0.173 -0.018,-0.441 -0.057,-0.806 -0.037,-0.36 -0.092,-0.772 -0.171,-1.236 -0.07,-0.462 -0.17,-0.932 -0.297,-1.406 -0.125,-0.474 -0.28,-0.909 -0.469,-1.313 -0.187,-0.398 -0.407,-0.723 -0.656,-0.973 -0.249,-0.25 -0.524,-0.375 -0.822,-0.375 l -14.658,0 -2.774,-13.681 17.543,0 c 0.302,0 0.523,-0.132 0.676,-0.393 0.148,-0.263 0.224,-0.646 0.224,-1.143 0,-0.178 -0.011,-0.451 -0.04,-0.826 -0.021,-0.375 -0.079,-0.792 -0.163,-1.257 -0.091,-0.461 -0.197,-0.93 -0.319,-1.404 -0.127,-0.477 -0.283,-0.918 -0.474,-1.33 -0.185,-0.414 -0.405,-0.744 -0.654,-0.995 -0.252,-0.25 -0.537,-0.375 -0.865,-0.375 l -24.362,0 c -0.398,0 -0.762,0.057 -1.087,0.168 -0.326,0.113 -0.593,0.301 -0.806,0.564 -0.212,0.263 -0.354,0.586 -0.431,0.974 -0.076,0.388 -0.06,0.857 0.036,1.406 l 8.475,42.281 c 0.221,1.102 0.671,1.895 1.346,2.383 0.673,0.486 1.425,0.728 2.25,0.728 l 24.14,0 C -0.325,1.423 0,0.951 0,0"
             id="path3080"
             style="fill:#e1e1e1;fill-opacity:1;fill-rule:nonzero;stroke:none" /></g><g
           transform="translate(593.0273,274.8242)"
           id="g3082"><path
             d="m 0,0 c 0,0.852 -0.066,1.626 -0.207,2.324 -0.137,0.701 -0.36,1.294 -0.675,1.78 -0.309,0.491 -0.711,0.858 -1.196,1.107 -0.485,0.249 -1.081,0.373 -1.782,0.373 -1.124,0 -2.251,-0.328 -3.391,-0.989 -1.139,-0.664 -2.204,-1.564 -3.207,-2.7 -0.999,-1.14 -1.887,-2.464 -2.661,-3.976 -0.777,-1.51 -1.324,-3.129 -1.646,-4.854 l -1.054,-5.097 c 0.876,-1.374 1.844,-2.406 2.907,-3.093 1.063,-0.687 2.294,-1.03 3.69,-1.03 1.027,0 1.971,0.249 2.831,0.748 0.867,0.501 1.638,1.17 2.324,2.007 0.689,0.837 1.288,1.803 1.797,2.903 0.514,1.1 0.939,2.251 1.276,3.45 0.341,1.201 0.59,2.406 0.753,3.618 C -0.079,-2.218 0,-1.073 0,0 m 9.707,0.824 c 0,-1.622 -0.149,-3.371 -0.446,-5.246 -0.301,-1.875 -0.763,-3.737 -1.39,-5.586 -0.622,-1.848 -1.423,-3.631 -2.397,-5.342 -0.973,-1.711 -2.142,-3.215 -3.506,-4.514 -1.362,-1.301 -2.925,-2.338 -4.684,-3.113 -1.762,-0.774 -3.745,-1.162 -5.941,-1.162 -1.001,0 -1.938,0.1 -2.812,0.297 -0.876,0.202 -1.683,0.483 -2.419,0.845 -0.737,0.364 -1.403,0.787 -2.003,1.275 -0.602,0.488 -1.128,1.007 -1.574,1.556 l -2.965,-15.107 c -0.048,-0.248 -0.163,-0.475 -0.354,-0.675 -0.187,-0.199 -0.475,-0.368 -0.863,-0.504 -0.386,-0.14 -0.893,-0.246 -1.517,-0.319 -0.625,-0.077 -1.402,-0.114 -2.325,-0.114 -0.927,0 -1.673,0.037 -2.247,0.114 -0.577,0.073 -1.03,0.179 -1.368,0.319 -0.34,0.136 -0.56,0.305 -0.659,0.504 -0.101,0.2 -0.122,0.427 -0.073,0.675 l 9.371,46.746 c 0.1,0.524 0.485,0.898 1.161,1.123 0.672,0.223 1.787,0.336 3.337,0.336 0.778,0 1.405,-0.03 1.895,-0.092 0.483,-0.063 0.872,-0.15 1.16,-0.262 0.286,-0.111 0.48,-0.263 0.58,-0.451 0.101,-0.187 0.124,-0.407 0.072,-0.654 l -1.045,-5.438 c 0.375,0.826 0.966,1.68 1.782,2.569 0.81,0.887 1.785,1.699 2.92,2.438 1.137,0.735 2.388,1.341 3.749,1.814 1.361,0.475 2.77,0.713 4.216,0.713 1.926,0 3.545,-0.33 4.856,-0.991 C 5.531,11.916 6.59,11.009 7.405,9.858 8.219,8.71 8.805,7.36 9.166,5.812 9.531,4.261 9.707,2.601 9.707,0.824"
             id="path3084"
             style="fill:#e1e1e1;fill-opacity:1;fill-rule:nonzero;stroke:none" /></g><g
           transform="translate(653.5273,253.0098)"
           id="g3086"><path
             d="m 0,0 c -0.049,-0.624 -0.419,-1.064 -1.106,-1.313 -0.686,-0.25 -1.828,-0.375 -3.425,-0.375 -0.979,0 -1.75,0.012 -2.326,0.038 -0.575,0.024 -1.013,0.087 -1.313,0.187 -0.301,0.099 -0.482,0.244 -0.542,0.432 -0.063,0.187 -0.084,0.43 -0.058,0.73 l 1.575,17.955 c 0.048,0.526 0.128,1.2 0.223,2.024 0.102,0.826 0.214,1.706 0.338,2.644 0.124,0.936 0.262,1.887 0.414,2.846 0.148,0.963 0.3,1.857 0.449,2.682 l -0.073,0 c -0.325,-0.675 -0.684,-1.412 -1.07,-2.209 -0.387,-0.801 -0.782,-1.615 -1.18,-2.439 -0.405,-0.824 -0.8,-1.643 -1.199,-2.454 -0.401,-0.813 -0.764,-1.545 -1.089,-2.193 L -19.939,0.037 c -0.15,-0.301 -0.344,-0.561 -0.581,-0.789 -0.236,-0.224 -0.556,-0.404 -0.957,-0.543 -0.398,-0.137 -0.892,-0.236 -1.482,-0.3 -0.586,-0.062 -1.294,-0.093 -2.116,-0.093 -0.803,0 -1.459,0.031 -1.97,0.093 -0.513,0.064 -0.934,0.163 -1.271,0.3 -0.338,0.139 -0.578,0.319 -0.715,0.543 -0.137,0.228 -0.23,0.501 -0.28,0.826 l -2.025,18.481 c -0.101,0.724 -0.187,1.504 -0.261,2.341 -0.076,0.836 -0.146,1.67 -0.207,2.495 -0.063,0.822 -0.112,1.619 -0.149,2.38 -0.039,0.761 -0.058,1.454 -0.058,2.079 l -0.076,0 c -0.176,-0.748 -0.38,-1.567 -0.616,-2.454 -0.239,-0.89 -0.475,-1.79 -0.714,-2.701 -0.236,-0.91 -0.479,-1.804 -0.729,-2.678 -0.25,-0.875 -0.473,-1.663 -0.677,-2.363 l -5.47,-17.73 c -0.102,-0.325 -0.239,-0.595 -0.417,-0.805 -0.173,-0.213 -0.446,-0.381 -0.822,-0.507 -0.374,-0.126 -0.863,-0.207 -1.461,-0.244 -0.602,-0.036 -1.386,-0.056 -2.362,-0.056 -0.9,0 -1.609,0.027 -2.119,0.077 -0.513,0.048 -0.899,0.142 -1.161,0.279 -0.262,0.139 -0.412,0.311 -0.45,0.524 -0.038,0.213 -0.007,0.484 0.096,0.808 l 9.556,31.299 c 0.352,1.073 0.862,1.883 1.537,2.418 0.673,0.536 1.613,0.806 2.812,0.806 l 4.383,0 c 1.002,0 1.84,-0.074 2.514,-0.226 0.677,-0.15 1.231,-0.411 1.668,-0.786 0.437,-0.376 0.769,-0.888 0.991,-1.536 0.224,-0.651 0.377,-1.464 0.453,-2.438 l 1.46,-11.473 c 0.099,-0.749 0.181,-1.527 0.246,-2.339 0.063,-0.813 0.118,-1.624 0.17,-2.437 0.049,-0.814 0.085,-1.601 0.109,-2.362 0.024,-0.762 0.052,-1.481 0.077,-2.155 l 0.075,0 c 0.298,0.674 0.624,1.41 0.971,2.209 0.354,0.801 0.715,1.613 1.088,2.438 0.378,0.825 0.76,1.638 1.147,2.436 0.384,0.8 0.78,1.551 1.179,2.25 l 5.961,11.433 c 0.424,0.901 0.856,1.667 1.29,2.305 0.441,0.639 0.932,1.151 1.48,1.539 0.551,0.385 1.196,0.675 1.931,0.861 0.738,0.185 1.621,0.281 2.643,0.281 l 5.062,0 c 1.176,0 2.012,-0.27 2.512,-0.806 0.498,-0.535 0.687,-1.345 0.562,-2.418 L 0,0 z"
             id="path3088"
             style="fill:#e1e1e1;fill-opacity:1;fill-rule:nonzero;stroke:none" /></g><g
           transform="translate(687.5303,276.249)"
           id="g3090"><path
             d="m 0,0 c -0.878,1.374 -1.847,2.406 -2.91,3.094 -1.063,0.684 -2.29,1.031 -3.69,1.031 -1.047,0 -2.01,-0.252 -2.889,-0.75 -0.871,-0.5 -1.649,-1.169 -2.324,-2.005 -0.67,-0.838 -1.266,-1.807 -1.776,-2.906 -0.516,-1.1 -0.938,-2.241 -1.275,-3.43 -0.338,-1.186 -0.587,-2.388 -0.75,-3.599 -0.162,-1.211 -0.247,-2.331 -0.247,-3.357 0,-0.746 0.057,-1.46 0.171,-2.135 0.111,-0.674 0.318,-1.275 0.619,-1.799 0.3,-0.526 0.698,-0.943 1.199,-1.255 0.502,-0.313 1.137,-0.469 1.911,-0.469 1.1,0 2.226,0.332 3.37,0.994 1.156,0.661 2.228,1.56 3.23,2.7 0.997,1.136 1.877,2.461 2.639,3.971 0.764,1.512 1.319,3.129 1.667,4.855 L 0,0 z m 4.644,-23.465 c -0.098,-0.526 -0.492,-0.901 -1.182,-1.125 -0.683,-0.226 -1.792,-0.337 -3.313,-0.337 -0.778,0 -1.409,0.027 -1.896,0.076 -0.482,0.048 -0.88,0.129 -1.181,0.243 -0.301,0.112 -0.493,0.262 -0.577,0.449 -0.092,0.188 -0.11,0.42 -0.058,0.694 l 1.047,5.361 c -0.373,-0.801 -0.974,-1.645 -1.797,-2.531 -0.826,-0.889 -1.798,-1.692 -2.924,-2.418 -1.125,-0.725 -2.367,-1.324 -3.732,-1.798 -1.359,-0.476 -2.766,-0.712 -4.215,-0.712 -2.002,0 -3.659,0.348 -4.984,1.048 -1.324,0.702 -2.388,1.642 -3.186,2.83 -0.802,1.187 -1.37,2.543 -1.708,4.068 -0.335,1.526 -0.506,3.123 -0.506,4.797 0,1.575 0.152,3.293 0.452,5.154 0.296,1.863 0.762,3.718 1.386,5.566 0.626,1.851 1.424,3.63 2.398,5.343 0.973,1.711 2.142,3.231 3.506,4.554 1.364,1.324 2.923,2.382 4.683,3.169 1.762,0.787 3.754,1.179 5.98,1.179 2.075,0 3.914,-0.43 5.514,-1.293 C -0.052,9.99 1.345,8.735 2.549,7.085 l 0.595,2.963 c 0.1,0.524 0.496,0.898 1.181,1.123 0.686,0.224 1.795,0.336 3.32,0.336 0.748,0 1.376,-0.029 1.874,-0.092 0.501,-0.062 0.892,-0.149 1.178,-0.262 0.288,-0.111 0.483,-0.262 0.583,-0.451 0.1,-0.186 0.128,-0.407 0.076,-0.654 L 4.644,-23.465 z"
             id="path3092"
             style="fill:#e1e1e1;fill-opacity:1;fill-rule:nonzero;stroke:none" /></g><g
           transform="translate(732.8838,252.8945)"
           id="g3094"><path
             d="m 0,0 c 0,-0.272 -0.066,-0.509 -0.207,-0.71 -0.137,-0.2 -0.392,-0.368 -0.769,-0.507 -0.373,-0.137 -0.872,-0.231 -1.497,-0.279 -0.626,-0.05 -1.427,-0.076 -2.4,-0.076 -1.047,0 -1.895,0.026 -2.528,0.076 -0.638,0.048 -1.131,0.122 -1.483,0.224 -0.35,0.1 -0.59,0.244 -0.711,0.432 -0.125,0.187 -0.213,0.405 -0.261,0.654 l -1.537,8.096 c -0.228,1.075 -0.49,1.969 -0.787,2.68 -0.303,0.713 -0.678,1.275 -1.128,1.689 -0.449,0.412 -0.992,0.699 -1.632,0.862 -0.635,0.162 -1.389,0.243 -2.267,0.243 l -1.909,0 -2.738,-13.644 c -0.027,-0.175 -0.14,-0.345 -0.337,-0.506 -0.202,-0.163 -0.504,-0.307 -0.916,-0.432 -0.414,-0.126 -0.927,-0.218 -1.538,-0.281 -0.614,-0.063 -1.343,-0.093 -2.192,-0.093 -0.876,0 -1.6,0.03 -2.177,0.093 -0.573,0.063 -1.038,0.155 -1.386,0.281 -0.351,0.125 -0.587,0.269 -0.711,0.432 -0.124,0.161 -0.173,0.331 -0.15,0.506 l 6.745,33.847 c 0.026,0.176 0.138,0.346 0.341,0.506 0.197,0.163 0.495,0.303 0.897,0.415 0.4,0.112 0.908,0.199 1.519,0.262 0.61,0.062 1.355,0.091 2.229,0.091 0.85,0 1.567,-0.029 2.157,-0.091 0.585,-0.063 1.053,-0.15 1.406,-0.262 0.349,-0.112 0.594,-0.252 0.731,-0.415 0.136,-0.16 0.182,-0.33 0.131,-0.506 l -2.587,-13.005 1.91,0 c 0.677,0 1.34,0.087 1.986,0.261 0.653,0.176 1.281,0.487 1.893,0.938 0.616,0.449 1.224,1.042 1.84,1.78 0.611,0.738 1.227,1.68 1.855,2.83 l 4.086,7.046 c 0.151,0.253 0.335,0.469 0.562,0.656 0.224,0.188 0.555,0.339 0.994,0.449 0.434,0.115 0.992,0.194 1.667,0.244 0.673,0.052 1.537,0.075 2.587,0.075 0.923,0 1.663,-0.023 2.208,-0.075 0.554,-0.05 0.985,-0.118 1.294,-0.205 0.313,-0.087 0.52,-0.185 0.62,-0.3 0.103,-0.11 0.152,-0.243 0.152,-0.393 0,-0.251 -0.083,-0.568 -0.246,-0.955 -0.162,-0.389 -0.44,-0.909 -0.842,-1.557 l -4.16,-6.634 c -0.727,-1.175 -1.459,-2.197 -2.193,-3.073 -0.739,-0.874 -1.473,-1.619 -2.211,-2.231 -0.741,-0.614 -1.464,-1.112 -2.175,-1.5 -0.711,-0.386 -1.396,-0.682 -2.044,-0.879 l 0,-0.077 c 0.674,-0.25 1.302,-0.575 1.891,-0.974 0.59,-0.401 1.128,-0.907 1.614,-1.519 0.489,-0.612 0.926,-1.331 1.312,-2.154 0.389,-0.824 0.72,-1.787 0.992,-2.888 L -0.261,1.838 C -0.161,1.363 -0.092,0.981 -0.055,0.695 -0.019,0.407 0,0.177 0,0"
             id="path3096"
             style="fill:#e1e1e1;fill-opacity:1;fill-rule:nonzero;stroke:none" /></g><g
           transform="translate(765.5713,274.377)"
           id="g3098"><path
             d="m 0,0 c 0,1.048 -0.106,1.977 -0.319,2.792 -0.213,0.812 -0.562,1.497 -1.048,2.062 -0.488,0.561 -1.114,0.991 -1.878,1.292 -0.759,0.3 -1.691,0.45 -2.79,0.45 -1.252,0 -2.375,-0.244 -3.375,-0.731 -0.995,-0.487 -1.892,-1.145 -2.679,-1.968 -0.787,-0.827 -1.47,-1.782 -2.043,-2.87 -0.574,-1.085 -1.049,-2.228 -1.425,-3.428 -0.377,-1.2 -0.65,-2.417 -0.823,-3.655 -0.177,-1.236 -0.261,-2.417 -0.261,-3.543 0,-1.049 0.103,-1.986 0.316,-2.811 0.212,-0.823 0.561,-1.517 1.047,-2.078 0.493,-0.564 1.115,-0.994 1.877,-1.296 0.762,-0.299 1.695,-0.447 2.795,-0.447 1.244,0 2.372,0.24 3.371,0.73 1,0.487 1.895,1.148 2.682,1.984 0.787,0.839 1.467,1.802 2.041,2.887 0.574,1.088 1.051,2.237 1.425,3.45 0.373,1.213 0.647,2.43 0.825,3.656 C -0.089,-2.301 0,-1.125 0,0 m 9.747,0.636 c 0,-1.8 -0.171,-3.649 -0.507,-5.55 -0.338,-1.899 -0.87,-3.753 -1.593,-5.565 -0.724,-1.813 -1.655,-3.511 -2.793,-5.098 -1.137,-1.585 -2.501,-2.987 -4.085,-4.198 -1.589,-1.211 -3.406,-2.166 -5.456,-2.868 -2.046,-0.7 -4.361,-1.048 -6.933,-1.048 -2.522,0 -4.705,0.293 -6.543,0.878 -1.834,0.588 -3.366,1.452 -4.59,2.587 -1.225,1.138 -2.138,2.538 -2.739,4.2 -0.596,1.661 -0.9,3.567 -0.9,5.715 0,1.8 0.17,3.651 0.508,5.548 0.337,1.901 0.869,3.75 1.594,5.548 0.723,1.8 1.656,3.504 2.792,5.115 1.139,1.614 2.499,3.021 4.086,4.219 1.585,1.199 3.404,2.15 5.454,2.849 2.05,0.7 4.358,1.049 6.934,1.049 2.524,0 4.705,-0.293 6.541,-0.879 C 3.356,12.55 4.887,11.687 6.11,10.55 7.335,9.413 8.249,8.015 8.845,6.352 9.445,4.689 9.747,2.785 9.747,0.636"
             id="path3100"
             style="fill:#e1e1e1;fill-opacity:1;fill-rule:nonzero;stroke:none" /></g><g
           transform="translate(804.3672,278.5371)"
           id="g3102"><path
             d="m 0,0 c 0,0.425 -0.085,0.837 -0.261,1.233 -0.177,0.402 -0.453,0.759 -0.827,1.072 -0.374,0.311 -0.85,0.555 -1.424,0.731 -0.575,0.174 -1.276,0.262 -2.099,0.262 -1.024,0 -2.005,-0.183 -2.943,-0.545 -0.936,-0.362 -1.798,-0.899 -2.585,-1.611 -0.787,-0.711 -1.495,-1.612 -2.117,-2.698 -0.625,-1.087 -1.15,-2.343 -1.577,-3.768 l 6.337,0 c 1.202,0 2.272,0.118 3.223,0.356 0.95,0.237 1.737,0.587 2.362,1.05 0.624,0.461 1.099,1.023 1.425,1.687 C -0.161,-1.569 0,-0.826 0,0 m -1.947,-14.883 c 0,0.501 -0.098,0.987 -0.283,1.464 -0.188,0.474 -0.532,0.88 -1.033,1.216 -0.498,0.339 -1.19,0.614 -2.076,0.824 -0.891,0.215 -2.033,0.319 -3.432,0.319 l -6.225,0 c -0.149,-0.673 -0.26,-1.355 -0.336,-2.041 -0.076,-0.689 -0.11,-1.419 -0.11,-2.196 0,-2.047 0.446,-3.548 1.348,-4.496 0.902,-0.947 2.364,-1.425 4.386,-1.425 1.325,0 2.479,0.174 3.468,0.526 0.988,0.35 1.8,0.816 2.437,1.404 0.638,0.59 1.105,1.269 1.404,2.044 0.299,0.774 0.452,1.561 0.452,2.361 m 9.407,0.3 c 0,-1.05 -0.137,-2.11 -0.414,-3.187 -0.274,-1.075 -0.711,-2.106 -1.31,-3.091 -0.6,-0.987 -1.375,-1.908 -2.322,-2.755 -0.951,-0.851 -2.097,-1.588 -3.433,-2.212 -1.338,-0.625 -2.884,-1.118 -4.647,-1.479 -1.762,-0.364 -3.754,-0.545 -5.977,-0.545 -2.351,0 -4.411,0.27 -6.187,0.806 -1.774,0.537 -3.244,1.323 -4.404,2.361 -1.164,1.038 -2.041,2.326 -2.643,3.862 -0.601,1.535 -0.899,3.303 -0.899,5.303 0,1.225 0.113,2.7 0.335,4.422 0.224,1.726 0.628,3.532 1.203,5.419 0.574,1.884 1.359,3.758 2.359,5.621 0.999,1.863 2.275,3.525 3.823,4.986 1.549,1.462 3.407,2.648 5.566,3.562 2.165,0.912 4.708,1.366 7.629,1.366 2.275,0 4.225,-0.238 5.847,-0.712 C 3.613,8.67 4.957,8.032 6.02,7.234 7.08,6.433 7.859,5.509 8.358,4.459 8.859,3.411 9.108,2.312 9.108,1.16 9.108,0.011 8.901,-1.044 8.492,-2.005 8.079,-2.968 7.514,-3.818 6.804,-4.556 6.093,-5.293 5.248,-5.924 4.272,-6.448 3.301,-6.973 2.251,-7.361 1.127,-7.61 c 1.147,-0.226 2.129,-0.57 2.939,-1.032 0.812,-0.462 1.471,-1 1.969,-1.611 0.501,-0.614 0.861,-1.294 1.09,-2.045 0.221,-0.747 0.335,-1.511 0.335,-2.285"
             id="path3104"
             style="fill:#e1e1e1;fill-opacity:1;fill-rule:nonzero;stroke:none" /></g></g></g></g></svg>
