<?xml version="1.0" encoding="UTF-8"?>
<!DOCTYPE svg PUBLIC "-//W3C//DTD SVG 1.1//EN" "http://www.w3.org/Graphics/SVG/1.1/DTD/svg11.dtd">
<!-- Creator: CorelDRAW X6 -->
<svg xmlns="http://www.w3.org/2000/svg" xml:space="preserve" width="297mm" height="210mm" version="1.1" style="shape-rendering:geometricPrecision; text-rendering:geometricPrecision; image-rendering:optimizeQuality; fill-rule:evenodd; clip-rule:evenodd"
viewBox="0 0 29700 21000"
 xmlns:xlink="http://www.w3.org/1999/xlink">
 <defs>
  <style type="text/css">
   <![CDATA[
    .fil0 {fill:#2B2A29}
    .fil1 {fill:#2B2A29;fill-rule:nonzero}
   ]]>
  </style>
 </defs>
 <g id="__x0023_Layer_x0020_1">
  <metadata id="CorelCorpID_0Corel-Layer"/>
  <g id="_645337072">
   <path class="fil0" d="M1628 11506c211,-114 431,-164 625,-162 175,-2 331,38 442,112l-11 -793 0 -563 0 -579 1588 -329 0 361 -1418 301 0 211 1418 -293 0 361 -1418 301 0 195 1418 -294 0 361 -1418 301 0 316 3 779c9,98 36,286 191,228 32,-121 214,-187 311,-76 56,63 50,212 -46,297 -194,173 -523,85 -574,-186 -4,-21 -7,-44 -10,-67 -104,169 -262,326 -469,437 -204,109 -413,160 -600,158 -269,3 -495,-103 -604,-308 -182,-343 60,-789 572,-1067zm239 1055l0 0c133,-2 282,-47 424,-135 251,-155 525,-480 362,-772 -10,-14 -19,-29 -31,-42 -159,-162 -471,-180 -778,15 -335,212 -480,526 -341,750 74,119 206,181 362,184z"/>
  </g>
  <g id="_645072832">
   <path class="fil1" d="M6861 11966c4,32 6,57 6,75 0,19 -7,32 -19,42 -12,9 -32,15 -59,17 -27,2 -65,3 -112,3 -34,0 -61,-1 -82,-2 -21,-1 -37,-4 -49,-7 -11,-4 -19,-9 -24,-16 -4,-7 -7,-17 -8,-29l-46 -344 -643 0 -177 336c-6,12 -13,23 -21,31 -8,8 -19,15 -34,19 -15,4 -35,8 -60,9 -25,2 -57,3 -94,3 -41,0 -72,-1 -95,-4 -22,-3 -38,-9 -45,-19 -7,-10 -8,-24 -3,-43 6,-19 17,-43 34,-74l830 -1518c9,-15 18,-27 26,-36 9,-9 21,-16 38,-21 16,-5 38,-8 66,-9 28,-1 64,-2 109,-2 52,0 93,1 124,2 30,1 54,4 71,9 17,5 28,12 33,22 5,10 9,23 11,40l224 1517zm-520 -1255l0 0 -1 0 -382 727 481 0 -98 -727z"/>
   <path class="fil1" d="M8157 12049c-2,9 -6,17 -13,24 -7,7 -17,13 -31,17 -14,4 -32,8 -54,10 -22,2 -49,3 -81,3 -33,0 -59,-1 -79,-3 -20,-2 -36,-5 -48,-10 -12,-4 -20,-10 -23,-17 -3,-7 -4,-15 -3,-24l190 -952 -25 0c-62,0 -115,8 -160,24 -45,16 -84,41 -116,75 -32,34 -59,77 -81,130 -22,53 -41,116 -57,188 -20,91 -42,169 -65,235 -23,66 -47,122 -73,167 -26,45 -54,81 -85,108 -31,27 -65,48 -101,62 -37,14 -77,23 -121,28 -44,4 -92,7 -144,7 -24,0 -40,-5 -48,-14 -8,-10 -13,-25 -13,-45 0,-5 1,-15 2,-29 1,-14 3,-30 6,-48 3,-18 6,-36 11,-56 5,-20 11,-38 19,-54 7,-16 16,-29 25,-40 9,-10 20,-15 32,-15 32,0 59,-3 82,-9 23,-6 43,-22 61,-46 18,-25 35,-61 52,-108 16,-47 34,-112 52,-195 22,-98 52,-186 89,-265 37,-79 87,-146 149,-202 62,-56 140,-98 233,-128 93,-30 207,-45 342,-45 44,0 86,1 126,2 40,1 75,3 105,6 32,3 53,12 64,28 11,16 13,43 6,79l-223 1113z"/>
   <path class="fil1" d="M9719 11130c0,63 -14,120 -43,171 -29,51 -73,94 -134,131 -60,37 -137,65 -230,84 -93,19 -204,29 -333,29l-122 0c-3,20 -6,40 -8,60 -2,20 -3,38 -3,55 0,71 19,125 55,161 37,36 97,54 179,54 58,0 110,-4 157,-13 46,-8 87,-18 122,-28 35,-10 64,-19 87,-28 23,-8 40,-13 50,-13 11,0 18,3 23,9 4,6 7,16 7,29 0,15 -1,32 -4,51 -3,19 -6,39 -11,58 -5,19 -11,37 -19,54 -8,17 -16,29 -26,38 -11,11 -30,21 -58,32 -28,11 -62,20 -102,29 -40,9 -84,16 -134,22 -49,6 -100,9 -151,9 -85,0 -158,-9 -222,-26 -63,-18 -116,-45 -158,-81 -42,-36 -74,-82 -95,-138 -21,-56 -32,-122 -32,-199 0,-59 6,-122 17,-190 11,-67 29,-134 54,-200 25,-66 56,-129 95,-188 39,-60 86,-113 141,-158 55,-45 119,-82 191,-109 72,-27 155,-41 247,-41 80,0 149,9 207,28 58,19 105,44 142,75 37,31 65,67 83,107 18,40 27,81 27,124zm-327 25l0 0c0,-35 -14,-64 -42,-88 -28,-23 -68,-35 -121,-35 -44,0 -84,8 -118,24 -35,16 -65,37 -92,64 -26,27 -49,59 -68,95 -19,37 -34,76 -46,117l111 0c71,0 130,-5 177,-14 48,-9 86,-22 115,-38 29,-16 50,-35 64,-56 13,-22 20,-45 20,-69z"/>
   <path class="fil1" d="M10922 12048c0,10 -2,18 -7,25 -5,7 -14,13 -27,18 -13,5 -31,8 -53,10 -22,2 -50,3 -85,3 -37,0 -67,-1 -89,-3 -22,-2 -40,-4 -52,-8 -12,-4 -21,-9 -25,-15 -4,-7 -7,-14 -9,-23l-54 -286c-8,-38 -17,-69 -28,-95 -11,-25 -24,-45 -40,-60 -16,-15 -35,-25 -58,-30 -23,-6 -49,-9 -80,-9l-67 0 -97 481c-1,6 -5,12 -12,18 -7,6 -18,11 -32,15 -15,4 -33,8 -54,10 -22,2 -47,3 -77,3 -31,0 -56,-1 -77,-3 -20,-2 -37,-5 -49,-10 -12,-4 -21,-10 -25,-15 -4,-6 -6,-12 -5,-18l238 -1194c1,-6 5,-12 12,-18 7,-6 18,-11 32,-15 14,-4 32,-7 54,-9 22,-2 48,-3 79,-3 30,0 55,1 76,3 21,2 37,5 50,9 12,4 21,9 26,15 5,6 6,12 5,18l-91 459 67 0c24,0 47,-3 70,-9 23,-6 45,-17 67,-33 22,-16 43,-37 65,-63 22,-26 43,-59 65,-100l144 -249c5,-9 12,-17 20,-23 8,-7 20,-12 35,-16 15,-4 35,-7 59,-9 24,-2 54,-3 91,-3 33,0 59,1 78,3 19,2 35,4 46,7 11,3 18,7 22,11 4,4 5,9 5,14 0,9 -3,20 -9,34 -6,14 -16,32 -30,55l-147 234c-26,41 -51,78 -77,108 -26,31 -52,57 -78,79 -26,22 -52,39 -77,53 -25,14 -49,24 -72,31l0 3c24,9 46,20 67,34 21,14 40,32 57,54 17,22 33,47 46,76 14,29 25,63 35,102l65 268c4,17 6,30 7,40 1,10 2,18 2,25z"/>
   <path class="fil1" d="M12204 10949c0,20 -2,43 -7,69 -5,26 -11,50 -19,73 -8,23 -18,42 -30,58 -12,15 -25,23 -39,23 -13,0 -26,-5 -38,-16 -12,-11 -28,-22 -46,-36 -18,-13 -41,-25 -68,-36 -27,-11 -63,-17 -106,-17 -46,0 -87,10 -123,30 -36,20 -68,46 -95,79 -27,32 -49,69 -67,110 -18,41 -32,82 -44,124 -12,42 -20,82 -24,120 -5,38 -7,72 -7,100 0,71 16,126 47,163 31,37 80,55 147,55 49,0 92,-6 127,-19 35,-13 65,-27 91,-42 25,-16 47,-29 65,-42 18,-12 35,-19 50,-19 9,0 15,4 19,12 4,8 6,19 6,34 0,15 -2,34 -5,56 -4,23 -8,45 -14,68 -6,23 -12,44 -20,64 -7,20 -17,35 -29,47 -12,11 -31,24 -56,39 -26,15 -55,28 -89,39 -34,11 -70,21 -109,28 -39,7 -80,11 -122,11 -151,0 -264,-38 -339,-114 -75,-76 -112,-189 -112,-338 0,-54 5,-113 15,-177 10,-64 27,-129 50,-194 23,-65 53,-128 89,-188 37,-61 81,-115 134,-161 53,-47 114,-84 184,-112 70,-28 150,-42 241,-42 35,0 70,3 103,8 33,5 64,13 93,22 28,9 53,20 75,32 22,12 38,24 48,34 11,10 17,19 20,27 3,8 5,18 5,29z"/>
   <path class="fil1" d="M13332 12052c-4,19 -18,32 -42,40 -24,8 -63,12 -117,12 -27,0 -50,-1 -67,-3 -17,-2 -31,-5 -42,-9 -11,-4 -17,-9 -21,-16 -3,-7 -4,-15 -2,-24l37 -189c-13,28 -34,58 -64,89 -29,31 -63,60 -103,85 -40,26 -83,47 -132,63 -48,17 -98,25 -149,25 -71,0 -129,-12 -176,-37 -47,-25 -84,-58 -112,-100 -28,-42 -48,-90 -60,-143 -12,-54 -18,-110 -18,-169 0,-56 5,-116 16,-182 11,-66 27,-131 49,-196 22,-65 50,-128 85,-188 34,-60 76,-114 124,-161 48,-47 103,-84 165,-112 62,-28 133,-42 211,-42 73,0 138,15 194,46 56,30 106,75 148,133l21 -105c3,-19 17,-32 42,-40 24,-8 63,-12 117,-12 26,0 48,1 66,3 18,2 31,5 42,9 10,4 17,9 20,16 4,7 4,14 3,23l-237 1182zm-164 -828l0 0c-31,-48 -65,-85 -102,-109 -37,-24 -81,-36 -130,-36 -37,0 -71,9 -102,26 -31,18 -58,41 -82,71 -24,30 -45,64 -63,103 -18,39 -33,79 -45,121 -12,42 -21,84 -26,127 -6,43 -9,82 -9,118 0,26 2,52 6,75 4,24 11,45 22,63 11,19 25,33 42,44 18,11 40,17 67,17 39,0 79,-12 119,-35 40,-23 78,-55 114,-95 35,-40 66,-87 93,-140 27,-53 47,-110 59,-171l37 -178z"/>
   <path class="fil1" d="M14797 12051c-2,9 -6,17 -13,23 -7,7 -18,12 -31,17 -14,4 -31,8 -53,10 -22,2 -49,3 -81,3 -32,0 -58,-1 -79,-3 -21,-2 -37,-5 -49,-10 -12,-4 -19,-10 -23,-17 -4,-7 -5,-14 -2,-23l93 -464 -467 0 -92 464c-2,9 -6,17 -13,23 -7,7 -17,12 -30,17 -14,4 -31,8 -54,10 -22,2 -49,3 -81,3 -33,0 -59,-1 -80,-3 -21,-2 -37,-5 -49,-10 -12,-4 -19,-10 -23,-17 -4,-7 -5,-14 -3,-23l235 -1180c2,-9 6,-16 13,-23 7,-7 17,-12 30,-17 14,-4 31,-8 53,-10 22,-2 49,-3 81,-3 33,0 59,1 80,3 21,2 37,5 49,10 12,4 20,10 23,17 4,7 4,14 3,23l-89 442 467 0 89 -442c2,-9 6,-16 12,-23 6,-7 16,-12 30,-17 14,-4 31,-8 54,-10 22,-2 49,-3 81,-3 32,0 59,1 80,3 21,2 37,5 49,10 12,4 20,10 24,17 4,7 5,14 3,23l-235 1180z"/>
   <path class="fil1" d="M16463 10942c0,39 -2,85 -5,139 -4,54 -11,112 -21,175 -10,63 -24,128 -42,195 -18,67 -41,133 -70,198 -29,64 -63,125 -104,183 -41,58 -89,108 -145,152 -56,44 -119,78 -192,104 -72,26 -154,38 -246,38 -84,0 -156,-10 -217,-31 -61,-21 -111,-51 -150,-91 -39,-40 -68,-89 -87,-147 -18,-58 -28,-124 -28,-198 0,-55 5,-114 16,-177 11,-63 27,-126 50,-189 23,-63 51,-124 85,-182 34,-58 76,-110 124,-155 48,-45 104,-81 166,-107 62,-26 133,-40 211,-40 40,0 77,4 113,13 36,8 68,21 97,36 29,16 53,35 75,58 21,23 38,49 50,79 1,-8 1,-16 1,-24 0,-8 0,-19 0,-32 0,-56 -7,-108 -20,-158 -14,-50 -37,-94 -69,-132 -33,-38 -76,-69 -131,-91 -55,-22 -123,-33 -205,-33 -29,0 -48,-4 -58,-12 -10,-8 -15,-21 -15,-40 0,-5 0,-13 1,-24 1,-11 3,-23 5,-37 3,-14 6,-29 9,-44 3,-15 7,-29 11,-44 4,-14 8,-27 13,-38 5,-11 10,-19 14,-23 5,-5 13,-10 23,-13 10,-3 26,-5 48,-5 108,0 204,13 290,38 86,26 159,66 218,122 60,56 105,127 137,215 32,88 48,194 48,318zm-414 431l0 0c0,-91 -18,-162 -52,-212 -35,-51 -86,-76 -154,-76 -43,0 -82,9 -116,28 -34,19 -64,44 -89,74 -25,30 -47,65 -64,104 -18,39 -32,78 -42,118 -11,40 -18,78 -23,115 -5,37 -7,69 -7,95 0,72 14,129 42,169 28,40 73,60 136,60 41,0 79,-8 114,-23 34,-15 65,-36 93,-61 28,-26 52,-55 72,-87 20,-33 37,-67 51,-102 14,-35 24,-70 30,-105 7,-35 10,-67 10,-96z"/>
   <path class="fil1" d="M17881 11245c0,57 -5,119 -16,185 -11,66 -27,132 -49,197 -22,65 -50,128 -85,188 -35,60 -76,113 -124,159 -48,46 -103,82 -165,110 -62,27 -132,41 -210,41 -35,0 -68,-4 -99,-10 -31,-7 -59,-17 -85,-30 -26,-13 -50,-28 -71,-45 -21,-17 -40,-36 -56,-55l-104 533c-2,9 -6,17 -13,24 -7,7 -17,13 -30,18 -14,5 -31,9 -54,11 -22,3 -49,4 -82,4 -33,0 -59,-1 -79,-4 -20,-3 -36,-6 -48,-11 -12,-5 -20,-11 -23,-18 -4,-7 -5,-15 -3,-24l331 -1649c4,-19 17,-32 41,-40 24,-8 63,-12 118,-12 27,0 50,1 67,3 17,2 31,5 41,9 10,4 17,9 20,16 3,7 4,14 3,23l-37 192c13,-29 34,-59 63,-91 29,-31 63,-60 103,-86 40,-26 84,-47 132,-64 48,-17 98,-25 149,-25 68,0 125,12 171,35 46,23 84,55 112,96 29,41 49,88 62,143 13,55 19,113 19,176zm-342 29l0 0c0,-30 -2,-57 -7,-82 -5,-25 -13,-46 -24,-63 -11,-17 -25,-30 -42,-39 -17,-9 -38,-13 -63,-13 -40,0 -80,12 -120,35 -40,23 -78,55 -113,95 -35,40 -67,87 -94,140 -27,53 -47,110 -58,171l-37 180c31,48 65,85 102,109 37,24 81,36 130,36 36,0 69,-9 100,-26 30,-18 58,-41 82,-71 24,-30 46,-64 64,-102 18,-39 33,-79 45,-122 12,-42 21,-85 26,-128 6,-43 9,-83 9,-121z"/>
   <path class="fil1" d="M19965 10435c0,5 -1,15 -2,28 -2,13 -3,28 -6,44 -3,16 -6,33 -11,51 -4,18 -10,34 -16,48 -7,15 -15,27 -24,36 -9,10 -19,15 -30,15l-611 0 -85 418 518 0c12,0 21,4 26,13 5,9 8,21 8,37 0,6 -1,16 -2,28 -1,13 -3,27 -6,44 -2,16 -6,33 -10,50 -4,17 -10,32 -17,46 -7,14 -14,26 -23,34 -9,9 -18,13 -29,13l-517 0 -98 483 619 0c11,0 18,5 24,14 5,9 8,23 8,40 0,6 0,16 -1,29 -1,13 -3,28 -6,44 -3,16 -7,33 -11,50 -4,17 -10,32 -17,47 -7,15 -14,26 -23,35 -9,9 -19,13 -31,13l-859 0c-14,0 -27,-2 -38,-6 -11,-4 -21,-11 -28,-20 -7,-9 -13,-21 -15,-34 -3,-14 -2,-30 1,-50l299 -1492c8,-39 24,-67 47,-84 24,-17 50,-26 79,-26l852 0c23,0 34,17 34,50z"/>
   <path class="fil1" d="M21244 11245c0,57 -5,119 -16,185 -11,66 -27,132 -49,197 -22,65 -50,128 -85,188 -34,60 -76,113 -124,159 -48,46 -103,82 -165,110 -62,27 -132,41 -210,41 -35,0 -68,-4 -99,-10 -31,-7 -59,-17 -85,-30 -26,-13 -50,-28 -71,-45 -21,-17 -40,-36 -56,-55l-105 533c-2,9 -6,17 -13,24 -7,7 -17,13 -30,18 -14,5 -31,9 -54,11 -22,3 -49,4 -82,4 -33,0 -59,-1 -79,-4 -20,-3 -36,-6 -48,-11 -12,-5 -20,-11 -23,-18 -4,-7 -4,-15 -3,-24l331 -1649c4,-19 17,-32 41,-40 24,-8 63,-12 118,-12 27,0 50,1 67,3 17,2 31,5 41,9 10,4 17,9 20,16 4,7 4,14 3,23l-37 192c13,-29 34,-59 63,-91 29,-31 63,-60 103,-86 40,-26 84,-47 132,-64 48,-17 98,-25 149,-25 68,0 125,12 171,35 46,23 84,55 112,96 29,41 49,88 62,143 13,55 19,113 19,176zm-342 29l0 0c0,-30 -2,-57 -7,-82 -5,-25 -13,-46 -24,-63 -11,-17 -25,-30 -42,-39 -17,-9 -38,-13 -63,-13 -40,0 -79,12 -120,35 -40,23 -78,55 -113,95 -35,40 -67,87 -94,140 -27,53 -47,110 -58,171l-37 180c31,48 65,85 103,109 38,24 81,36 130,36 36,0 70,-9 100,-26 31,-18 58,-41 82,-71 24,-30 45,-64 63,-102 18,-39 33,-79 45,-122 12,-42 21,-85 27,-128 6,-43 9,-83 9,-121z"/>
   <path class="fil1" d="M23035 12044c-2,22 -15,38 -39,46 -24,9 -64,13 -121,13 -35,0 -62,0 -82,-1 -20,-1 -36,-3 -46,-7 -11,-3 -17,-9 -19,-15 -2,-7 -3,-15 -2,-26l56 -633c2,-19 5,-42 8,-71 4,-29 8,-60 12,-93 4,-33 9,-67 15,-100 5,-34 11,-66 16,-95l-3 0c-11,24 -24,50 -38,78 -14,28 -28,57 -42,86 -14,29 -28,58 -42,87 -14,29 -27,55 -38,77l-337 653c-5,11 -12,20 -20,28 -8,8 -20,14 -34,19 -14,5 -31,8 -52,11 -21,2 -46,3 -75,3 -28,0 -51,-1 -69,-3 -18,-2 -33,-6 -45,-11 -12,-5 -20,-11 -25,-19 -5,-8 -8,-18 -10,-29l-71 -652c-4,-26 -7,-53 -9,-83 -3,-30 -5,-59 -7,-88 -2,-29 -4,-57 -5,-84 -1,-27 -2,-51 -2,-73l-3 0c-6,26 -13,55 -22,87 -8,31 -17,63 -25,95 -8,32 -17,64 -26,95 -9,31 -17,59 -24,83l-193 626c-4,11 -8,21 -15,28 -6,8 -16,13 -29,18 -13,4 -30,7 -52,9 -21,1 -49,2 -83,2 -32,0 -57,-1 -75,-3 -18,-2 -32,-5 -41,-10 -9,-5 -15,-11 -16,-19 -1,-8 0,-17 3,-28l337 -1104c12,-38 30,-66 54,-85 24,-19 57,-28 99,-28l155 0c35,0 65,3 89,8 24,5 43,15 59,28 15,13 27,31 35,54 8,23 13,52 16,86l52 405c4,26 6,54 9,83 2,29 4,57 6,86 2,29 3,57 4,83 1,27 2,52 3,76l3 0c11,-24 22,-50 34,-78 12,-28 25,-57 38,-86 13,-29 27,-58 40,-86 14,-28 28,-55 42,-79l210 -403c15,-32 30,-59 46,-81 16,-23 33,-41 52,-54 19,-14 42,-24 68,-30 26,-7 57,-10 93,-10l179 0c41,0 71,10 89,28 18,19 24,47 20,85l-102 1104z"/>
   <path class="fil1" d="M24399 12052c-3,19 -17,32 -42,40 -24,8 -63,12 -117,12 -27,0 -50,-1 -67,-3 -17,-2 -31,-5 -42,-9 -11,-4 -17,-9 -20,-16 -3,-7 -4,-15 -2,-24l37 -189c-13,28 -34,58 -63,89 -29,31 -63,60 -103,85 -40,26 -84,47 -132,63 -48,17 -98,25 -149,25 -71,0 -129,-12 -176,-37 -47,-25 -84,-58 -112,-100 -28,-42 -48,-90 -60,-143 -12,-54 -18,-110 -18,-169 0,-56 5,-116 16,-182 10,-66 27,-131 49,-196 22,-65 50,-128 85,-188 34,-60 76,-114 124,-161 48,-47 103,-84 165,-112 62,-28 132,-42 211,-42 73,0 138,15 195,46 56,30 106,75 148,133l21 -105c4,-19 18,-32 42,-40 24,-8 63,-12 117,-12 26,0 49,1 66,3 18,2 31,5 42,9 10,4 17,9 21,16 4,7 5,14 3,23l-237 1182zm-164 -828l0 0c-31,-48 -65,-85 -103,-109 -37,-24 -81,-36 -130,-36 -37,0 -71,9 -102,26 -31,18 -58,41 -82,71 -24,30 -45,64 -63,103 -18,39 -33,79 -45,121 -12,42 -21,84 -26,127 -6,43 -9,82 -9,118 0,26 2,52 6,75 4,24 11,45 22,63 11,19 25,33 42,44 18,11 40,17 67,17 39,0 79,-12 119,-35 41,-23 79,-55 114,-95 35,-40 66,-87 93,-140 27,-53 47,-110 59,-171l37 -178z"/>
   <path class="fil1" d="M25835 12048c0,10 -2,18 -7,25 -5,7 -14,13 -27,18 -13,5 -31,8 -53,10 -22,2 -50,3 -85,3 -37,0 -67,-1 -89,-3 -23,-2 -40,-4 -52,-8 -12,-4 -21,-9 -25,-15 -4,-7 -8,-14 -9,-23l-54 -286c-8,-38 -17,-69 -28,-95 -11,-25 -24,-45 -40,-60 -16,-15 -35,-25 -58,-30 -22,-6 -49,-9 -80,-9l-67 0 -97 481c-1,6 -5,12 -12,18 -7,6 -18,11 -32,15 -15,4 -33,8 -54,10 -22,2 -47,3 -77,3 -31,0 -56,-1 -77,-3 -20,-2 -37,-5 -49,-10 -12,-4 -21,-10 -25,-15 -4,-6 -6,-12 -5,-18l238 -1194c1,-6 5,-12 12,-18 7,-6 17,-11 32,-15 14,-4 32,-7 54,-9 22,-2 48,-3 79,-3 30,0 55,1 76,3 21,2 37,5 50,9 12,4 21,9 26,15 5,6 6,12 5,18l-91 459 67 0c24,0 47,-3 70,-9 23,-6 45,-17 67,-33 22,-16 43,-37 65,-63 22,-26 43,-59 65,-100l144 -249c5,-9 12,-17 20,-23 8,-7 20,-12 35,-16 15,-4 35,-7 59,-9 24,-2 54,-3 91,-3 33,0 59,1 78,3 20,2 35,4 46,7 11,3 18,7 22,11 4,4 5,9 5,14 0,9 -3,20 -9,34 -6,14 -16,32 -30,55l-147 234c-26,41 -51,78 -77,108 -26,31 -52,57 -78,79 -26,22 -52,39 -77,53 -25,14 -49,24 -72,31l0 3c24,9 46,20 67,34 21,14 40,32 57,54 17,22 33,47 46,76 14,29 25,63 35,102l65 268c4,17 6,30 7,40 1,10 2,18 2,25z"/>
   <path class="fil1" d="M27332 11268c0,64 -6,129 -18,196 -12,67 -31,132 -56,196 -26,64 -58,124 -99,180 -40,56 -88,105 -144,148 -56,43 -120,76 -192,101 -72,25 -154,37 -245,37 -89,0 -166,-10 -231,-31 -65,-21 -119,-51 -162,-91 -43,-40 -75,-90 -97,-148 -21,-59 -32,-126 -32,-202 0,-64 6,-129 18,-196 12,-67 31,-132 56,-196 25,-63 58,-124 98,-180 40,-57 88,-107 144,-149 56,-42 120,-76 192,-100 72,-25 154,-37 245,-37 89,0 166,10 231,31 65,21 119,51 162,91 43,40 75,89 96,148 21,59 32,126 32,202zm-344 22l0 0c0,-37 -4,-70 -11,-98 -8,-29 -20,-53 -37,-73 -17,-20 -39,-35 -66,-46 -27,-11 -60,-16 -98,-16 -44,0 -84,9 -119,26 -35,17 -67,40 -94,69 -28,29 -52,63 -72,101 -20,38 -37,79 -50,121 -13,42 -23,85 -29,129 -6,44 -9,85 -9,125 0,37 4,70 11,99 7,29 20,54 37,73 17,20 39,35 66,46 27,11 60,16 99,16 44,0 84,-8 119,-26 35,-17 67,-41 95,-70 28,-30 52,-64 72,-102 20,-38 37,-79 50,-122 13,-43 23,-86 29,-129 6,-43 9,-85 9,-124z"/>
   <path class="fil1" d="M28620 11658c0,37 -5,74 -15,112 -10,38 -25,74 -46,109 -21,35 -49,67 -82,97 -34,30 -74,56 -121,78 -47,22 -102,39 -164,52 -62,13 -132,19 -211,19 -83,0 -156,-10 -218,-28 -63,-19 -114,-47 -155,-83 -41,-37 -72,-82 -93,-136 -21,-54 -32,-117 -32,-187 0,-43 4,-95 12,-156 8,-61 22,-125 42,-191 20,-66 48,-133 83,-198 35,-66 80,-124 135,-176 55,-52 120,-93 196,-126 76,-32 166,-48 269,-48 80,0 149,8 206,25 57,17 105,39 142,67 37,28 65,61 83,98 18,37 26,76 26,116 0,41 -7,78 -22,112 -15,34 -35,64 -60,90 -25,26 -55,48 -89,67 -34,19 -71,32 -111,41 40,8 75,20 104,36 29,16 52,35 69,57 18,22 30,46 38,72 8,26 12,53 12,81zm-332 11l0 0c0,-18 -3,-35 -10,-52 -7,-17 -19,-31 -36,-43 -18,-12 -42,-22 -73,-29 -31,-8 -72,-11 -121,-11l-220 0c-5,24 -9,48 -12,72 -3,24 -4,50 -4,77 0,72 16,125 48,159 32,33 83,50 155,50 47,0 87,-6 122,-19 35,-12 63,-29 86,-50 22,-21 39,-45 50,-72 11,-27 16,-55 16,-83zm69 -525l0 0c0,-15 -3,-30 -9,-44 -6,-14 -16,-27 -29,-38 -13,-11 -30,-20 -50,-26 -20,-6 -45,-9 -74,-9 -36,0 -71,6 -104,19 -33,13 -63,32 -91,57 -28,25 -53,57 -75,95 -22,38 -41,83 -56,133l224 0c42,0 80,-4 114,-13 34,-8 61,-21 83,-37 22,-16 39,-36 50,-60 11,-23 17,-50 17,-79z"/>
  </g>
 </g>
</svg>
