<?xml version="1.0" encoding="UTF-8" standalone="no"?>
<!-- Creator: CorelDRAW X6 -->

<svg
   xmlns:dc="http://purl.org/dc/elements/1.1/"
   xmlns:cc="http://creativecommons.org/ns#"
   xmlns:rdf="http://www.w3.org/1999/02/22-rdf-syntax-ns#"
   xmlns:svg="http://www.w3.org/2000/svg"
   xmlns="http://www.w3.org/2000/svg"
   xmlns:sodipodi="http://sodipodi.sourceforge.net/DTD/sodipodi-0.dtd"
   xmlns:inkscape="http://www.inkscape.org/namespaces/inkscape"
   xml:space="preserve"
   width="597.07214"
   height="75.226097"
   version="1.1"
   style="fill-rule:evenodd"
   viewBox="0 0 16850.703 2123.0477"
   id="svg3861"
   inkscape:version="0.48.3.1 r9886"
   sodipodi:docname="ermakov-eng.svg"><metadata
   id="metadata3918"><rdf:RDF><cc:Work
       rdf:about=""><dc:format>image/svg+xml</dc:format><dc:type
         rdf:resource="http://purl.org/dc/dcmitype/StillImage" /></cc:Work></rdf:RDF></metadata><sodipodi:namedview
   pagecolor="#ffffff"
   bordercolor="#666666"
   borderopacity="1"
   objecttolerance="10"
   gridtolerance="10"
   guidetolerance="10"
   inkscape:pageopacity="0"
   inkscape:pageshadow="2"
   inkscape:window-width="1086"
   inkscape:window-height="666"
   id="namedview3916"
   showgrid="false"
   inkscape:zoom="0.44851479"
   inkscape:cx="-5.1971788"
   inkscape:cy="-64.997083"
   inkscape:window-x="267"
   inkscape:window-y="70"
   inkscape:window-maximized="0"
   inkscape:current-layer="svg3861"
   fit-margin-top="0"
   fit-margin-left="0"
   fit-margin-right="0"
   fit-margin-bottom="0" />
 <defs
   id="defs3863">
  <style
   type="text/css"
   id="style3865">
   
    .fil0 {fill:#676767}
    .fil1 {fill:#676767;fill-rule:nonzero}
   
  </style>
 </defs>
 
<g
   id="Слой_x0020_1"
   transform="translate(-1715.2966,-15428)">
  <metadata
   id="CorelCorpID_0Corel-Layer" />
  <g
   id="_701155008">
   <g
   id="g3870">
    <path
   class="fil0"
   d="m 2080,16760 c 121,-66 248,-95 359,-94 101,-1 191,22 254,64 l -7,-456 0,-324 0,-333 914,-189 0,207 -816,173 0,122 816,-169 0,208 -816,173 0,112 816,-169 0,208 -816,173 0,182 2,448 c 5,57 21,164 110,131 19,-70 123,-107 179,-44 33,36 29,122 -26,171 -112,100 -301,49 -330,-107 -2,-12 -4,-25 -6,-38 -60,97 -150,188 -270,251 -118,62 -238,92 -345,91 -155,2 -285,-59 -348,-177 -105,-197 35,-454 329,-614 z m 138,607 0,0 c 77,-1 162,-27 244,-78 144,-89 302,-276 208,-444 -6,-8 -11,-17 -18,-24 -91,-93 -271,-103 -447,8 -193,122 -276,302 -196,432 42,68 119,104 209,106 z"
   id="path3872"
   inkscape:connector-curvature="0"
   style="fill:#676767" />
   </g>
   <g
   id="g3874">
    <path
   class="fil1"
   d="m 4267,17042 327,-969 159,0 327,969 -136,0 -88,-271 -370,0 -88,271 -130,0 z m 552,-381 0,0 -150,-457 -149,457 299,0 z"
   id="path3876"
   inkscape:connector-curvature="0"
   style="fill:#676767;fill-rule:nonzero" />
    <polygon
   class="fil1"
   points="5285,17042 5163,17042 5163,16030 5285,16030 "
   id="polygon3878"
   style="fill:#676767;fill-rule:nonzero" />
    <path
   class="fil1"
   d="m 5780,17059 c -116,0 -206,-33 -270,-98 -64,-65 -96,-158 -96,-278 0,-118 31,-213 93,-283 62,-70 143,-105 243,-105 45,0 85,6 120,19 35,13 65,33 91,61 26,28 46,62 60,102 14,40 21,89 21,147 l 0,66 -504,0 c 0,85 21,149 64,194 42,45 101,67 176,67 27,0 53,-3 79,-9 26,-6 49,-14 70,-23 22,-10 41,-20 56,-29 15,-9 28,-18 38,-26 l 7,0 0,133 c -14,6 -32,13 -53,21 -21,8 -40,15 -57,20 -24,6 -45,11 -65,15 -19,4 -44,5 -73,5 z m 143,-461 0,0 c -1,-33 -5,-61 -12,-85 -7,-24 -17,-44 -30,-60 -14,-18 -33,-32 -55,-42 -22,-10 -50,-14 -83,-14 -33,0 -60,5 -83,15 -23,10 -43,24 -62,43 -18,19 -32,40 -42,63 -9,23 -16,50 -18,81 l 384,0 z"
   id="path3880"
   inkscape:connector-curvature="0"
   style="fill:#676767;fill-rule:nonzero" />
    <polygon
   class="fil1"
   points="6731,17042 6580,17042 6404,16768 6223,17042 6084,17042 6337,16682 6087,16316 6237,16316 6412,16588 6592,16316 6731,16316 6480,16674 "
   id="polygon3882"
   style="fill:#676767;fill-rule:nonzero" />
    <path
   class="fil1"
   d="m 7231,16965 c -10,7 -23,18 -40,31 -17,13 -33,24 -49,31 -22,11 -43,20 -63,26 -20,6 -48,9 -85,9 -30,0 -58,-6 -85,-17 -27,-11 -51,-27 -71,-48 -20,-20 -35,-45 -47,-74 -12,-29 -18,-60 -18,-93 0,-50 11,-93 32,-128 21,-35 55,-63 101,-84 41,-19 89,-32 144,-39 56,-7 115,-12 179,-16 l 0,-23 c 0,-29 -4,-52 -13,-69 -9,-18 -21,-31 -36,-41 -16,-10 -35,-17 -57,-20 -23,-3 -46,-5 -70,-5 -28,0 -61,4 -100,13 -38,8 -76,21 -115,37 l -7,0 0,-124 c 23,-6 55,-14 97,-21 42,-8 84,-12 125,-12 50,0 92,4 126,12 34,8 65,22 92,42 26,20 46,46 59,77 13,32 19,70 19,116 l 0,497 -122,0 0,-77 z m 0,-101 0,0 0,-202 c -29,3 -66,6 -110,11 -45,5 -80,11 -108,19 -33,10 -59,25 -81,46 -21,21 -32,49 -32,86 0,42 12,73 35,94 23,21 58,32 103,32 39,0 74,-8 105,-25 31,-17 61,-37 88,-61 z"
   id="path3884"
   inkscape:connector-curvature="0"
   style="fill:#676767;fill-rule:nonzero" />
    <path
   class="fil1"
   d="m 8096,17042 -122,0 0,-414 c 0,-33 -2,-65 -5,-93 -3,-29 -9,-52 -18,-69 -10,-18 -24,-32 -42,-41 -18,-9 -42,-13 -73,-13 -30,0 -62,8 -94,24 -32,16 -64,37 -95,63 l 0,543 -122,0 0,-727 122,0 0,81 c 36,-32 72,-57 108,-75 36,-17 73,-26 113,-26 72,0 127,24 168,71 40,47 60,115 60,205 l 0,472 z"
   id="path3886"
   inkscape:connector-curvature="0"
   style="fill:#676767;fill-rule:nonzero" />
    <path
   class="fil1"
   d="m 8827,17042 -122,0 0,-74 c -19,16 -36,29 -49,40 -14,10 -30,20 -49,29 -17,8 -35,15 -54,19 -19,5 -40,7 -65,7 -39,0 -76,-8 -110,-25 -34,-16 -62,-41 -85,-72 -24,-32 -42,-72 -55,-119 -13,-47 -19,-101 -19,-162 0,-64 8,-119 25,-166 16,-47 39,-87 68,-122 26,-32 58,-56 96,-74 37,-18 77,-27 118,-27 36,0 68,4 95,12 27,8 55,20 85,37 l 0,-315 122,0 0,1012 z m -122,-177 0,0 0,-419 c -30,-15 -58,-25 -82,-31 -24,-6 -50,-8 -78,-8 -63,0 -112,24 -148,71 -36,47 -53,115 -53,204 0,85 14,151 41,196 27,45 71,68 131,68 32,0 64,-7 97,-22 33,-15 63,-34 92,-59 z"
   id="path3888"
   inkscape:connector-curvature="0"
   style="fill:#676767;fill-rule:nonzero" />
    <path
   class="fil1"
   d="m 9389,16447 -6,0 c -9,-3 -19,-4 -29,-5 -10,-1 -23,-1 -37,-1 -33,0 -66,7 -98,21 -32,14 -63,36 -92,64 l 0,516 -122,0 0,-727 122,0 0,108 c 45,-39 84,-67 117,-83 33,-16 65,-25 97,-25 13,0 22,0 28,1 6,1 13,2 21,3 l 0,128 z"
   id="path3890"
   inkscape:connector-curvature="0"
   style="fill:#676767;fill-rule:nonzero" />
    <polygon
   class="fil1"
   points="9910,17042 9910,16074 10516,16074 10516,16188 10039,16188 10039,16454 10483,16454 10483,16568 10039,16568 10039,16928 10516,16928 10516,17042 "
   id="polygon3892"
   style="fill:#676767;fill-rule:nonzero" />
    <path
   class="fil1"
   d="m 11033,16447 -6,0 c -9,-3 -19,-4 -29,-5 -10,-1 -22,-1 -37,-1 -33,0 -66,7 -98,21 -33,14 -63,36 -92,64 l 0,516 -122,0 0,-727 122,0 0,108 c 45,-39 84,-67 117,-83 33,-16 65,-25 97,-25 13,0 22,0 28,1 6,1 13,2 21,3 l 0,128 z"
   id="path3894"
   inkscape:connector-curvature="0"
   style="fill:#676767;fill-rule:nonzero" />
    <path
   class="fil1"
   d="m 11953,17042 0,-420 c 0,-33 -1,-64 -4,-93 -3,-28 -8,-51 -16,-67 -9,-17 -21,-30 -37,-38 -16,-8 -38,-12 -65,-12 -25,0 -52,8 -81,23 -29,15 -59,38 -90,67 0,7 1,16 2,26 1,10 1,22 1,36 l 0,478 -122,0 0,-420 c 0,-33 -1,-64 -4,-93 -3,-28 -8,-51 -16,-67 -9,-17 -21,-30 -37,-38 -16,-8 -38,-12 -65,-12 -27,0 -54,8 -83,25 -29,16 -57,37 -85,63 l 0,543 -122,0 0,-727 122,0 0,81 c 32,-32 64,-57 95,-74 31,-18 66,-26 104,-26 43,0 81,10 114,29 33,19 59,52 76,96 37,-41 73,-72 108,-94 35,-21 73,-32 114,-32 31,0 60,5 85,15 26,10 48,26 67,47 20,22 35,50 45,83 11,33 16,74 16,124 l 0,478 -122,0 z"
   id="path3896"
   inkscape:connector-curvature="0"
   style="fill:#676767;fill-rule:nonzero" />
    <path
   class="fil1"
   d="m 12653,16965 c -10,7 -23,18 -40,31 -17,13 -33,24 -48,31 -22,11 -43,20 -63,26 -20,6 -49,9 -85,9 -30,0 -58,-6 -85,-17 -27,-11 -50,-27 -71,-48 -20,-20 -35,-45 -47,-74 -12,-29 -18,-60 -18,-93 0,-50 11,-93 32,-128 21,-35 55,-63 101,-84 41,-19 89,-32 144,-39 56,-7 115,-12 180,-16 l 0,-23 c 0,-29 -4,-52 -13,-69 -9,-18 -21,-31 -37,-41 -16,-10 -35,-17 -57,-20 -23,-3 -46,-5 -70,-5 -28,0 -61,4 -100,13 -38,8 -76,21 -114,37 l -7,0 0,-124 c 23,-6 55,-14 97,-21 42,-8 84,-12 125,-12 50,0 92,4 126,12 34,8 65,22 92,42 26,20 46,46 59,77 13,32 20,70 20,116 l 0,497 -122,0 0,-77 z m 0,-101 0,0 0,-202 c -29,3 -66,6 -110,11 -44,5 -80,11 -108,19 -33,10 -59,25 -81,46 -21,21 -32,49 -32,86 0,42 12,73 35,94 23,21 58,32 103,32 39,0 74,-8 105,-25 31,-17 60,-37 88,-61 z"
   id="path3898"
   inkscape:connector-curvature="0"
   style="fill:#676767;fill-rule:nonzero" />
    <polygon
   class="fil1"
   points="13548,17042 13388,17042 13116,16692 13068,16739 13068,17042 12946,17042 12946,16030 13068,16030 13068,16623 13356,16316 13508,16316 13209,16620 "
   id="polygon3900"
   style="fill:#676767;fill-rule:nonzero" />
    <path
   class="fil1"
   d="m 14196,16679 c 0,122 -30,217 -89,283 -59,67 -138,100 -235,100 -101,0 -181,-34 -239,-103 -58,-69 -87,-162 -87,-280 0,-122 30,-216 90,-283 60,-67 138,-101 236,-101 98,0 176,33 235,100 59,67 89,161 89,283 z m -126,0 0,0 c 0,-94 -17,-164 -51,-210 -34,-46 -83,-69 -146,-69 -64,0 -113,23 -147,69 -35,46 -52,116 -52,210 0,91 17,160 52,207 35,47 84,71 147,71 63,0 112,-23 146,-69 34,-46 52,-116 52,-209 z"
   id="path3902"
   inkscape:connector-curvature="0"
   style="fill:#676767;fill-rule:nonzero" />
    <polygon
   class="fil1"
   points="14560,16877 14757,16316 14884,16316 14611,17042 14501,17042 14229,16316 14361,16316 "
   id="polygon3904"
   style="fill:#676767;fill-rule:nonzero" />
    <polygon
   class="fil1"
   points="16233,16074 16233,17042 16104,17042 16104,16208 15852,16776 15774,16776 15523,16208 15523,17042 15403,17042 15403,16074 15578,16074 15820,16613 16054,16074 "
   id="polygon3906"
   style="fill:#676767;fill-rule:nonzero" />
    <path
   class="fil1"
   d="m 16985,17042 -122,0 0,-81 c -38,33 -74,58 -107,75 -34,17 -72,26 -113,26 -32,0 -61,-5 -89,-16 -28,-10 -52,-27 -73,-49 -21,-23 -37,-51 -48,-85 -12,-34 -17,-76 -17,-125 l 0,-472 122,0 0,414 c 0,39 1,71 4,96 3,25 9,48 19,67 10,19 24,32 41,41 17,9 42,13 74,13 30,0 62,-8 96,-25 34,-17 65,-38 93,-62 l 0,-543 122,0 0,727 z"
   id="path3908"
   inkscape:connector-curvature="0"
   style="fill:#676767;fill-rule:nonzero" />
    <path
   class="fil1"
   d="m 17359,17060 c -48,0 -94,-6 -136,-20 -42,-13 -77,-27 -105,-42 l 0,-137 6,0 c 10,8 23,17 37,27 14,10 33,20 56,31 21,10 44,18 69,25 25,7 51,11 78,11 19,0 40,-2 62,-7 22,-5 39,-10 49,-17 15,-10 26,-21 33,-32 7,-11 10,-28 10,-51 0,-29 -8,-51 -24,-66 -16,-15 -44,-27 -84,-37 -16,-4 -36,-8 -61,-14 -25,-5 -48,-11 -70,-17 -56,-16 -96,-41 -121,-74 -25,-34 -38,-74 -38,-122 0,-66 25,-119 74,-160 49,-41 115,-62 197,-62 40,0 81,5 122,15 41,10 75,23 103,38 l 0,131 -6,0 c -31,-25 -66,-44 -104,-59 -38,-14 -77,-21 -116,-21 -40,0 -74,8 -102,25 -28,17 -41,42 -41,77 0,30 8,53 25,68 16,15 43,27 79,37 18,5 38,9 61,14 22,5 46,10 71,16 54,13 94,36 121,67 27,31 41,74 41,127 0,31 -6,61 -19,89 -12,28 -30,52 -54,72 -26,22 -55,38 -88,50 -33,11 -74,17 -123,17 z"
   id="path3910"
   inkscape:connector-curvature="0"
   style="fill:#676767;fill-rule:nonzero" />
    <path
   class="fil1"
   d="m 17890,16194 -139,0 0,-127 139,0 0,127 z m -8,848 0,0 -122,0 0,-727 122,0 0,727 z"
   id="path3912"
   inkscape:connector-curvature="0"
   style="fill:#676767;fill-rule:nonzero" />
    <path
   class="fil1"
   d="m 18350,17059 c -50,0 -96,-8 -137,-23 -42,-15 -77,-39 -107,-70 -30,-31 -53,-71 -70,-118 -17,-47 -25,-103 -25,-167 0,-64 8,-119 26,-165 17,-46 40,-85 69,-117 29,-32 64,-56 107,-73 43,-17 89,-26 138,-26 40,0 78,6 116,17 37,11 70,24 99,39 l 0,137 -7,0 c -9,-7 -20,-16 -34,-25 -14,-10 -30,-19 -50,-29 -17,-9 -37,-16 -60,-23 -23,-6 -45,-10 -66,-10 -63,0 -114,24 -153,72 -38,48 -58,116 -58,203 0,86 19,153 56,201 37,48 89,72 154,72 40,0 78,-8 114,-25 36,-16 68,-38 96,-64 l 7,0 0,137 c -12,6 -27,13 -45,20 -18,8 -35,14 -50,18 -21,6 -39,11 -56,14 -16,3 -38,5 -64,5 z"
   id="path3914"
   inkscape:connector-curvature="0"
   style="fill:#676767;fill-rule:nonzero" />
   </g>
  </g>
 </g></svg>