<?xml version="1.0" encoding="UTF-8" standalone="no"?>
<!-- Creator: CorelDRAW X6 -->

<svg
   xmlns:dc="http://purl.org/dc/elements/1.1/"
   xmlns:cc="http://creativecommons.org/ns#"
   xmlns:rdf="http://www.w3.org/1999/02/22-rdf-syntax-ns#"
   xmlns:svg="http://www.w3.org/2000/svg"
   xmlns="http://www.w3.org/2000/svg"
   xmlns:sodipodi="http://sodipodi.sourceforge.net/DTD/sodipodi-0.dtd"
   xmlns:inkscape="http://www.inkscape.org/namespaces/inkscape"
   xml:space="preserve"
   width="372.75589"
   height="113.03149"
   version="1.1"
   style="fill-rule:evenodd"
   viewBox="0 0 10520 3190"
   id="svg4366"
   inkscape:version="0.48.3.1 r9886"
   sodipodi:docname="itunes.svg"><metadata
   id="metadata4419"><rdf:RDF><cc:Work
       rdf:about=""><dc:format>image/svg+xml</dc:format><dc:type
         rdf:resource="http://purl.org/dc/dcmitype/StillImage" /><dc:title></dc:title></cc:Work></rdf:RDF></metadata><sodipodi:namedview
   pagecolor="#ffffff"
   bordercolor="#666666"
   borderopacity="1"
   objecttolerance="10"
   gridtolerance="10"
   guidetolerance="10"
   inkscape:pageopacity="0"
   inkscape:pageshadow="2"
   inkscape:window-width="640"
   inkscape:window-height="480"
   id="namedview4417"
   showgrid="false"
   fit-margin-top="0"
   fit-margin-left="0"
   fit-margin-right="0"
   fit-margin-bottom="0"
   inkscape:zoom="0.22425739"
   inkscape:cx="172.45275"
   inkscape:cy="42.377952"
   inkscape:window-x="359"
   inkscape:window-y="236"
   inkscape:window-maximized="0"
   inkscape:current-layer="svg4366" />
 <defs
   id="defs4368">
  <style
   type="text/css"
   id="style4370">
   
    .fil1 {fill:#666666}
    .fil0 {fill:#666666;fill-rule:nonzero}
   
  </style>
 </defs>
 <g
   id="Слой_x0020_1"
   transform="translate(-5633.0001,-12856)">
  <metadata
   id="CorelCorpID_0Corel-Layer" />
  <g
   id="_698629168">
   <g
   id="g4375">
    <path
   class="fil0"
   d="m 10140,13341 c 0,80 -16,153 -48,218 -32,65 -74,115 -128,152 -44,28 -88,47 -133,56 -45,10 -102,14 -172,14 l -198,0 0,-882 196,0 c 81,0 145,6 191,19 46,12 85,29 118,51 55,37 99,87 129,150 31,62 46,136 46,222 z m -119,-2 0,0 c 0,-68 -11,-126 -33,-174 -22,-48 -55,-85 -98,-112 -30,-19 -63,-33 -98,-41 -35,-8 -78,-12 -130,-12 l -87,0 0,680 87,0 c 51,0 96,-4 134,-12 38,-8 73,-24 105,-46 40,-28 70,-65 90,-110 20,-46 30,-103 30,-172 z"
   id="path4377"
   inkscape:connector-curvature="0"
   style="fill:#666666;fill-rule:nonzero" />
    <path
   class="fil0"
   d="m 10788,13450 c 0,111 -26,197 -79,258 -52,61 -122,91 -209,91 -90,0 -161,-31 -212,-94 -51,-63 -77,-148 -77,-255 0,-110 26,-196 80,-257 53,-61 123,-92 210,-92 87,0 157,31 209,92 53,61 79,147 79,258 z m -112,0 0,0 c 0,-86 -15,-149 -46,-191 -30,-42 -74,-63 -130,-63 -57,0 -100,21 -131,63 -31,42 -46,105 -46,191 0,83 15,146 46,189 31,43 75,64 131,64 56,0 99,-21 130,-63 31,-42 46,-105 46,-190 z"
   id="path4379"
   inkscape:connector-curvature="0"
   style="fill:#666666;fill-rule:nonzero" />
    <polygon
   class="fil0"
   points="11260,13271 11103,13781 11003,13781 10838,13119 10951,13119 11065,13632 11219,13119 11308,13119 11466,13632 11573,13119 11683,13119 11519,13781 11418,13781 "
   id="polygon4381"
   style="fill:#666666;fill-rule:nonzero" />
    <path
   class="fil0"
   d="m 12287,13781 -109,0 0,-377 c 0,-30 -1,-59 -4,-85 -3,-26 -8,-47 -17,-63 -9,-17 -21,-29 -37,-37 -16,-8 -37,-12 -65,-12 -27,0 -55,7 -84,22 -29,15 -57,34 -84,58 l 0,494 -109,0 0,-661 109,0 0,74 c 32,-30 65,-53 96,-68 32,-16 65,-24 100,-24 64,0 113,22 149,64 36,43 54,105 54,186 l 0,429 z"
   id="path4383"
   inkscape:connector-curvature="0"
   style="fill:#666666;fill-rule:nonzero" />
    <polygon
   class="fil0"
   points="12551,12859 12551,13781 12442,13781 12442,12859 "
   id="polygon4385"
   style="fill:#666666;fill-rule:nonzero" />
    <path
   class="fil0"
   d="m 13243,13450 c 0,111 -27,197 -79,258 -53,61 -122,91 -209,91 -90,0 -161,-31 -212,-94 -51,-63 -77,-148 -77,-255 0,-110 26,-196 80,-257 53,-61 123,-92 210,-92 87,0 157,31 209,92 52,61 79,147 79,258 z m -113,0 0,0 c 0,-86 -15,-149 -46,-191 -31,-42 -74,-63 -130,-63 -57,0 -100,21 -131,63 -31,42 -46,105 -46,191 0,83 15,146 46,189 31,43 74,64 131,64 56,0 99,-21 130,-63 31,-42 46,-105 46,-190 z"
   id="path4387"
   inkscape:connector-curvature="0"
   style="fill:#666666;fill-rule:nonzero" />
    <path
   class="fil0"
   d="m 13715,13710 c -9,7 -21,16 -36,28 -15,12 -29,22 -43,29 -19,10 -38,18 -56,24 -18,6 -43,8 -76,8 -27,0 -52,-5 -76,-15 -24,-10 -45,-25 -63,-43 -17,-18 -31,-41 -42,-67 -10,-27 -16,-55 -16,-84 0,-46 10,-85 28,-117 19,-32 49,-58 90,-77 36,-17 79,-29 128,-35 49,-7 103,-11 160,-15 l 0,-21 c 0,-26 -4,-47 -12,-63 -8,-16 -19,-28 -32,-37 -14,-9 -31,-15 -51,-18 -20,-3 -41,-4 -62,-4 -25,0 -55,4 -89,12 -34,8 -68,19 -102,33 l -6,0 0,-113 c 20,-6 49,-12 86,-20 37,-7 74,-11 111,-11 44,0 82,4 112,11 31,7 58,20 82,38 24,18 41,42 53,70 11,29 17,64 17,106 l 0,452 -108,0 0,-70 z m 0,-92 0,0 0,-184 c -26,3 -59,6 -98,10 -40,4 -72,10 -96,18 -29,9 -53,23 -72,42 -19,19 -28,45 -28,78 0,38 10,67 31,86 21,20 51,29 91,29 34,0 65,-8 93,-23 28,-15 54,-34 78,-56 z"
   id="path4389"
   inkscape:connector-curvature="0"
   style="fill:#666666;fill-rule:nonzero" />
    <path
   class="fil0"
   d="m 14474,13781 -109,0 0,-68 c -17,15 -32,27 -44,36 -12,9 -27,18 -43,26 -15,8 -32,13 -48,17 -17,4 -36,6 -58,6 -35,0 -67,-7 -97,-23 -30,-15 -55,-37 -76,-66 -21,-29 -38,-65 -49,-108 -12,-43 -17,-92 -17,-148 0,-58 7,-108 22,-151 15,-42 35,-80 61,-111 24,-29 52,-51 85,-68 33,-16 68,-25 105,-25 33,0 61,4 84,11 24,7 49,19 76,34 l 0,-287 109,0 0,922 z m -109,-161 0,0 0,-381 c -27,-14 -51,-23 -73,-28 -21,-5 -45,-8 -70,-8 -56,0 -100,22 -131,64 -32,43 -47,105 -47,186 0,78 12,138 36,179 24,41 63,62 117,62 28,0 57,-6 86,-20 29,-13 56,-31 82,-53 z"
   id="path4391"
   inkscape:connector-curvature="0"
   style="fill:#666666;fill-rule:nonzero" />
    <path
   class="fil0"
   d="m 15534,13450 c 0,111 -26,197 -79,258 -53,61 -122,91 -210,91 -90,0 -161,-31 -212,-94 -51,-63 -77,-148 -77,-255 0,-110 26,-196 80,-257 53,-61 123,-92 210,-92 87,0 157,31 210,92 52,61 79,147 79,258 z m -112,0 0,0 c 0,-86 -15,-149 -46,-191 -31,-42 -74,-63 -130,-63 -57,0 -100,21 -131,63 -31,42 -46,105 -46,191 0,83 15,146 46,189 31,43 75,64 131,64 56,0 99,-21 130,-63 31,-42 46,-105 46,-190 z"
   id="path4393"
   inkscape:connector-curvature="0"
   style="fill:#666666;fill-rule:nonzero" />
    <path
   class="fil0"
   d="m 16153,13781 -109,0 0,-377 c 0,-30 -1,-59 -4,-85 -3,-26 -8,-47 -16,-63 -9,-17 -21,-29 -37,-37 -16,-8 -37,-12 -65,-12 -27,0 -55,7 -84,22 -29,15 -57,34 -84,58 l 0,494 -109,0 0,-661 109,0 0,74 c 32,-30 65,-53 96,-68 32,-16 65,-24 100,-24 64,0 113,22 149,64 36,43 54,105 54,186 l 0,429 z"
   id="path4395"
   inkscape:connector-curvature="0"
   style="fill:#666666;fill-rule:nonzero" />
   </g>
   <g
   id="g4397">
    <path
   class="fil0"
   d="m 9709,14409 -257,0 0,-239 257,0 0,239 z m -16,1600 0,0 -226,0 0,-1370 226,0 0,1370 z"
   id="path4399"
   inkscape:connector-curvature="0"
   style="fill:#666666;fill-rule:nonzero" />
    <polygon
   class="fil0"
   points="9860,14182 11296,14182 11296,14398 10696,14398 10696,16008 10459,16008 10459,14398 9860,14398 "
   id="polygon4401"
   style="fill:#666666;fill-rule:nonzero" />
    <path
   class="fil0"
   d="m 12273,16008 -225,0 0,-152 c -69,62 -135,109 -198,142 -62,32 -132,48 -209,48 -58,0 -113,-10 -165,-29 -52,-20 -97,-51 -135,-93 -38,-43 -68,-96 -89,-161 -21,-65 -32,-143 -32,-236 l 0,-889 225,0 0,780 c 0,73 3,133 8,181 5,48 17,90 35,126 19,35 44,61 75,77 32,16 77,25 136,25 55,0 114,-16 176,-48 62,-32 119,-71 171,-118 l 0,-1023 225,0 0,1370 z"
   id="path4403"
   inkscape:connector-curvature="0"
   style="fill:#666666;fill-rule:nonzero" />
    <path
   class="fil0"
   d="m 13651,16008 -225,0 0,-780 c 0,-63 -3,-121 -9,-176 -6,-54 -17,-98 -34,-130 -18,-35 -44,-60 -77,-77 -33,-17 -77,-25 -134,-25 -56,0 -114,15 -173,46 -59,31 -118,70 -174,119 l 0,1023 -225,0 0,-1370 225,0 0,152 c 67,-61 133,-108 199,-141 65,-33 135,-49 207,-49 132,0 235,44 309,133 74,89 111,217 111,386 l 0,889 z"
   id="path4405"
   inkscape:connector-curvature="0"
   style="fill:#666666;fill-rule:nonzero" />
    <path
   class="fil0"
   d="m 14549,16040 c -213,0 -379,-61 -497,-184 -118,-123 -177,-298 -177,-524 0,-223 57,-401 171,-533 114,-132 264,-198 448,-198 83,0 157,12 221,37 64,25 120,63 168,115 48,53 85,117 110,192 25,76 38,168 38,278 l 0,125 -928,0 c 0,160 39,281 117,365 78,84 187,127 325,127 50,0 98,-6 146,-17 48,-12 90,-26 129,-44 41,-19 75,-37 103,-55 28,-18 51,-34 69,-50 l 13,0 0,252 c -26,11 -59,24 -98,40 -39,16 -74,28 -105,37 -44,12 -84,22 -119,28 -36,7 -80,10 -135,10 z m 264,-870 0,0 c -2,-62 -9,-116 -22,-161 -13,-45 -31,-83 -55,-114 -26,-34 -60,-60 -101,-79 -41,-18 -92,-27 -153,-27 -60,0 -111,9 -153,28 -42,18 -80,45 -114,80 -34,36 -59,76 -77,120 -18,44 -29,95 -34,153 l 708,0 z"
   id="path4407"
   inkscape:connector-curvature="0"
   style="fill:#666666;fill-rule:nonzero" />
    <path
   class="fil0"
   d="m 15622,16042 c -89,0 -173,-12 -251,-37 -78,-25 -143,-51 -194,-79 l 0,-259 12,0 c 19,16 42,33 68,52 26,19 60,38 104,59 38,18 80,34 126,48 46,14 94,21 143,21 36,0 74,-4 115,-13 41,-9 71,-20 91,-33 28,-19 48,-39 61,-60 12,-21 18,-53 18,-95 0,-55 -14,-96 -44,-124 -29,-28 -81,-51 -155,-70 -29,-7 -66,-16 -113,-26 -46,-10 -89,-20 -128,-32 -102,-30 -177,-77 -223,-141 -46,-63 -69,-140 -69,-230 0,-124 46,-224 137,-302 91,-78 212,-116 363,-116 74,0 149,9 224,28 75,19 138,43 190,71 l 0,247 -12,0 c -58,-47 -122,-83 -192,-110 -71,-27 -142,-41 -214,-41 -74,0 -137,16 -188,48 -51,32 -77,80 -77,145 0,57 15,100 46,128 30,28 79,51 146,69 33,9 71,18 112,26 41,9 84,19 130,30 99,25 173,67 223,126 50,59 75,139 75,241 0,59 -11,115 -34,167 -23,53 -56,98 -100,136 -48,41 -102,72 -162,93 -60,21 -136,32 -227,32 z"
   id="path4409"
   inkscape:connector-curvature="0"
   style="fill:#666666;fill-rule:nonzero" />
   </g>
   <g
   id="g4411">
    <path
   class="fil1"
   d="m 7545,12859 c 8,0 15,0 23,0 18,225 -68,393 -171,515 -103,120 -243,238 -469,220 -15,-221 71,-377 175,-498 97,-113 274,-214 443,-236 z"
   id="path4413"
   inkscape:connector-curvature="0"
   style="fill:#666666" />
    <path
   class="fil1"
   d="m 8231,15199 c 0,2 0,4 0,6 -64,193 -154,358 -265,511 -101,139 -225,327 -447,327 -192,0 -318,-123 -514,-126 -208,-4 -322,103 -511,129 -22,0 -43,0 -65,0 -139,-20 -251,-130 -333,-230 -241,-294 -428,-673 -463,-1158 0,-48 0,-95 0,-142 15,-347 184,-630 408,-767 119,-73 281,-135 463,-107 78,12 157,38 226,65 66,25 148,70 227,68 53,-2 105,-29 158,-49 156,-57 310,-121 511,-91 242,37 415,144 521,310 -205,131 -367,327 -340,663 25,305 202,484 424,589 z"
   id="path4415"
   inkscape:connector-curvature="0"
   style="fill:#666666" />
   </g>
  </g>
 </g>
</svg>