<?xml version="1.0" encoding="UTF-8" standalone="no"?>
<!-- Creator: CorelDRAW X6 -->

<svg
   xmlns:dc="http://purl.org/dc/elements/1.1/"
   xmlns:cc="http://creativecommons.org/ns#"
   xmlns:rdf="http://www.w3.org/1999/02/22-rdf-syntax-ns#"
   xmlns:svg="http://www.w3.org/2000/svg"
   xmlns="http://www.w3.org/2000/svg"
   xmlns:sodipodi="http://sodipodi.sourceforge.net/DTD/sodipodi-0.dtd"
   xmlns:inkscape="http://www.inkscape.org/namespaces/inkscape"
   xml:space="preserve"
   width="387.98999"
   height="387.98999"
   version="1.1"
   style="fill-rule:evenodd"
   viewBox="0 0 10949.94 10949.94"
   id="svg4469"
   inkscape:version="0.48.3.1 r9886"
   sodipodi:docname="phone.svg"><metadata
   id="metadata4481"><rdf:RDF><cc:Work
       rdf:about=""><dc:format>image/svg+xml</dc:format><dc:type
         rdf:resource="http://purl.org/dc/dcmitype/StillImage" /><dc:title></dc:title></cc:Work></rdf:RDF></metadata><sodipodi:namedview
   pagecolor="#ffffff"
   bordercolor="#666666"
   borderopacity="1"
   objecttolerance="10"
   gridtolerance="10"
   guidetolerance="10"
   inkscape:pageopacity="0"
   inkscape:pageshadow="2"
   inkscape:window-width="1440"
   inkscape:window-height="852"
   id="namedview4479"
   showgrid="false"
   fit-margin-top="0"
   fit-margin-left="0"
   fit-margin-right="0"
   fit-margin-bottom="0"
   inkscape:zoom="0.22425739"
   inkscape:cx="-527.85635"
   inkscape:cy="228.08267"
   inkscape:window-x="0"
   inkscape:window-y="25"
   inkscape:window-maximized="1"
   inkscape:current-layer="svg4469" />
 <defs
   id="defs4471">
  <style
   type="text/css"
   id="style4473">
   
    .fil0 {fill:#676767;fill-rule:nonzero}
   
  </style>
 </defs>
 <g
   id="Слой_x0020_1"
   transform="translate(-3488.03,-10337.03)">
  <metadata
   id="CorelCorpID_0Corel-Layer" />
  <path
   class="fil0"
   d="m 11141,10337 0,856 -4355,0 0,982 -958,0 0,8231 958,0 0,881 4355,0 0,-881 957,0 0,-10069 -957,0 z m -2593,9189 0,0 -983,0 0,-984 983,0 0,984 z m 0,-1787 0,0 -983,0 0,-983 983,0 0,983 z m 1811,1787 0,0 -984,0 0,-984 984,0 0,984 z m 0,-1787 0,0 -984,0 0,-983 984,0 0,983 z m 0,-2845 0,0 -2794,0 0,-1837 2794,0 0,1837 z"
   id="path4477"
   inkscape:connector-curvature="0"
   style="fill:#676767;fill-rule:nonzero" />
 </g>
</svg>