<?xml version="1.0" encoding="UTF-8" standalone="no"?>
<!-- Creator: CorelDRAW X6 -->

<svg
   xmlns:dc="http://purl.org/dc/elements/1.1/"
   xmlns:cc="http://creativecommons.org/ns#"
   xmlns:rdf="http://www.w3.org/1999/02/22-rdf-syntax-ns#"
   xmlns:svg="http://www.w3.org/2000/svg"
   xmlns="http://www.w3.org/2000/svg"
   xmlns:sodipodi="http://sodipodi.sourceforge.net/DTD/sodipodi-0.dtd"
   xmlns:inkscape="http://www.inkscape.org/namespaces/inkscape"
   xml:space="preserve"
   width="424.06299"
   height="424.06299"
   version="1.1"
   style="fill-rule:evenodd"
   viewBox="0 0 11968 11968"
   id="svg4648"
   inkscape:version="0.48.3.1 r9886"
   sodipodi:docname="icon-youtube.svg"><metadata
   id="metadata4671"><rdf:RDF><cc:Work
       rdf:about=""><dc:format>image/svg+xml</dc:format><dc:type
         rdf:resource="http://purl.org/dc/dcmitype/StillImage" /><dc:title></dc:title></cc:Work></rdf:RDF></metadata><sodipodi:namedview
   pagecolor="#ffffff"
   bordercolor="#666666"
   borderopacity="1"
   objecttolerance="10"
   gridtolerance="10"
   guidetolerance="10"
   inkscape:pageopacity="0"
   inkscape:pageshadow="2"
   inkscape:window-width="1440"
   inkscape:window-height="852"
   id="namedview4669"
   showgrid="false"
   inkscape:zoom="0.22425739"
   inkscape:cx="-365.32092"
   inkscape:cy="482.21258"
   inkscape:window-x="0"
   inkscape:window-y="25"
   inkscape:window-maximized="1"
   inkscape:current-layer="svg4648"
   fit-margin-top="0"
   fit-margin-left="0"
   fit-margin-right="0"
   fit-margin-bottom="0" />
 <defs
   id="defs4650">
  <style
   type="text/css"
   id="style4652">
   
    .fil0 {fill:#4F4F4F;fill-rule:nonzero}
   
  </style>
 </defs>
 <g
   id="Слой_x0020_1"
   transform="translate(-3557,-8406)">
  <metadata
   id="CorelCorpID_0Corel-Layer" />
  <g
   id="_700514752">
   <polygon
   class="fil0"
   points="8271,14895 8271,14528 6985,14528 6985,14895 7419,14895 7419,17047 7838,17047 7838,14895 "
   id="polygon4657"
   style="fill:#4f4f4f;fill-rule:nonzero" />
   <path
   class="fil0"
   d="m 9557,13106 c 57,0 102,-15 135,-45 34,-33 51,-75 51,-130 l 0,-1116 c 0,-44 -17,-81 -51,-108 -34,-27 -79,-42 -134,-42 -51,0 -92,14 -125,42 -31,27 -47,64 -47,108 l 0,1116 c 0,56 14,99 44,130 29,31 73,45 127,45 z"
   id="path4659"
   inkscape:connector-curvature="0"
   style="fill:#4f4f4f;fill-rule:nonzero" />
   <path
   class="fil0"
   d="m 10480,15166 c -58,0 -115,14 -172,44 -56,29 -109,73 -159,129 l 0,-812 -375,0 0,2519 375,0 0,-143 c 49,58 102,99 159,127 56,27 121,40 195,40 110,0 195,-34 252,-105 58,-71 88,-171 88,-303 l 0,-1031 c 0,-153 -31,-268 -93,-347 -62,-79 -151,-119 -269,-119 z m -20,1446 0,0 c 0,60 -12,102 -32,129 -22,26 -55,39 -101,39 -31,0 -61,-7 -90,-20 -28,-13 -58,-35 -88,-66 l 0,-1158 c 25,-26 51,-45 77,-57 26,-13 52,-18 79,-18 50,0 89,15 116,47 26,33 40,81 40,144 l 0,960 z"
   id="path4661"
   inkscape:connector-curvature="0"
   style="fill:#4f4f4f;fill-rule:nonzero" />
   <path
   class="fil0"
   d="m 9123,16601 c -34,40 -73,73 -115,99 -42,26 -77,39 -103,39 -35,0 -61,-10 -77,-29 -15,-19 -23,-51 -23,-95 l 0,-1426 -372,0 0,1554 c 0,111 22,193 66,249 44,56 108,83 194,83 70,0 142,-19 216,-59 75,-40 145,-97 214,-172 l 0,204 372,0 0,-1858 -372,0 0,1412 z"
   id="path4663"
   inkscape:connector-curvature="0"
   style="fill:#4f4f4f;fill-rule:nonzero" />
   <path
   class="fil0"
   d="m 9541,8406 c -3305,0 -5984,2680 -5984,5984 0,3306 2680,5984 5984,5984 3305,0 5984,-2679 5984,-5984 0,-3305 -2679,-5984 -5984,-5984 z m 968,2956 0,0 417,0 0,1570 c 0,49 9,84 27,105 17,21 46,33 85,33 31,0 70,-15 117,-43 47,-29 90,-66 129,-111 l 0,-1553 418,0 0,2047 -418,0 0,-226 c -77,83 -157,147 -240,191 -84,43 -164,66 -243,66 -97,0 -170,-31 -219,-92 -49,-61 -73,-151 -73,-275 l 0,-1710 z m -1553,468 0,0 c 0,-159 56,-284 168,-379 113,-93 264,-141 454,-141 173,0 315,50 426,149 110,99 165,227 165,383 l 0,1057 c 0,176 -54,313 -162,412 -109,99 -258,149 -448,149 -182,0 -329,-51 -439,-153 -110,-103 -164,-242 -164,-416 l 0,-1061 z m -1140,-1196 0,0 306,1109 30,0 291,-1109 479,0 -548,1624 0,1151 -471,0 0,-1099 -560,-1675 474,0 z m 5478,5841 0,0 c 0,740 -601,1341 -1342,1341 l -4660,0 c -740,0 -1341,-601 -1341,-1341 l 0,-1079 c 0,-741 601,-1341 1341,-1341 l 4660,0 c 741,0 1342,601 1342,1341 l 0,1079 z"
   id="path4665"
   inkscape:connector-curvature="0"
   style="fill:#4f4f4f;fill-rule:nonzero" />
   <path
   class="fil0"
   d="m 11602,15143 c -166,0 -301,50 -406,153 -105,101 -159,232 -159,393 l 0,835 c 0,179 49,320 144,421 95,103 227,154 393,154 185,0 324,-49 417,-144 94,-97 140,-240 140,-431 l 0,-95 -382,0 0,84 c 0,110 -13,180 -37,211 -24,32 -67,48 -129,48 -59,0 -101,-19 -126,-56 -24,-39 -36,-106 -36,-204 l 0,-351 710,0 0,-474 c 0,-175 -45,-310 -136,-405 -92,-94 -222,-140 -392,-140 z m 147,731 0,0 -328,0 0,-188 c 0,-78 12,-134 38,-167 26,-34 68,-51 127,-51 57,0 98,17 123,51 26,32 39,89 39,167 l 0,188 z"
   id="path4667"
   inkscape:connector-curvature="0"
   style="fill:#4f4f4f;fill-rule:nonzero" />
  </g>
 </g>
</svg>