<?xml version="1.0" encoding="UTF-8" standalone="no"?>
<!-- Creator: CorelDRAW X6 -->

<svg
   xmlns:dc="http://purl.org/dc/elements/1.1/"
   xmlns:cc="http://creativecommons.org/ns#"
   xmlns:rdf="http://www.w3.org/1999/02/22-rdf-syntax-ns#"
   xmlns:svg="http://www.w3.org/2000/svg"
   xmlns="http://www.w3.org/2000/svg"
   xmlns:sodipodi="http://sodipodi.sourceforge.net/DTD/sodipodi-0.dtd"
   xmlns:inkscape="http://www.inkscape.org/namespaces/inkscape"
   xml:space="preserve"
   width="317.97638"
   height="317.97638"
   version="1.1"
   style="fill-rule:evenodd"
   viewBox="0 0 8974.0002 8974.0002"
   preserveAspectRatio="xMidYMid slice"
   id="svg4574"
   inkscape:version="0.48.3.1 r9886"
   sodipodi:docname="icon-twitter.svg"><metadata
   id="metadata4586"><rdf:RDF><cc:Work
       rdf:about=""><dc:format>image/svg+xml</dc:format><dc:type
         rdf:resource="http://purl.org/dc/dcmitype/StillImage" /><dc:title /></cc:Work></rdf:RDF></metadata><sodipodi:namedview
   pagecolor="#ffffff"
   bordercolor="#666666"
   borderopacity="1"
   objecttolerance="10"
   gridtolerance="10"
   guidetolerance="10"
   inkscape:pageopacity="0"
   inkscape:pageshadow="2"
   inkscape:window-width="1440"
   inkscape:window-height="852"
   id="namedview4584"
   showgrid="false"
   inkscape:zoom="0.22425739"
   inkscape:cx="-418.36423"
   inkscape:cy="429.16928"
   inkscape:window-x="0"
   inkscape:window-y="25"
   inkscape:window-maximized="1"
   inkscape:current-layer="svg4574"
   fit-margin-top="0"
   fit-margin-left="0"
   fit-margin-right="0"
   fit-margin-bottom="0" />
 <defs
   id="defs4576">
  <style
   type="text/css"
   id="style4578">
   
    .fil0 {fill:#4F4F4F;fill-rule:nonzero}
   
  </style>
 </defs>
 <g
   id="Слой_x0020_1"
   transform="translate(-5255,-10653)">
  <metadata
   id="CorelCorpID_0Corel-Layer" />
  <path
   class="fil0"
   d="m 9742,10653 c -2478,0 -4487,2009 -4487,4487 0,2478 2009,4487 4487,4487 2478,0 4487,-2009 4487,-4487 0,-2478 -2009,-4487 -4487,-4487 z m 1206,7101 0,0 c -185,0 -1209,-24 -1470,-24 -261,0 -1623,-425 -1623,-1924 0,-267 0,-535 -1,-803 -1,-249 -6,-498 -7,-745 -1,-72 -1,-145 -1,-217 -2,-378 -34,-802 88,-1165 92,-276 312,-387 583,-387 655,0 699,668 701,1338 l 1892,0 c 300,0 523,304 523,769 0,465 -484,569 -739,569 l -1698,0 c -9,285 -18,517 -18,658 0,296 116,616 839,616 l 1017,0 c 254,0 630,192 630,729 0,536 -531,585 -716,585 z"
   id="path4582"
   inkscape:connector-curvature="0"
   style="fill:#4f4f4f;fill-rule:nonzero" />
 </g>
</svg>