<?xml version="1.0" encoding="UTF-8" standalone="no"?>
<!-- Creator: CorelDRAW X6 -->

<svg
   xmlns:dc="http://purl.org/dc/elements/1.1/"
   xmlns:cc="http://creativecommons.org/ns#"
   xmlns:rdf="http://www.w3.org/1999/02/22-rdf-syntax-ns#"
   xmlns:svg="http://www.w3.org/2000/svg"
   xmlns="http://www.w3.org/2000/svg"
   xmlns:sodipodi="http://sodipodi.sourceforge.net/DTD/sodipodi-0.dtd"
   xmlns:inkscape="http://www.inkscape.org/namespaces/inkscape"
   xml:space="preserve"
   width="604.09839"
   height="604.09998"
   version="1.1"
   style="fill-rule:evenodd"
   viewBox="0 0 17048.999 17049.045"
   id="svg4673"
   inkscape:version="0.48.3.1 r9886"
   sodipodi:docname="icon-youtube-shadowed.svg"><metadata
   id="metadata4758"><rdf:RDF><cc:Work
       rdf:about=""><dc:format>image/svg+xml</dc:format><dc:type
         rdf:resource="http://purl.org/dc/dcmitype/StillImage" /><dc:title /></cc:Work></rdf:RDF></metadata><sodipodi:namedview
   pagecolor="#ffffff"
   bordercolor="#666666"
   borderopacity="1"
   objecttolerance="10"
   gridtolerance="10"
   guidetolerance="10"
   inkscape:pageopacity="0"
   inkscape:pageshadow="2"
   inkscape:window-width="606"
   inkscape:window-height="416"
   id="namedview4756"
   showgrid="false"
   inkscape:zoom="0.22425739"
   inkscape:cx="-148.44665"
   inkscape:cy="295.44093"
   inkscape:window-x="204"
   inkscape:window-y="180"
   inkscape:window-maximized="0"
   inkscape:current-layer="svg4673"
   fit-margin-top="0"
   fit-margin-left="0"
   fit-margin-right="0"
   fit-margin-bottom="0" />
 <defs
   id="defs4675">
  <style
   type="text/css"
   id="style4677">
   
    .fil0 {fill:none;fill-rule:nonzero}
    .fil1 {fill:#4F4F4F;fill-rule:nonzero}
    .fil3 {fill:#8C8C8C;fill-rule:nonzero}
    .fil2 {fill:white;fill-rule:nonzero}
   
  </style>
 </defs>
 <g
   id="Слой_x0020_1"
   transform="translate(-2414.0001,-6456.9557)">
  <metadata
   id="CorelCorpID_0Corel-Layer" />
  <g
   id="_703270752">
   <g
   id="g4682">
    <path
   class="fil0"
   d="m 9782,20682 0,525 c -81,94 -170,171 -268,232 -97,60 -178,90 -240,90 -82,0 -141,-22 -178,-69 -36,-45 -53,-118 -53,-221 l 0,-525 0,-2786 -862,0 0,3083 c 0,259 51,450 151,579 102,130 251,193 450,193 163,0 329,-44 501,-137 173,-91 338,-225 499,-399 l 0,473 862,0 0,-3792 -862,0 0,2754 z"
   id="path4684"
   inkscape:connector-curvature="0"
   style="fill:none" />
   </g>
   <g
   id="g4686">
    <path
   class="fil0"
   d="m 12932,17878 c -134,0 -267,34 -398,103 -43,23 -85,55 -127,85 40,-12 79,-27 118,-27 116,0 206,37 269,111 61,75 90,185 90,332 l 0,525 0,1704 0,525 c 0,138 -26,236 -75,297 -50,61 -126,93 -233,93 -73,0 -141,-18 -208,-47 -15,-7 -31,-26 -47,-36 68,57 139,105 212,139 131,63 281,93 451,93 254,0 452,-80 586,-243 136,-163 203,-398 203,-702 l 0,-1870 c 0,-354 -71,-623 -216,-807 -144,-184 -352,-274 -625,-274 z"
   id="path4688"
   inkscape:connector-curvature="0"
   style="fill:none" />
   </g>
   <g
   id="g4690">
    <polygon
   class="fil0"
   points="11293,16395 11293,21720 12165,21720 12165,21424 12165,21389 12165,20899 12165,18736 12165,18280 12165,18211 12165,17755 12165,16395 "
   id="polygon4692"
   style="fill:none" />
   </g>
   <g
   id="g4694">
    <polygon
   class="fil0"
   points="7802,16395 4819,16395 4819,16722 5825,16722 5825,17247 5825,21720 6796,21720 6796,17247 6796,16722 7802,16722 "
   id="polygon4696"
   style="fill:none" />
   </g>
   <g
   id="g4698">
    <path
   class="fil0"
   d="m 10790,12571 c 131,0 236,-36 313,-109 78,-73 117,-174 117,-301 l 0,-2065 c 0,-103 -40,-187 -119,-251 -79,-65 -182,-95 -311,-95 -119,0 -215,30 -290,95 -73,65 -110,148 -110,251 l 0,2065 c 0,131 34,231 103,303 69,72 167,107 297,107 z"
   id="path4700"
   inkscape:connector-curvature="0"
   style="fill:none" />
   </g>
   <g
   id="g4702">
    <path
   class="fil0"
   d="m 15536,17823 c -387,0 -700,118 -943,353 -245,236 -367,542 -367,915 l 0,1413 c 0,418 112,744 333,980 222,237 526,355 913,355 430,0 752,-111 967,-334 165,-170 267,-402 306,-697 l -868,0 0,197 c 0,253 -30,417 -85,492 -58,74 -157,111 -301,111 -137,0 -235,-42 -293,-131 -57,-87 -84,-245 -84,-472 l 0,-525 0,-288 0,-525 1650,0 0,-576 c 0,-409 -107,-722 -319,-940 -212,-218 -515,-327 -910,-327 z m 341,1172 0,0 -9,0 c 2,31 9,55 9,90 l 0,435 -762,0 0,-435 c 0,-35 6,-59 8,-90 l -8,0 0,-435 c 0,-182 29,-311 89,-388 61,-80 158,-119 296,-119 131,0 228,40 287,119 60,77 91,206 91,388 l 0,435 z"
   id="path4704"
   inkscape:connector-curvature="0"
   style="fill:none" />
   </g>
   <path
   class="fil1"
   d="m 12407,18065 c -21,6 -43,5 -64,14 -60,27 -119,73 -178,132 l 0,68 c 77,-87 158,-155 242,-215 z"
   id="path4706"
   inkscape:connector-curvature="0"
   style="fill:#4f4f4f;fill-rule:nonzero" />
   <path
   class="fil1"
   d="m 12165,21424 c 53,54 105,87 157,118 -54,-45 -107,-94 -157,-154 l 0,36 z"
   id="path4708"
   inkscape:connector-curvature="0"
   style="fill:#4f4f4f;fill-rule:nonzero" />
   <g
   id="g4710">
    <path
   class="fil2"
   d="m 16349,14773 -10821,0 c -1720,0 -3114,1396 -3114,3115 l 0,2504 c 0,1719 1394,3114 3114,3114 l 10821,0 c 1720,0 3114,-1395 3114,-3114 l 0,-2504 c 0,-1719 -1395,-3115 -3114,-3115 z m -8547,1949 0,0 -1006,0 0,4998 -972,0 0,-4998 -1006,0 0,-851 2983,0 0,851 z m 2842,4998 0,0 -862,0 0,-473 c -160,174 -326,308 -499,399 -171,93 -338,137 -501,137 -200,0 -348,-63 -450,-193 -101,-128 -151,-320 -151,-579 l 0,-3608 862,0 0,3311 c 0,103 18,176 53,221 37,47 96,69 178,69 62,0 143,-30 240,-90 98,-61 187,-138 268,-232 l 0,-3279 862,0 0,4316 z m 3130,-891 0,0 c 0,305 -67,539 -203,702 -134,163 -331,243 -586,243 -169,0 -320,-29 -451,-93 -132,-63 -257,-159 -369,-293 l 0,331 -872,0 0,-5850 872,0 0,1884 c 116,-131 240,-232 369,-299 132,-69 264,-103 398,-103 273,0 481,90 625,274 145,184 216,453 216,807 l 0,2395 z m 2992,-1163 0,0 -1650,0 0,813 c 0,227 27,385 84,472 58,89 155,131 293,131 143,0 243,-37 301,-111 55,-74 85,-238 85,-492 l 0,-197 888,0 0,221 c 0,443 -108,776 -326,1001 -215,223 -538,334 -967,334 -387,0 -691,-118 -913,-355 -221,-236 -333,-562 -333,-980 l 0,-1938 c 0,-373 122,-679 367,-915 244,-235 557,-353 943,-353 395,0 698,109 910,327 212,218 319,532 319,940 l 0,1101 z"
   id="path4712"
   inkscape:connector-curvature="0"
   style="fill:#ffffff;fill-rule:nonzero" />
    <path
   class="fil2"
   d="m 15499,18052 c -138,0 -235,40 -296,119 -60,77 -89,206 -89,388 l 0,435 762,0 0,-435 c 0,-182 -31,-311 -91,-388 -59,-80 -156,-119 -287,-119 z"
   id="path4714"
   inkscape:connector-curvature="0"
   style="fill:#ffffff;fill-rule:nonzero" />
    <path
   class="fil2"
   d="m 12525,18039 c -61,0 -122,13 -182,41 -60,27 -119,73 -178,132 l 0,2688 c 69,70 138,124 204,154 66,29 135,47 208,47 107,0 183,-31 233,-93 49,-61 75,-159 75,-297 l 0,-2228 c 0,-147 -29,-257 -90,-332 -63,-74 -153,-111 -269,-111 z"
   id="path4716"
   inkscape:connector-curvature="0"
   style="fill:#ffffff;fill-rule:nonzero" />
    <polygon
   class="fil2"
   points="5644,6830 6946,10721 6946,13274 8039,13274 8039,10600 9312,6830 8201,6830 7524,9405 7455,9405 6745,6830 "
   id="polygon4718"
   style="fill:#ffffff;fill-rule:nonzero" />
    <path
   class="fil2"
   d="m 10792,13394 c 442,0 788,-115 1041,-348 251,-232 376,-549 376,-956 l 0,-2455 c 0,-362 -128,-660 -383,-890 -258,-230 -586,-344 -989,-344 -441,0 -793,109 -1054,326 -262,218 -393,510 -393,879 l 0,2464 c 0,405 129,725 383,964 255,239 596,359 1019,359 z m -402,-3823 0,0 c 0,-103 37,-187 110,-251 75,-65 171,-95 290,-95 129,0 232,30 311,95 79,65 119,148 119,251 l 0,2589 c 0,127 -39,228 -117,301 -77,72 -182,109 -313,109 -129,0 -227,-35 -297,-107 -69,-72 -103,-172 -103,-303 l 0,-2589 z"
   id="path4720"
   inkscape:connector-curvature="0"
   style="fill:#ffffff;fill-rule:nonzero" />
    <path
   class="fil2"
   d="m 13674,13343 c 183,0 370,-51 564,-152 195,-101 381,-250 558,-443 l 0,527 972,0 0,-4754 -972,0 0,3608 c -90,103 -190,188 -298,255 -111,67 -201,100 -272,100 -91,0 -158,-24 -197,-76 -40,-50 -63,-131 -63,-243 l 0,-3644 -969,0 0,3972 c 0,283 57,495 169,635 114,142 283,214 508,214 z"
   id="path4722"
   inkscape:connector-curvature="0"
   style="fill:#ffffff;fill-rule:nonzero" />
   </g>
   <polygon
   class="fil3"
   points="13965,8521 12997,8521 12997,9045 13965,9045 "
   id="polygon4724"
   style="fill:#8c8c8c;fill-rule:nonzero" />
   <path
   class="fil3"
   d="m 13965,12689 c 0,112 23,193 63,243 39,52 106,77 197,77 71,0 161,-33 272,-100 108,-68 208,-152 298,-255 l 0,-525 c -90,103 -190,188 -298,255 -111,67 -201,100 -272,100 -91,0 -158,-24 -197,-76 -40,-50 -63,-131 -63,-243 l 0,525 z"
   id="path4726"
   inkscape:connector-curvature="0"
   style="fill:#8c8c8c;fill-rule:nonzero" />
   <polygon
   class="fil3"
   points="7455,9405 6745,6830 5644,6830 5819,7355 6745,7355 7455,9930 7524,9930 8201,7355 9135,7355 9312,6830 8201,6830 7524,9405 "
   id="polygon4728"
   style="fill:#8c8c8c;fill-rule:nonzero" />
   <path
   class="fil3"
   d="m 10493,12463 c -69,-72 -103,-172 -103,-303 l 0,525 c 0,131 34,231 103,303 69,73 167,108 297,108 131,0 236,-36 313,-109 78,-73 117,-174 117,-301 l 0,-525 c 0,127 -39,228 -117,301 -77,72 -182,109 -313,109 -129,0 -227,-35 -297,-107 z"
   id="path4730"
   inkscape:connector-curvature="0"
   style="fill:#8c8c8c;fill-rule:nonzero" />
   <path
   class="fil3"
   d="m 10836,8926 c 402,0 731,115 989,344 256,229 383,528 383,890 l 0,-525 c 0,-362 -128,-660 -383,-890 -258,-230 -586,-344 -989,-344 -441,0 -793,109 -1054,326 -262,218 -393,510 -393,879 l 0,525 c 0,-370 131,-661 393,-879 260,-218 613,-326 1054,-326 z"
   id="path4732"
   inkscape:connector-curvature="0"
   style="fill:#8c8c8c;fill-rule:nonzero" />
   <polygon
   class="fil3"
   points="15767,8521 14796,8521 14796,9045 15767,9045 "
   id="polygon4734"
   style="fill:#8c8c8c;fill-rule:nonzero" />
   <path
   class="fil3"
   d="m 12985,21775 c -169,0 -320,-29 -451,-93 -73,-35 -144,-83 -212,-139 -52,-31 -104,-64 -157,-118 l 0,296 -872,0 0,525 872,0 0,-331 c 112,134 237,230 369,293 131,63 281,93 451,93 254,0 452,-80 586,-243 136,-163 203,-398 203,-703 l 0,-525 c 0,305 -67,539 -203,702 -134,163 -331,243 -586,243 z"
   id="path4736"
   inkscape:connector-curvature="0"
   style="fill:#8c8c8c;fill-rule:nonzero" />
   <path
   class="fil3"
   d="m 9782,21247 c -160,174 -326,308 -499,399 -171,93 -338,137 -501,137 -200,0 -348,-63 -450,-193 -101,-128 -151,-320 -151,-579 l 0,525 c 0,259 51,450 151,579 102,130 251,193 450,193 163,0 329,-44 501,-137 173,-91 338,-225 499,-399 l 0,473 862,0 0,-525 -862,0 0,-473 z"
   id="path4738"
   inkscape:connector-curvature="0"
   style="fill:#8c8c8c;fill-rule:nonzero" />
   <path
   class="fil3"
   d="m 12525,18563 c 116,0 206,37 269,111 61,75 90,185 90,332 l 0,-525 c 0,-147 -29,-257 -90,-332 -63,-74 -153,-111 -269,-111 -40,0 -79,15 -118,27 -84,60 -165,128 -242,215 l 0,456 c 59,-59 118,-105 178,-132 60,-28 122,-41 182,-41 z"
   id="path4740"
   inkscape:connector-curvature="0"
   style="fill:#8c8c8c;fill-rule:nonzero" />
   <polygon
   class="fil3"
   points="6796,17247 7802,17247 7802,16722 6796,16722 "
   id="polygon4742"
   style="fill:#8c8c8c;fill-rule:nonzero" />
   <path
   class="fil3"
   d="m 16439,21504 c -215,223 -538,334 -967,334 -387,0 -691,-118 -913,-355 -221,-236 -333,-562 -333,-980 l 0,525 c 0,417 112,744 333,980 222,237 526,355 913,355 430,0 752,-111 967,-333 219,-225 326,-558 326,-1001 l 0,-221 -20,0 c -39,295 -141,527 -306,697 z"
   id="path4744"
   inkscape:connector-curvature="0"
   style="fill:#8c8c8c;fill-rule:nonzero" />
   <path
   class="fil3"
   d="m 16349,14773 -10821,0 c -1720,0 -3114,1396 -3114,3115 l 0,525 c 0,-1719 1394,-3115 3114,-3115 l 10821,0 c 1720,0 3114,1396 3114,3115 l 0,-525 c 0,-1719 -1395,-3115 -3114,-3115 z"
   id="path4746"
   inkscape:connector-curvature="0"
   style="fill:#8c8c8c;fill-rule:nonzero" />
   <path
   class="fil3"
   d="m 15499,18577 c 131,0 228,40 287,120 49,62 72,167 82,298 l 9,0 0,-435 c 0,-182 -31,-311 -91,-388 -59,-80 -156,-119 -287,-119 -138,0 -235,40 -296,119 -60,77 -89,206 -89,388 l 0,435 8,0 c 9,-131 32,-236 81,-298 61,-80 158,-120 296,-120 z"
   id="path4748"
   inkscape:connector-curvature="0"
   style="fill:#8c8c8c;fill-rule:nonzero" />
   <polygon
   class="fil3"
   points="15115,20191 16765,20191 16765,19666 15115,19666 "
   id="polygon4750"
   style="fill:#8c8c8c;fill-rule:nonzero" />
   <polygon
   class="fil3"
   points="5825,22245 6796,22245 6796,21720 5825,21720 "
   id="polygon4752"
   style="fill:#8c8c8c;fill-rule:nonzero" />
   <polygon
   class="fil3"
   points="5825,16722 4819,16722 4819,17247 5825,17247 "
   id="polygon4754"
   style="fill:#8c8c8c;fill-rule:nonzero" />
  </g>
 </g>
</svg>