<?xml version="1.0" encoding="UTF-8" standalone="no"?>
<!-- Creator: CorelDRAW X6 -->

<svg
   xmlns:dc="http://purl.org/dc/elements/1.1/"
   xmlns:cc="http://creativecommons.org/ns#"
   xmlns:rdf="http://www.w3.org/1999/02/22-rdf-syntax-ns#"
   xmlns:svg="http://www.w3.org/2000/svg"
   xmlns="http://www.w3.org/2000/svg"
   xmlns:sodipodi="http://sodipodi.sourceforge.net/DTD/sodipodi-0.dtd"
   xmlns:inkscape="http://www.inkscape.org/namespaces/inkscape"
   xml:space="preserve"
   width="551.76001"
   height="551.76379"
   version="1.1"
   style="fill-rule:evenodd"
   viewBox="0 0 15571.893 15572.001"
   id="svg4588"
   inkscape:version="0.48.3.1 r9886"
   sodipodi:docname="twitter_shadow.svg"><metadata
   id="metadata4605"><rdf:RDF><cc:Work
       rdf:about=""><dc:format>image/svg+xml</dc:format><dc:type
         rdf:resource="http://purl.org/dc/dcmitype/StillImage" /><dc:title></dc:title></cc:Work></rdf:RDF></metadata><sodipodi:namedview
   pagecolor="#ffffff"
   bordercolor="#666666"
   borderopacity="1"
   objecttolerance="10"
   gridtolerance="10"
   guidetolerance="10"
   inkscape:pageopacity="0"
   inkscape:pageshadow="2"
   inkscape:window-width="1440"
   inkscape:window-height="852"
   id="namedview4603"
   showgrid="false"
   fit-margin-top="0"
   fit-margin-left="0"
   fit-margin-right="0"
   fit-margin-bottom="0"
   inkscape:zoom="0.22425739"
   inkscape:cx="-516.25974"
   inkscape:cy="275.95275"
   inkscape:window-x="0"
   inkscape:window-y="25"
   inkscape:window-maximized="1"
   inkscape:current-layer="svg4588" />
 <defs
   id="defs4590">
  <style
   type="text/css"
   id="style4592">
   
    .fil1 {fill:#8C8C8C;fill-rule:nonzero}
    .fil0 {fill:white;fill-rule:nonzero}
   
  </style>
 </defs>
 <g
   id="Слой_x0020_1"
   transform="translate(-3368.4124,-7065.9995)">
  <metadata
   id="CorelCorpID_0Corel-Layer" />
  <g
   id="_703410432">
   <path
   class="fil0"
   d="m 14944,18749 -3006,0 c -2138,0 -2480,-946 -2480,-1823 0,-416 27,-1103 52,-1944 l 5022,0 c 752,0 2186,-308 2186,-1684 0,-1374 -662,-2275 -1549,-2275 l -5597,0 c -5,-1982 -134,-3957 -2071,-3957 -801,0 -1452,328 -1726,1146 -359,1073 -264,2329 -260,3447 1,212 3,426 4,639 1,732 16,1468 20,2204 3,791 3,1583 3,2374 0,4433 4029,5690 4802,5690 773,0 3800,72 4346,72 547,0 2116,-145 2116,-1733 0,-1587 -1113,-2157 -1864,-2157 z"
   id="path4597"
   inkscape:connector-curvature="0"
   style="fill:#ffffff;fill-rule:nonzero" />
   <path
   class="fil1"
   d="m 14944,18749 -3006,0 c -2011,0 -2433,-836 -2476,-1666 -3,122 -4,234 -4,330 0,877 342,1823 2480,1823 l 3006,0 c 701,0 1708,509 1838,1870 7,-68 26,-125 26,-200 0,-1587 -1113,-2157 -1864,-2157 z"
   id="path4599"
   inkscape:connector-curvature="0"
   style="fill:#8c8c8c;fill-rule:nonzero" />
   <path
   class="fil1"
   d="m 15169,11510 c 812,0 1429,759 1529,1940 4,-53 20,-96 20,-152 0,-1374 -662,-2275 -1549,-2275 l -5597,0 c -5,-1982 -134,-3957 -2071,-3957 -801,0 -1452,328 -1726,1146 -262,783 -282,1663 -272,2516 8,-696 60,-1395 272,-2029 274,-818 924,-1146 1726,-1146 1936,0 2065,1975 2071,3957 l 5597,0 z"
   id="path4601"
   inkscape:connector-curvature="0"
   style="fill:#8c8c8c;fill-rule:nonzero" />
  </g>
 </g>
</svg>