<?xml version="1.0" encoding="UTF-8" standalone="no"?>
<!-- Creator: CorelDRAW X6 -->

<svg
   xmlns:dc="http://purl.org/dc/elements/1.1/"
   xmlns:cc="http://creativecommons.org/ns#"
   xmlns:rdf="http://www.w3.org/1999/02/22-rdf-syntax-ns#"
   xmlns:svg="http://www.w3.org/2000/svg"
   xmlns="http://www.w3.org/2000/svg"
   xmlns:sodipodi="http://sodipodi.sourceforge.net/DTD/sodipodi-0.dtd"
   xmlns:inkscape="http://www.inkscape.org/namespaces/inkscape"
   xml:space="preserve"
   width="428.74014"
   height="428.73999"
   version="1.1"
   style="fill-rule:evenodd"
   viewBox="0 0 12100 12099.996"
   id="svg4265"
   inkscape:version="0.48.3.1 r9886"
   sodipodi:docname="icon-facebook.svg"><metadata
   id="metadata4277"><rdf:RDF><cc:Work
       rdf:about=""><dc:format>image/svg+xml</dc:format><dc:type
         rdf:resource="http://purl.org/dc/dcmitype/StillImage" /><dc:title /></cc:Work></rdf:RDF></metadata><sodipodi:namedview
   pagecolor="#ffffff"
   bordercolor="#666666"
   borderopacity="1"
   objecttolerance="10"
   gridtolerance="10"
   guidetolerance="10"
   inkscape:pageopacity="0"
   inkscape:pageshadow="2"
   inkscape:window-width="640"
   inkscape:window-height="480"
   id="namedview4275"
   showgrid="false"
   fit-margin-top="0"
   fit-margin-left="0"
   fit-margin-right="0"
   fit-margin-bottom="0"
   inkscape:zoom="0.22425739"
   inkscape:cx="232.51181"
   inkscape:cy="172.66535"
   inkscape:window-x="366"
   inkscape:window-y="204"
   inkscape:window-maximized="0"
   inkscape:current-layer="svg4265" />
 <defs
   id="defs4267">
  <style
   type="text/css"
   id="style4269">
   
    .fil0 {fill:#4F4F4F;fill-rule:nonzero}
   
  </style>
 </defs>
 <g
   id="Слой_x0020_1"
   transform="translate(-3938.0001,-7623.0041)">
  <metadata
   id="CorelCorpID_0Corel-Layer" />
  <path
   class="fil0"
   d="m 9988,7624 c -3341,0 -6050,2709 -6050,6050 0,3341 2708,6049 6050,6049 3341,0 6050,-2709 6050,-6049 0,-3341 -2709,-6050 -6050,-6050 z m 1601,6024 0,0 -1047,0 c 0,1674 0,3736 0,3736 l -1553,0 c 0,0 0,-2041 0,-3736 l -739,0 0,-1319 739,0 0,-855 c 0,-612 290,-1567 1567,-1567 l 1150,5 0,1281 c 0,0 -699,0 -835,0 -136,0 -329,68 -329,358 l 0,777 1184,0 -137,1319 z"
   id="path4273"
   inkscape:connector-curvature="0"
   style="fill:#4f4f4f;fill-rule:nonzero" />
 </g>
</svg>