<?xml version="1.0" encoding="UTF-8" standalone="no"?>
<!-- Creator: CorelDRAW X6 -->

<svg
   xmlns:dc="http://purl.org/dc/elements/1.1/"
   xmlns:cc="http://creativecommons.org/ns#"
   xmlns:rdf="http://www.w3.org/1999/02/22-rdf-syntax-ns#"
   xmlns:svg="http://www.w3.org/2000/svg"
   xmlns="http://www.w3.org/2000/svg"
   xmlns:sodipodi="http://sodipodi.sourceforge.net/DTD/sodipodi-0.dtd"
   xmlns:inkscape="http://www.inkscape.org/namespaces/inkscape"
   xml:space="preserve"
   width="420.92429"
   height="248.98819"
   version="1.1"
   style="fill-rule:evenodd"
   viewBox="0 0 11879.419 7027.0002"
   id="svg4607"
   inkscape:version="0.48.3.1 r9886"
   sodipodi:docname="yndex_music.svg"><metadata
   id="metadata4646"><rdf:RDF><cc:Work
       rdf:about=""><dc:format>image/svg+xml</dc:format><dc:type
         rdf:resource="http://purl.org/dc/dcmitype/StillImage" /><dc:title></dc:title></cc:Work></rdf:RDF></metadata><sodipodi:namedview
   pagecolor="#ffffff"
   bordercolor="#666666"
   borderopacity="1"
   objecttolerance="10"
   gridtolerance="10"
   guidetolerance="10"
   inkscape:pageopacity="0"
   inkscape:pageshadow="2"
   inkscape:window-width="640"
   inkscape:window-height="480"
   id="namedview4644"
   showgrid="false"
   fit-margin-top="0"
   fit-margin-left="0"
   fit-margin-right="0"
   fit-margin-bottom="0"
   inkscape:zoom="0.22425739"
   inkscape:cx="151.55531"
   inkscape:cy="200.01968"
   inkscape:window-x="140"
   inkscape:window-y="133"
   inkscape:window-maximized="0"
   inkscape:current-layer="svg4607" />
 <defs
   id="defs4609">
  <style
   type="text/css"
   id="style4611">
   
    .fil0 {fill:#666666;fill-rule:nonzero}
   
  </style>
 </defs>
 <g
   id="Слой_x0020_1"
   transform="translate(-6222.7724,-13468)">
  <metadata
   id="CorelCorpID_0Corel-Layer" />
  <g
   id="_699999760">
   <g
   id="g4616">
    <path
   class="fil0"
   d="m 8155,13468 -633,0 c -621,0 -1149,473 -1149,1392 0,551 255,957 710,1158 l -849,1536 c -28,50 0,89 44,89 l 394,0 c 33,0 56,-11 67,-39 l 771,-1509 277,0 0,1509 c 0,17 17,39 39,39 l 344,0 c 33,0 45,-17 45,-44 l 0,-4075 c 0,-39 -23,-56 -61,-56 z m -366,2272 0,0 -233,0 c -366,0 -722,-267 -722,-936 0,-696 333,-980 671,-980 l 283,0 0,1915 z"
   id="path4618"
   inkscape:connector-curvature="0"
   style="fill:#666666;fill-rule:nonzero" />
    <path
   class="fil0"
   d="m 10241,14852 -344,0 c -28,0 -44,22 -44,39 l 0,1063 -638,0 0,-1063 c 0,-28 -11,-39 -39,-39 l -344,0 c -28,0 -44,17 -44,39 l 0,2706 c 0,28 12,44 39,44 l 350,0 c 22,0 39,-17 39,-44 l 0,-1292 638,0 0,1292 c 0,28 17,44 44,44 l 344,0 c 28,0 39,-22 39,-44 l 0,-2706 c 0,-22 -17,-39 -39,-39 z"
   id="path4620"
   inkscape:connector-curvature="0"
   style="fill:#666666;fill-rule:nonzero" />
    <path
   class="fil0"
   d="m 18098,17463 -45,-189 c -5,-16 -11,-22 -27,-22 -28,0 -178,61 -394,61 -422,0 -627,-406 -627,-1052 0,-568 172,-1131 461,-1131 78,0 172,22 322,162 17,17 28,22 45,22 17,0 33,-12 50,-39 l 150,-245 c 11,-17 17,-34 17,-50 0,-22 -22,-39 -56,-55 -227,-117 -383,-139 -516,-139 -522,0 -927,624 -927,1598 0,840 389,1325 944,1325 233,0 483,-111 583,-184 22,-16 28,-39 22,-61 z"
   id="path4622"
   inkscape:connector-curvature="0"
   style="fill:#666666;fill-rule:nonzero" />
    <path
   class="fil0"
   d="m 15686,16110 666,-1219 c 11,-17 6,-39 -16,-39 l -327,0 c -95,0 -128,33 -161,106 l -500,1041 c -27,61 -55,100 -83,117 l 0,-1225 c 0,-22 -11,-39 -33,-39 l -361,0 c -17,0 -33,17 -33,39 l 0,2711 c 0,17 11,39 33,39 l 361,0 c 22,0 33,-17 33,-39 l 0,-1397 c 16,11 28,28 39,50 l 633,1303 c 33,67 83,83 156,83 l 355,0 c 22,0 28,-22 17,-39 l -777,-1492 z"
   id="path4624"
   inkscape:connector-curvature="0"
   style="fill:#666666;fill-rule:nonzero" />
    <path
   class="fil0"
   d="m 12506,17290 -67,0 c -83,0 -105,-33 -105,-100 l 0,-2299 c 0,-28 -11,-39 -33,-39 l -1110,0 c -28,0 -45,17 -45,39 l 0,201 c 0,673 -39,1542 -394,2199 l -122,0 c -33,0 -45,17 -45,44 0,0 0,668 0,813 0,28 22,39 39,39 l 267,0 c 61,0 83,-44 83,-83 l 0,-462 1188,0 0,507 c 0,22 16,39 39,39 l 283,0 c 33,0 66,-28 66,-83 l 0,-768 c 0,-27 -16,-44 -44,-44 z m -599,0 0,0 -805,0 c 283,-484 394,-1030 433,-1698 11,-145 16,-295 16,-390 l 355,0 0,2088 z"
   id="path4626"
   inkscape:connector-curvature="0"
   style="fill:#666666;fill-rule:nonzero" />
    <path
   class="fil0"
   d="m 13638,14785 c -599,0 -866,757 -866,1581 0,841 378,1342 932,1342 272,0 511,-106 632,-184 22,-11 28,-28 22,-50 l -44,-189 c -6,-22 -17,-33 -45,-33 -22,0 -183,61 -411,61 -427,0 -627,-373 -627,-863 0,-67 0,-132 0,-132 0,0 216,26 344,26 l 811,0 0,-234 c 0,-862 -305,-1324 -749,-1324 z m -61,1208 0,0 c -128,0 -327,22 -327,22 0,0 0,-84 11,-173 50,-473 166,-712 361,-712 177,0 288,245 316,674 6,89 6,189 6,189 l -367,0 z"
   id="path4628"
   inkscape:connector-curvature="0"
   style="fill:#666666;fill-rule:nonzero" />
   </g>
   <g
   id="g4630">
    <path
   class="fil0"
   d="m 8776,18905 244,0 198,551 c 27,81 75,214 99,300 l 4,0 c 25,-81 86,-255 129,-374 l 176,-476 246,0 77,1092 -190,0 -25,-521 c -7,-117 -16,-257 -21,-390 l -7,0 c -29,99 -59,187 -119,354 l -210,551 -144,0 -194,-539 c -34,-104 -81,-262 -108,-363 l -9,0 c -4,129 -11,273 -18,393 l -27,517 -183,0 81,-1092 z"
   id="path4632"
   inkscape:connector-curvature="0"
   style="fill:#666666;fill-rule:nonzero" />
    <path
   class="fil0"
   d="m 10267,18905 239,645 c 25,72 52,158 70,223 l 4,0 c 20,-66 43,-149 70,-228 l 217,-641 210,0 -298,779 c -142,374 -239,566 -375,683 -97,86 -194,120 -244,129 l -50,-167 c 50,-16 115,-47 174,-97 54,-43 122,-119 167,-221 9,-20 16,-36 16,-47 0,-11 -5,-27 -14,-52 l -404,-1006 217,0 z"
   id="path4634"
   inkscape:connector-curvature="0"
   style="fill:#666666;fill-rule:nonzero" />
    <path
   class="fil0"
   d="m 11359,19363 95,0 c 167,0 280,-76 280,-178 0,-97 -88,-158 -212,-158 -88,0 -188,29 -264,77 l -50,-122 c 110,-68 237,-99 363,-99 167,0 370,74 370,286 0,135 -124,223 -246,248 l 0,5 c 163,13 298,113 298,273 0,237 -241,325 -471,325 -129,0 -257,-34 -354,-88 l 52,-133 c 79,43 185,75 289,75 165,0 268,-79 268,-188 0,-146 -153,-187 -318,-187 l -99,0 0,-136 z"
   id="path4636"
   inkscape:connector-curvature="0"
   style="fill:#666666;fill-rule:nonzero" />
    <path
   class="fil0"
   d="m 12432,18905 0,372 c 43,-9 106,-13 178,-13 235,0 471,97 471,365 0,115 -43,194 -113,253 -120,102 -295,126 -440,126 -111,0 -212,-7 -293,-16 l 0,-1088 196,0 z m 0,955 0,0 c 39,4 82,9 138,9 151,0 316,-63 316,-232 0,-176 -158,-230 -307,-230 -56,0 -106,4 -147,11 l 0,442 z m 984,-955 0,0 0,1092 -196,0 0,-1092 196,0 z"
   id="path4638"
   inkscape:connector-curvature="0"
   style="fill:#666666;fill-rule:nonzero" />
    <path
   class="fil0"
   d="m 13937,18905 0,474 47,0 411,-474 241,0 -476,494 c 176,18 282,135 368,332 30,72 68,178 117,266 l -207,0 c -29,-47 -68,-133 -102,-223 -74,-176 -176,-257 -361,-257 l -38,0 0,481 -196,0 0,-1092 196,0 z"
   id="path4640"
   inkscape:connector-curvature="0"
   style="fill:#666666;fill-rule:nonzero" />
    <path
   class="fil0"
   d="m 15611,19735 c 0,95 4,187 18,262 l -180,0 -16,-138 -7,0 c -61,85 -178,162 -334,162 -221,0 -334,-156 -334,-314 0,-264 235,-408 657,-406 l 0,-23 c 0,-90 -25,-253 -248,-253 -101,0 -207,32 -284,81 l -45,-131 c 90,-59 221,-97 359,-97 334,0 415,228 415,447 l 0,408 z m -192,-296 0,0 c -217,-4 -463,34 -463,246 0,129 86,190 187,190 142,0 232,-90 264,-183 7,-20 11,-43 11,-63 l 0,-190 z"
   id="path4642"
   inkscape:connector-curvature="0"
   style="fill:#666666;fill-rule:nonzero" />
   </g>
  </g>
 </g>
</svg>