<?xml version="1.0" encoding="UTF-8" standalone="no"?>
<!-- Creator: CorelDRAW X6 -->

<svg
   xmlns:dc="http://purl.org/dc/elements/1.1/"
   xmlns:cc="http://creativecommons.org/ns#"
   xmlns:rdf="http://www.w3.org/1999/02/22-rdf-syntax-ns#"
   xmlns:svg="http://www.w3.org/2000/svg"
   xmlns="http://www.w3.org/2000/svg"
   xmlns:sodipodi="http://sodipodi.sourceforge.net/DTD/sodipodi-0.dtd"
   xmlns:inkscape="http://www.inkscape.org/namespaces/inkscape"
   xml:space="preserve"
   width="407.62204"
   height="407.62204"
   version="1.1"
   style="fill-rule:evenodd"
   viewBox="0 0 11504 11504"
   id="svg4300"
   inkscape:version="0.48.3.1 r9886"
   sodipodi:docname="google_plus.svg"><metadata
   id="metadata4317"><rdf:RDF><cc:Work
       rdf:about=""><dc:format>image/svg+xml</dc:format><dc:type
         rdf:resource="http://purl.org/dc/dcmitype/StillImage" /><dc:title></dc:title></cc:Work></rdf:RDF></metadata><sodipodi:namedview
   pagecolor="#ffffff"
   bordercolor="#666666"
   borderopacity="1"
   objecttolerance="10"
   gridtolerance="10"
   guidetolerance="10"
   inkscape:pageopacity="0"
   inkscape:pageshadow="2"
   inkscape:window-width="640"
   inkscape:window-height="480"
   id="namedview4315"
   showgrid="false"
   fit-margin-top="0"
   fit-margin-left="0"
   fit-margin-right="0"
   fit-margin-bottom="0"
   inkscape:zoom="0.22425739"
   inkscape:cx="226.91338"
   inkscape:cy="160.72441"
   inkscape:window-x="241"
   inkscape:window-y="174"
   inkscape:window-maximized="0"
   inkscape:current-layer="svg4300" />
 <defs
   id="defs4302">
  <style
   type="text/css"
   id="style4304">
   
    .fil0 {fill:#4F4F4F;fill-rule:nonzero}
   
  </style>
 </defs>
 <g
   id="Слой_x0020_1"
   transform="translate(-4096.0001,-7882)">
  <metadata
   id="CorelCorpID_0Corel-Layer" />
  <g
   id="_699012048">
   <path
   class="fil0"
   d="m 8777,13208 c 147,0 271,-58 367,-167 150,-171 217,-453 177,-752 -70,-534 -451,-977 -850,-989 l -16,0 c -142,0 -267,57 -363,167 -149,169 -212,437 -172,735 70,534 459,994 849,1006 l 6,0 z"
   id="path4309"
   inkscape:connector-curvature="0"
   style="fill:#4f4f4f;fill-rule:nonzero" />
   <path
   class="fil0"
   d="m 9211,14817 c -39,-26 -80,-54 -121,-83 -124,-37 -253,-57 -387,-59 l -17,0 c -613,0 -1151,372 -1151,796 0,460 461,821 1049,821 776,0 1169,-267 1169,-795 0,-50 -6,-102 -18,-153 -53,-205 -240,-333 -525,-527 z"
   id="path4311"
   inkscape:connector-curvature="0"
   style="fill:#4f4f4f;fill-rule:nonzero" />
   <path
   class="fil0"
   d="m 9848,7882 c -3177,0 -5752,2575 -5752,5752 0,3177 2575,5752 5752,5752 3176,0 5752,-2575 5752,-5752 0,-3176 -2576,-5752 -5752,-5752 z m -523,8882 0,0 c -230,66 -477,100 -736,100 -290,0 -568,-33 -827,-99 -502,-126 -874,-367 -1047,-677 -75,-134 -113,-276 -113,-424 0,-153 37,-307 109,-459 275,-587 1000,-981 1803,-981 9,0 16,0 24,0 -66,-115 -97,-234 -97,-359 0,-63 8,-127 25,-190 -843,-20 -1474,-637 -1474,-1450 0,-575 459,-1134 1115,-1361 197,-68 398,-103 595,-103 l 1801,0 c 61,0 116,40 135,98 19,59 -2,123 -52,159 l -403,291 c -24,18 -53,27 -84,27 l -144,0 c 187,224 296,541 296,900 0,394 -200,768 -563,1052 -281,218 -292,278 -292,404 4,69 200,292 414,445 503,355 690,703 690,1286 0,607 -462,1133 -1176,1340 z m 4069,-3091 0,0 c 0,78 -64,142 -142,142 l -1024,0 0,1024 c 0,78 -64,142 -142,142 l -292,0 c -78,0 -142,-64 -142,-142 l 0,-1024 -1024,0 c -78,0 -141,-64 -141,-142 l 0,-292 c 0,-78 63,-142 141,-142 l 1024,0 0,-1024 c 0,-79 64,-142 142,-142 l 292,0 c 78,0 142,64 142,142 l 0,1024 1024,0 c 78,0 142,64 142,142 l 0,292 z"
   id="path4313"
   inkscape:connector-curvature="0"
   style="fill:#4f4f4f;fill-rule:nonzero" />
  </g>
 </g>
</svg>