<?xml version="1.0" encoding="UTF-8" standalone="no"?>
<!-- Creator: CorelDRAW X6 -->

<svg
   xmlns:dc="http://purl.org/dc/elements/1.1/"
   xmlns:cc="http://creativecommons.org/ns#"
   xmlns:rdf="http://www.w3.org/1999/02/22-rdf-syntax-ns#"
   xmlns:svg="http://www.w3.org/2000/svg"
   xmlns="http://www.w3.org/2000/svg"
   xmlns:sodipodi="http://sodipodi.sourceforge.net/DTD/sodipodi-0.dtd"
   xmlns:inkscape="http://www.inkscape.org/namespaces/inkscape"
   xml:space="preserve"
   width="502.05118"
   height="502.04999"
   version="1.1"
   style="fill-rule:evenodd"
   viewBox="0 0 14169 14168.966"
   id="svg4319"
   inkscape:version="0.48.3.1 r9886"
   sodipodi:docname="google_plus_shadow.svg"><metadata
   id="metadata4364"><rdf:RDF><cc:Work
       rdf:about=""><dc:format>image/svg+xml</dc:format><dc:type
         rdf:resource="http://purl.org/dc/dcmitype/StillImage" /><dc:title></dc:title></cc:Work></rdf:RDF></metadata><sodipodi:namedview
   pagecolor="#ffffff"
   bordercolor="#666666"
   borderopacity="1"
   objecttolerance="10"
   gridtolerance="10"
   guidetolerance="10"
   inkscape:pageopacity="0"
   inkscape:pageshadow="2"
   inkscape:window-width="1440"
   inkscape:window-height="852"
   id="namedview4362"
   showgrid="false"
   fit-margin-top="0"
   fit-margin-left="0"
   fit-margin-right="0"
   fit-margin-bottom="0"
   inkscape:zoom="0.22425739"
   inkscape:cx="-449.691"
   inkscape:cy="233.8937"
   inkscape:window-x="0"
   inkscape:window-y="25"
   inkscape:window-maximized="1"
   inkscape:current-layer="svg4319" />
 <defs
   id="defs4321">
  <style
   type="text/css"
   id="style4323">
   
    .fil0 {fill:none;fill-rule:nonzero}
    .fil2 {fill:#8C8C8C;fill-rule:nonzero}
    .fil1 {fill:white;fill-rule:nonzero}
   
  </style>
 </defs>
 <g
   id="Слой_x0020_1"
   transform="translate(-3622,-8003.017)">
  <metadata
   id="CorelCorpID_0Corel-Layer" />
  <g
   id="_702880592">
   <g
   id="g4328">
    <path
   class="fil0"
   d="m 8147,13829 13,0 c 306,0 564,-121 765,-349 215,-245 340,-602 376,-1001 -3,-46 0,-90 -6,-136 -146,-1114 -941,-2039 -1772,-2063 l -33,0 c -294,0 -556,120 -755,348 -211,240 -331,580 -366,965 4,47 1,91 7,139 145,1112 957,2073 1771,2098 z"
   id="path4330"
   inkscape:connector-curvature="0"
   style="fill:none" />
   </g>
   <g
   id="g4332">
    <path
   class="fil0"
   d="m 9066,17613 c -82,-55 -166,-113 -254,-174 -256,-78 -528,-120 -806,-123 l -35,0 c -1186,0 -2224,667 -2372,1467 145,843 1036,1476 2159,1476 1496,0 2301,-483 2416,-1422 -6,-43 -5,-83 -15,-126 -109,-428 -500,-694 -1093,-1098 z"
   id="path4334"
   inkscape:connector-curvature="0"
   style="fill:none" />
   </g>
   <g
   id="g4336">
    <path
   class="fil1"
   d="m 17495,13893 -2136,0 0,-2136 c 0,-163 -132,-296 -295,-296 l -608,0 c -163,0 -296,133 -296,296 l 0,2136 -2136,0 c -163,0 -296,133 -296,296 l 0,608 c 0,164 133,296 296,296 l 2136,0 0,2136 c 0,163 132,296 296,296 l 608,0 c 163,0 295,-132 295,-296 l 0,-2136 2136,0 c 163,0 296,-132 296,-296 l 0,-608 c 0,-163 -133,-296 -296,-296 z"
   id="path4338"
   inkscape:connector-curvature="0"
   style="fill:#ffffff;fill-rule:nonzero" />
    <path
   class="fil1"
   d="m 10317,15765 c -449,-318 -859,-784 -865,-927 0,-262 24,-386 609,-842 758,-594 1174,-1372 1174,-2196 0,-746 -227,-1409 -616,-1875 l 301,0 c 61,0 123,-19 173,-56 l 841,-608 c 104,-75 147,-208 107,-330 -40,-122 -153,-205 -281,-205 l -3758,0 c -411,0 -829,73 -1239,214 -1370,472 -2327,1640 -2327,2837 0,1697 1315,2984 3072,3025 -34,134 -51,266 -51,396 0,262 67,510 203,749 -16,0 -32,0 -49,0 -1675,0 -3188,822 -3762,2046 -149,318 -226,639 -226,957 0,309 80,606 235,885 361,645 1136,1146 2183,1410 541,136 1121,206 1724,206 542,0 1059,-70 1537,-208 1490,-433 2453,-1529 2453,-2795 0,-1215 -391,-1942 -1438,-2684 z m -4747,2781 0,0 c 0,-884 1122,-1659 2402,-1659 l 35,0 c 278,3 550,44 806,123 88,61 173,118 254,174 593,404 984,670 1093,1098 26,108 39,215 39,319 0,1100 -821,1658 -2439,1658 -1227,0 -2188,-753 -2188,-1714 z m 1165,-8349 0,0 c 199,-228 461,-348 755,-348 l 33,0 c 831,24 1626,950 1772,2063 82,624 -57,1209 -370,1567 -200,229 -458,349 -765,349 l -13,0 c -814,-25 -1626,-986 -1771,-2098 -82,-621 49,-1180 359,-1533 z"
   id="path4340"
   inkscape:connector-curvature="0"
   style="fill:#ffffff;fill-rule:nonzero" />
   </g>
   <path
   class="fil2"
   d="m 15359,11757 c 0,-163 -132,-296 -295,-296 l -608,0 c -163,0 -296,133 -296,296 l 0,429 c 0,-163 132,-296 296,-296 l 608,0 c 163,0 295,133 295,296 l 0,-429 z"
   id="path4342"
   inkscape:connector-curvature="0"
   style="fill:#8c8c8c;fill-rule:nonzero" />
   <path
   class="fil2"
   d="m 7659,16376 c -78,-137 -127,-278 -160,-423 -1630,36 -3089,843 -3651,2039 -149,318 -226,639 -226,957 0,69 18,136 27,205 27,-244 85,-490 199,-733 574,-1224 2087,-2046 3762,-2046 l 49,0 z"
   id="path4344"
   inkscape:connector-curvature="0"
   style="fill:#8c8c8c;fill-rule:nonzero" />
   <path
   class="fil2"
   d="m 7758,20260 c -1122,0 -2013,-633 -2159,-1476 -12,64 -30,126 -30,191 0,961 962,1714 2188,1714 1619,0 2439,-558 2439,-1658 0,-63 -14,-129 -24,-193 -115,940 -920,1422 -2416,1422 z"
   id="path4346"
   inkscape:connector-curvature="0"
   style="fill:#8c8c8c;fill-rule:nonzero" />
   <path
   class="fil2"
   d="m 11728,14189 0,429 c 0,-163 133,-296 296,-296 l 2136,0 0,-429 -2136,0 c -163,0 -296,133 -296,296 z"
   id="path4348"
   inkscape:connector-curvature="0"
   style="fill:#8c8c8c;fill-rule:nonzero" />
   <path
   class="fil2"
   d="m 10317,15765 c -355,-251 -681,-592 -807,-796 -51,98 -58,186 -58,298 7,143 416,609 865,927 959,679 1363,1349 1425,2389 3,-45 13,-89 13,-135 0,-1215 -391,-1942 -1438,-2684 z"
   id="path4350"
   inkscape:connector-curvature="0"
   style="fill:#8c8c8c;fill-rule:nonzero" />
   <path
   class="fil2"
   d="m 11219,12035 c 8,-78 15,-156 15,-235 0,-541 -123,-1036 -337,-1446 l -280,0 c 354,424 565,1016 601,1681 z"
   id="path4352"
   inkscape:connector-curvature="0"
   style="fill:#8c8c8c;fill-rule:nonzero" />
   <path
   class="fil2"
   d="m 8160,14258 c 306,0 564,-121 765,-349 290,-331 422,-859 376,-1430 -36,399 -162,756 -376,1001 -200,229 -458,349 -765,349 l -13,0 c -814,-25 -1626,-986 -1771,-2098 -6,-48 -3,-92 -7,-139 -16,181 -19,370 7,568 145,1112 957,2073 1771,2098 l 13,0 z"
   id="path4354"
   inkscape:connector-curvature="0"
   style="fill:#8c8c8c;fill-rule:nonzero" />
   <path
   class="fil2"
   d="m 7508,15230 c -16,0 -31,-5 -48,-6 1,63 15,124 24,186 8,-60 8,-120 24,-181 z"
   id="path4356"
   inkscape:connector-curvature="0"
   style="fill:#8c8c8c;fill-rule:nonzero" />
   <path
   class="fil2"
   d="m 6763,9368 c 410,-141 828,-214 1239,-214 l 3758,0 c 75,0 139,34 192,81 86,-77 126,-193 89,-306 -40,-122 -153,-205 -281,-205 l -3758,0 c -411,0 -829,73 -1239,214 -1370,472 -2327,1640 -2327,2837 0,74 16,143 21,216 106,-1121 1019,-2180 2306,-2624 z"
   id="path4358"
   inkscape:connector-curvature="0"
   style="fill:#8c8c8c;fill-rule:nonzero" />
   <path
   class="fil2"
   d="m 17495,13893 -2136,0 0,429 2136,0 c 163,0 296,133 296,296 l 0,-429 c 0,-163 -133,-296 -296,-296 z"
   id="path4360"
   inkscape:connector-curvature="0"
   style="fill:#8c8c8c;fill-rule:nonzero" />
  </g>
 </g>
</svg>