<?xml version="1.0" encoding="UTF-8" standalone="no"?>
<!-- Created with Inkscape (http://www.inkscape.org/) -->

<svg
   xmlns:dc="http://purl.org/dc/elements/1.1/"
   xmlns:cc="http://creativecommons.org/ns#"
   xmlns:rdf="http://www.w3.org/1999/02/22-rdf-syntax-ns#"
   xmlns:svg="http://www.w3.org/2000/svg"
   xmlns="http://www.w3.org/2000/svg"
   version="1.1"
   width="523.125"
   height="55.983295"
   viewBox="0 0 14763.75 1579.973"
   id="svg4483"
   xml:space="preserve"
   style="fill-rule:evenodd"><metadata
   id="metadata4572"><rdf:RDF><cc:Work
       rdf:about=""><dc:format>image/svg+xml</dc:format><dc:type
         rdf:resource="http://purl.org/dc/dcmitype/StillImage" /><dc:title></dc:title></cc:Work></rdf:RDF></metadata>
 <defs
   id="defs4485">
  <style
   type="text/css"
   id="style4487" />
 </defs>
 <g
   transform="translate(-2917.0001,-8918.625)"
   id="Слой_x0020_1">
  <metadata
   id="CorelCorpID_0Corel-Layer" />
  <g
   id="_695930336">
   <g
   id="g4492">
    <g
   id="g4494">
     <path
   d="m 16423,9343 c -24,0 -43,-10 -55,-30 -12,-20 -15,-45 -8,-73 7,-29 22,-53 45,-73 23,-20 47,-30 71,-30 24,0 43,10 55,30 12,20 15,45 8,73 -7,28 -21,53 -44,73 -22,20 -47,30 -72,30 z"
   id="path4496"
   style="fill:#000000;fill-rule:nonzero" />
     <path
   d="m 15390,9168 c 9,-19 19,-37 29,-55 10,-18 19,-33 28,-47 9,-15 19,-28 28,-41 4,-4 6,-8 6,-12 0,-9 -7,-16 -22,-18 -11,-1 -24,-2 -41,-2 l -56,0 c -23,0 -50,1 -83,2 -5,1 -11,3 -16,6 -11,4 -23,13 -37,26 -26,26 -55,59 -89,99 -33,40 -67,82 -103,127 -35,45 -70,90 -104,134 -34,45 -65,86 -92,122 -27,37 -49,66 -66,89 -17,23 -25,35 -25,37 -10,8 -16,9 -20,2 -3,-3 -4,-7 -4,-12 -1,-14 -3,-32 -5,-55 -2,-23 -4,-49 -6,-78 -2,-29 -5,-60 -7,-94 -3,-33 -5,-66 -6,-99 -5,-76 -11,-158 -16,-246 0,-16 -2,-28 -7,-37 -5,-8 -10,-14 -15,-16 -6,-4 -12,-6 -20,-6 -33,-1 -61,-2 -85,-2 l -60,0 c -19,0 -35,1 -49,2 -15,3 -22,9 -22,18 0,4 2,8 6,12 8,15 15,31 20,47 4,15 7,32 9,51 2,19 1,39 -3,61 -4,15 -9,33 -16,55 -7,19 -15,42 -25,70 -10,28 -23,61 -40,99 -22,49 -45,102 -71,159 -26,57 -52,113 -78,169 -27,56 -52,108 -77,158 -25,50 -48,91 -68,125 -22,35 -43,69 -65,100 -19,27 -39,54 -60,79 -21,26 -40,45 -58,57 -5,4 -9,9 -10,14 -3,11 3,17 18,18 35,-7 71,-19 106,-37 30,-15 61,-36 95,-63 33,-27 62,-64 86,-110 34,-65 69,-141 104,-227 35,-86 67,-169 96,-249 34,-92 66,-187 98,-283 l 8,-8 c 3,-1 5,-2 6,-2 1,0 2,3 2,10 4,94 8,184 12,273 1,38 3,77 5,117 2,40 4,79 5,117 1,38 3,74 4,108 1,34 2,64 2,90 1,3 3,5 6,8 6,5 9,8 12,8 12,0 22,-8 30,-24 61,-96 124,-190 187,-281 27,-38 56,-78 85,-119 30,-41 60,-81 91,-120 31,-39 61,-75 91,-110 30,-35 58,-65 86,-93 5,-4 11,-7 16,-8 11,-3 14,2 8,14 -45,98 -85,191 -122,281 -16,38 -32,77 -47,117 -15,40 -29,79 -43,116 -14,37 -25,72 -34,105 -9,33 -15,60 -19,83 -11,56 -15,111 -12,167 1,47 9,99 22,155 13,56 38,107 73,155 7,8 13,14 17,16 5,3 8,5 11,6 4,1 7,1 10,-2 4,-2 6,-6 6,-14 0,-4 -1,-8 -2,-12 -10,-43 -13,-89 -10,-135 3,-47 7,-90 14,-129 7,-46 17,-92 30,-138 11,-42 24,-87 40,-134 16,-47 33,-96 51,-146 18,-50 37,-100 57,-150 20,-50 39,-97 58,-144 45,-107 92,-216 140,-326 z m 2283,297 0,0 -4,-4 c -19,-9 -40,-16 -64,-19 -24,-3 -46,-4 -68,-3 -24,1 -50,4 -77,8 -56,11 -100,27 -132,49 -33,22 -58,43 -75,65 -20,24 -35,51 -43,79 -5,16 -7,33 -4,49 3,15 8,32 15,51 8,19 22,39 44,59 19,19 36,38 51,57 14,16 27,34 41,52 14,18 24,35 33,50 9,22 14,44 14,67 0,19 -5,40 -15,63 -10,23 -30,46 -60,69 -16,11 -33,19 -49,24 -15,5 -31,9 -48,10 -17,1 -34,-3 -52,-12 -14,-5 -24,-15 -33,-29 -8,-11 -15,-26 -19,-45 -5,-19 -5,-43 -1,-73 3,-15 6,-30 10,-45 3,-14 7,-28 12,-43 5,-15 13,-30 22,-45 1,-3 2,-6 2,-8 0,-6 -3,-8 -10,-8 -7,1 -13,4 -18,8 -7,3 -14,6 -20,11 -7,5 -14,10 -22,17 -28,26 -53,54 -73,83 -13,19 -24,39 -33,60 -16,15 -29,26 -40,33 -19,14 -35,20 -49,20 -15,0 -25,-4 -30,-11 -5,-7 -6,-17 -5,-27 1,-12 5,-26 12,-41 3,-7 8,-19 15,-37 7,-18 16,-38 27,-62 10,-24 21,-50 34,-78 12,-29 24,-57 37,-86 29,-66 60,-140 94,-220 5,-12 11,-23 16,-34 5,-10 9,-19 12,-27 4,-8 7,-16 10,-24 1,-5 0,-10 -4,-12 -3,-1 -5,-2 -8,-2 -38,-1 -76,5 -114,18 -14,7 -26,14 -37,22 -5,4 -9,8 -10,12 -1,3 -3,5 -6,8 -3,3 -7,9 -12,20 -22,49 -39,88 -52,117 -13,29 -23,52 -32,68 l -20,41 c -39,81 -78,145 -116,190 -38,46 -67,78 -87,99 -20,20 -37,31 -51,32 -8,3 -16,3 -22,0 -12,-1 -20,-5 -23,-12 -3,-7 -5,-15 -5,-25 0,-9 2,-21 6,-34 7,-22 17,-50 32,-86 14,-35 29,-71 44,-106 16,-41 35,-83 55,-126 8,-19 16,-37 22,-53 7,-16 14,-31 20,-45 7,-15 14,-30 20,-45 5,-12 10,-23 15,-34 5,-10 8,-19 11,-26 4,-8 7,-15 10,-20 1,-8 1,-13 -2,-14 l -8,-4 c -20,0 -39,1 -57,4 -18,3 -37,8 -57,16 -15,5 -28,12 -39,20 -5,4 -10,8 -12,12 l -4,8 c -1,3 -3,6 -5,9 -2,3 -5,7 -7,11 -4,8 -10,20 -17,36 -7,16 -16,34 -24,55 -9,21 -19,44 -29,68 -11,24 -21,49 -31,73 -25,57 -50,119 -77,187 -8,18 -15,36 -20,53 -33,43 -64,73 -92,91 -11,7 -20,12 -29,14 -8,3 -15,5 -20,6 -6,1 -11,1 -16,0 -10,-1 -16,-5 -19,-12 -3,-7 -4,-14 -3,-22 0,-10 2,-20 6,-31 l 8,-20 c 30,-70 58,-136 83,-197 26,-61 48,-113 67,-157 22,-52 41,-98 59,-141 5,-12 11,-23 15,-34 5,-10 8,-19 11,-26 4,-8 7,-16 10,-24 3,-4 2,-8 -2,-12 -3,-1 -5,-1 -6,0 -20,-1 -40,-1 -58,2 -18,3 -37,8 -56,16 -8,3 -15,7 -21,11 -6,5 -11,9 -15,11 l -12,12 -4,8 c -1,3 -3,5 -5,8 -2,3 -4,6 -7,10 -8,15 -22,44 -41,87 -19,43 -40,90 -62,140 -22,51 -44,102 -65,153 -9,21 -17,41 -24,58 -21,28 -40,52 -57,70 -24,25 -43,44 -58,56 -18,15 -33,24 -47,26 -19,5 -32,5 -39,-1 -7,-6 -10,-14 -10,-23 -1,-11 1,-24 8,-39 11,-25 24,-56 39,-94 15,-38 30,-75 45,-110 16,-42 35,-85 55,-128 31,-73 63,-148 97,-224 33,-76 63,-147 91,-212 33,-75 64,-148 94,-220 6,-12 10,-23 14,-34 4,-10 7,-19 10,-25 4,-8 7,-16 10,-22 3,-6 2,-10 -2,-14 -3,-1 -5,-2 -6,-2 -20,-1 -39,0 -57,3 -18,3 -36,8 -55,15 -18,9 -31,17 -39,22 -5,4 -10,8 -12,12 l -4,8 c -1,3 -3,6 -5,9 -2,3 -5,7 -7,11 -4,8 -10,20 -17,36 -7,16 -16,34 -25,55 -10,21 -20,44 -31,68 -11,24 -22,49 -33,73 -24,57 -51,119 -79,187 -18,39 -35,82 -53,126 -16,38 -34,81 -54,128 -20,47 -40,95 -60,142 -10,22 -20,44 -29,65 -33,53 -66,94 -97,122 -32,29 -61,50 -86,65 -30,16 -58,26 -85,29 -23,3 -42,1 -58,-5 -16,-6 -28,-15 -38,-25 -10,-11 -16,-24 -19,-39 -3,-15 -5,-30 -5,-45 -1,-35 6,-77 22,-124 3,-3 5,-4 6,-4 l 4,0 c 45,-4 87,-13 126,-28 39,-15 74,-31 104,-47 35,-19 67,-40 96,-63 43,-34 73,-66 90,-98 16,-31 26,-59 29,-83 4,-28 1,-56 -8,-81 -15,-27 -36,-45 -63,-53 -27,-8 -54,-11 -82,-8 -31,3 -64,10 -97,20 -46,18 -87,40 -124,67 -36,27 -69,57 -97,90 -28,33 -53,66 -73,101 -20,35 -37,67 -51,97 -30,69 -47,132 -53,189 -3,24 -3,49 0,73 3,24 9,47 19,68 10,21 25,39 45,54 20,15 46,25 78,31 43,5 88,2 134,-10 39,-11 82,-30 130,-56 31,-17 62,-42 92,-73 -1,4 -2,7 -2,11 -5,29 -5,54 0,75 5,19 16,34 33,47 16,12 44,15 83,8 31,-7 64,-20 98,-39 29,-16 60,-39 95,-69 6,-5 12,-11 18,-17 0,1 -1,3 -1,4 -4,13 -5,24 -4,34 0,20 3,38 10,53 7,14 18,25 33,35 15,9 37,12 67,8 26,-1 54,-9 85,-24 27,-12 58,-32 93,-59 14,-11 29,-24 44,-39 -1,24 2,47 9,68 9,26 31,40 66,43 27,4 57,-1 90,-14 27,-11 59,-31 95,-60 36,-29 74,-74 115,-133 3,-3 5,-4 6,-4 3,0 3,3 2,8 -1,1 -3,4 -4,8 -1,4 -5,13 -10,26 -7,19 -13,39 -17,60 -5,21 -5,40 -1,56 3,16 9,30 20,41 9,10 23,16 42,20 18,4 45,1 78,-8 30,-12 61,-28 94,-49 14,-9 29,-20 45,-32 1,12 3,24 6,36 8,19 22,35 41,49 16,11 39,20 69,27 30,7 70,6 120,-3 43,-7 86,-20 126,-39 35,-16 71,-39 107,-69 36,-30 67,-69 93,-118 16,-33 22,-64 18,-95 -4,-30 -12,-57 -24,-80 -15,-27 -34,-53 -57,-77 -8,-9 -18,-21 -28,-35 -11,-13 -22,-26 -33,-39 -12,-15 -24,-30 -37,-45 -12,-15 -19,-30 -19,-45 -1,-15 0,-28 3,-39 4,-13 11,-26 20,-39 15,-15 30,-25 45,-30 15,-5 28,-9 41,-10 15,-1 29,-1 43,2 15,4 27,14 36,29 9,15 16,30 21,45 5,19 9,39 10,61 0,8 2,14 6,18 1,3 3,4 4,4 1,1 5,-1 10,-6 1,-3 3,-5 6,-6 11,-23 21,-45 30,-65 9,-20 17,-38 23,-53 7,-18 12,-34 16,-49 1,-5 1,-10 0,-14 z m -2251,371 0,0 c 24,-54 49,-104 75,-149 23,-39 48,-77 77,-114 28,-37 58,-61 89,-73 5,-3 11,-4 16,-4 11,0 19,6 24,16 4,9 5,22 2,39 -3,15 -9,34 -19,56 -10,22 -27,51 -50,86 -17,26 -37,50 -59,71 -19,19 -41,36 -66,52 -25,16 -53,25 -84,27 -4,0 -6,-1 -6,-4 l 0,-4 z"
   id="path4498"
   style="fill:#000000;fill-rule:nonzero" />
    </g>
    <g
   id="g4500">
     <path
   d="m 16404,9304 c -24,0 -43,-10 -55,-30 -12,-20 -15,-45 -8,-73 7,-29 22,-53 45,-73 23,-20 47,-30 71,-30 24,0 43,10 55,30 12,20 15,45 8,73 -7,28 -21,53 -44,73 -22,20 -47,30 -72,30 z"
   id="path4502"
   style="fill:#676767;fill-rule:nonzero" />
     <path
   d="m 15371,9129 c 9,-19 19,-37 29,-55 10,-18 19,-33 28,-47 9,-15 19,-29 28,-41 4,-4 6,-8 6,-12 0,-9 -7,-16 -22,-18 -11,-1 -24,-2 -41,-2 l -56,0 c -23,0 -50,1 -83,2 -5,1 -11,3 -16,6 -11,4 -23,13 -37,26 -26,26 -55,59 -89,99 -33,40 -67,82 -103,127 -35,45 -70,90 -104,134 -34,45 -65,86 -92,122 -27,37 -49,66 -66,89 -17,23 -25,35 -25,37 -10,8 -16,9 -20,2 -3,-3 -4,-7 -4,-12 -1,-14 -3,-32 -5,-55 -2,-23 -4,-49 -6,-78 -2,-29 -4,-60 -7,-94 -3,-33 -5,-66 -6,-99 -5,-76 -11,-158 -16,-246 0,-16 -2,-29 -7,-37 -5,-8 -10,-14 -15,-16 -6,-4 -12,-6 -20,-6 -33,-1 -61,-2 -85,-2 l -60,0 c -19,0 -35,1 -49,2 -15,3 -22,9 -22,18 0,4 2,8 6,12 8,15 15,31 20,47 4,15 7,32 9,51 2,19 1,39 -3,61 -4,15 -9,33 -16,55 -7,19 -15,42 -25,70 -10,28 -23,61 -40,99 -22,49 -45,102 -71,159 -26,57 -52,113 -78,169 -27,56 -52,108 -77,158 -25,50 -48,91 -68,125 -22,35 -43,69 -65,100 -19,27 -39,54 -60,79 -21,26 -40,45 -58,57 -5,4 -9,9 -10,14 -3,11 3,17 18,18 35,-7 71,-19 106,-37 30,-15 61,-36 95,-63 33,-27 62,-64 86,-110 34,-65 69,-141 104,-227 35,-86 67,-169 96,-249 34,-92 66,-187 98,-283 l 8,-8 c 3,-1 5,-2 6,-2 1,0 2,3 2,10 4,94 8,184 12,273 1,38 3,77 5,117 2,40 4,79 5,117 1,38 3,74 4,108 1,34 2,64 2,90 1,3 3,5 6,8 6,5 9,8 12,8 12,0 22,-8 30,-24 61,-96 124,-190 187,-281 27,-38 56,-78 85,-119 30,-41 60,-81 91,-120 31,-39 61,-75 91,-110 30,-35 58,-65 86,-93 5,-4 11,-7 16,-8 11,-3 14,2 8,14 -45,98 -85,191 -122,281 -16,38 -32,77 -47,117 -15,40 -29,79 -43,116 -14,37 -25,72 -34,105 -9,33 -15,60 -19,83 -11,56 -15,111 -12,167 1,47 9,99 22,155 13,56 38,107 73,155 7,8 13,14 17,16 5,3 8,5 11,6 4,1 7,1 10,-2 4,-1 6,-6 6,-14 0,-4 -1,-8 -2,-12 -10,-43 -13,-89 -10,-135 3,-47 7,-90 14,-129 7,-46 17,-92 30,-138 11,-42 24,-87 40,-134 16,-47 33,-96 51,-147 18,-50 37,-100 57,-150 20,-50 39,-97 58,-144 45,-107 92,-216 140,-326 z m 2283,297 0,0 -4,-4 c -19,-9 -40,-16 -64,-19 -24,-3 -46,-4 -68,-3 -24,1 -50,4 -77,8 -56,11 -100,27 -132,49 -33,22 -58,43 -75,65 -20,24 -34,51 -43,79 -5,16 -7,33 -4,49 3,15 8,32 15,51 8,19 22,39 44,59 19,19 36,38 51,57 14,16 27,34 41,52 14,18 24,35 33,50 9,22 14,44 14,67 0,19 -5,40 -15,63 -10,23 -30,46 -60,69 -16,11 -33,19 -49,24 -15,5 -31,9 -48,10 -17,1 -34,-3 -52,-12 -14,-5 -25,-15 -33,-29 -8,-11 -15,-26 -19,-45 -5,-19 -5,-43 -1,-73 3,-15 6,-30 10,-45 3,-14 7,-28 12,-43 5,-15 13,-30 22,-45 1,-3 2,-6 2,-8 0,-6 -3,-8 -10,-8 -7,1 -13,4 -18,8 -7,3 -14,6 -20,11 -7,5 -14,10 -22,17 -28,26 -53,54 -73,83 -13,19 -24,39 -33,60 -16,15 -29,26 -40,33 -19,14 -35,20 -49,20 -15,0 -25,-4 -30,-11 -5,-7 -6,-17 -5,-27 1,-12 5,-26 12,-41 3,-7 8,-19 15,-37 7,-18 16,-38 27,-62 10,-24 21,-50 34,-78 12,-29 25,-57 37,-86 29,-66 60,-140 94,-220 5,-12 11,-23 16,-34 5,-10 9,-19 12,-27 4,-8 7,-16 10,-24 1,-5 0,-10 -4,-12 -3,-1 -5,-2 -8,-2 -38,-1 -76,5 -114,18 -14,7 -26,14 -37,22 -5,4 -9,8 -10,12 -1,3 -3,5 -6,8 -3,3 -7,9 -12,20 -22,49 -39,88 -52,117 -13,29 -23,52 -32,68 l -20,41 c -39,81 -78,145 -116,190 -38,46 -67,78 -88,99 -20,20 -37,31 -51,32 -8,3 -16,3 -22,0 -12,-1 -20,-5 -23,-12 -3,-7 -5,-15 -5,-25 0,-9 2,-21 6,-34 7,-22 17,-50 32,-86 14,-35 29,-71 44,-106 16,-41 35,-83 55,-126 8,-19 16,-37 22,-53 7,-16 14,-31 20,-45 7,-15 14,-30 20,-45 5,-12 10,-23 15,-34 5,-10 8,-19 11,-26 4,-8 7,-15 10,-20 1,-8 1,-13 -2,-14 l -8,-4 c -20,0 -39,1 -57,4 -18,3 -37,8 -57,16 -15,5 -28,12 -39,20 -5,4 -10,8 -12,12 l -4,8 c -1,3 -3,6 -5,9 -2,3 -4,7 -7,11 -4,8 -10,20 -17,36 -7,16 -15,34 -24,55 -9,21 -19,44 -29,68 -11,24 -21,49 -31,73 -25,57 -50,119 -77,187 -8,18 -15,36 -20,53 -33,43 -64,73 -92,91 -11,7 -20,12 -29,14 -8,3 -15,5 -20,6 -6,1 -11,1 -16,0 -10,-1 -16,-5 -19,-12 -3,-7 -4,-14 -3,-22 0,-10 2,-20 6,-31 l 8,-20 c 30,-71 58,-136 83,-197 26,-61 48,-113 67,-157 22,-52 41,-98 59,-141 5,-12 11,-23 15,-34 5,-10 9,-19 11,-26 4,-8 7,-16 10,-24 3,-4 2,-8 -2,-12 -3,-1 -5,-1 -6,0 -20,-1 -40,-1 -58,2 -18,3 -37,8 -56,16 -8,3 -15,7 -21,11 -6,5 -11,9 -15,11 l -12,12 -4,8 c -1,3 -3,5 -5,8 -2,3 -4,6 -7,10 -8,15 -22,44 -41,87 -19,43 -40,90 -62,140 -22,51 -44,102 -65,153 -9,21 -17,41 -24,58 -21,28 -40,52 -57,70 -24,25 -43,44 -58,56 -18,15 -33,24 -47,26 -19,5 -32,5 -39,-1 -7,-6 -10,-14 -10,-23 -2,-11 1,-24 8,-39 11,-25 24,-56 39,-94 15,-38 30,-75 45,-110 16,-42 35,-85 55,-128 31,-73 63,-148 97,-224 33,-76 63,-146 91,-212 33,-75 64,-148 94,-220 6,-12 10,-23 14,-34 4,-10 7,-19 10,-25 4,-8 7,-16 10,-22 3,-6 2,-10 -2,-14 -3,-1 -5,-2 -6,-2 -20,-1 -39,0 -57,3 -18,3 -36,8 -55,15 -18,9 -31,17 -39,22 -5,4 -10,8 -12,12 l -4,8 c -1,3 -3,6 -5,9 -2,3 -4,7 -7,11 -4,8 -10,20 -17,36 -7,16 -16,34 -25,55 -10,21 -20,44 -31,68 -11,25 -22,49 -33,73 -24,57 -51,119 -79,187 -18,39 -35,82 -53,126 -16,38 -34,81 -54,128 -20,47 -40,95 -60,142 -10,22 -20,44 -29,65 -33,53 -66,94 -97,122 -32,28 -61,50 -86,65 -30,16 -58,26 -85,29 -23,3 -42,1 -58,-5 -15,-6 -28,-15 -37,-25 -10,-11 -16,-24 -19,-39 -3,-15 -5,-30 -5,-45 -1,-35 6,-77 22,-124 3,-3 5,-4 6,-4 l 4,0 c 45,-4 87,-13 126,-28 39,-15 74,-31 104,-47 35,-19 67,-40 96,-63 43,-34 73,-66 90,-98 16,-31 26,-59 29,-83 4,-28 1,-56 -8,-81 -15,-27 -36,-45 -63,-53 -27,-8 -54,-11 -82,-8 -31,3 -64,10 -97,20 -46,18 -87,40 -124,67 -36,27 -69,57 -97,90 -28,33 -53,66 -73,101 -20,35 -37,67 -51,97 -30,69 -47,132 -53,189 -3,24 -3,49 0,73 3,24 9,47 19,68 10,21 25,39 45,54 20,15 46,25 78,31 43,5 88,2 134,-10 39,-11 82,-30 130,-56 31,-17 62,-42 92,-73 -1,4 -2,7 -2,11 -5,29 -5,54 0,75 5,19 16,34 33,47 16,12 44,15 84,8 31,-7 64,-20 98,-39 29,-16 60,-39 95,-69 6,-5 12,-11 18,-17 0,1 -1,3 -1,4 -4,13 -5,24 -4,34 0,20 3,38 10,53 7,14 18,25 33,35 15,9 37,12 67,8 26,-1 54,-9 85,-24 27,-12 58,-32 93,-59 14,-11 29,-24 44,-39 -1,24 2,47 9,68 9,26 31,40 66,43 27,4 57,-1 90,-14 27,-11 59,-31 95,-60 36,-29 74,-74 115,-133 3,-3 5,-4 6,-4 3,0 3,3 2,8 -1,1 -3,4 -4,8 -1,4 -5,13 -10,26 -7,19 -13,39 -17,60 -5,21 -5,40 -1,56 3,16 9,30 20,41 9,10 23,16 42,20 18,4 45,1 78,-8 30,-12 61,-28 94,-49 14,-9 29,-20 45,-32 1,12 3,24 6,36 8,19 22,35 41,49 16,11 39,20 69,27 30,7 70,6 120,-3 43,-7 86,-20 126,-39 35,-16 71,-39 107,-69 36,-30 67,-69 93,-118 16,-33 22,-64 18,-95 -4,-30 -12,-57 -24,-80 -15,-27 -34,-53 -57,-77 -8,-9 -18,-21 -28,-35 -11,-13 -22,-26 -33,-39 -12,-15 -25,-30 -37,-45 -12,-15 -19,-30 -19,-45 -1,-15 0,-28 3,-39 4,-13 11,-26 20,-39 15,-15 30,-25 45,-30 15,-5 28,-9 41,-10 15,-1 29,-1 43,2 15,4 27,14 36,28 9,15 16,30 21,45 5,19 9,39 10,61 0,8 2,14 6,18 1,3 3,4 4,4 1,1 5,-1 10,-6 1,-3 3,-5 6,-6 11,-23 21,-45 30,-65 9,-20 17,-38 23,-53 7,-18 12,-34 16,-49 1,-5 1,-10 0,-14 z m -2251,371 0,0 c 24,-54 49,-104 75,-149 23,-39 48,-77 77,-114 28,-37 58,-61 89,-73 5,-3 11,-4 16,-4 11,0 19,6 24,16 4,9 5,22 2,39 -3,15 -9,34 -19,56 -10,22 -27,51 -50,86 -17,26 -37,50 -59,71 -19,19 -41,36 -66,52 -25,16 -53,25 -84,27 -4,0 -6,-1 -6,-4 l 0,-4 z"
   id="path4504"
   style="fill:#676767;fill-rule:nonzero" />
    </g>
   </g>
   <g
   id="g4506">
    <polygon
   points="3061,10056 2940,9154 3066,9154 3138,9755 3440,9154 3483,9154 3572,9752 3852,9154 3984,9154 3548,10056 3510,10056 3407,9455 3099,10056 "
   id="polygon4508"
   style="fill:#000000;fill-rule:nonzero" />
    <path
   d="m 3996,9737 c -4,19 -6,38 -6,56 0,53 15,95 45,123 30,29 72,43 126,43 48,0 96,-18 145,-53 l -12,118 c -65,21 -122,32 -172,32 -168,0 -252,-94 -252,-282 0,-111 35,-204 106,-280 70,-76 159,-114 266,-114 64,0 116,14 154,41 39,28 58,67 58,118 0,71 -30,127 -90,168 -60,41 -133,61 -221,61 -58,0 -108,-11 -148,-33 z m 20,-84 0,0 c 31,14 67,21 109,21 63,0 115,-10 155,-31 40,-20 60,-50 60,-90 0,-50 -34,-75 -103,-75 -105,0 -178,58 -221,174 z"
   id="path4510"
   style="fill:#000000;fill-rule:nonzero" />
    <path
   d="m 4629,9982 -61,75 -76,0 c 26,-76 49,-164 67,-264 l 117,-665 112,0 -54,335 c 30,-54 85,-81 162,-81 70,0 127,26 173,78 46,52 68,121 68,208 0,102 -35,193 -106,272 -71,79 -159,118 -263,118 -66,0 -112,-25 -138,-75 z m 87,-414 0,0 -61,317 c -1,4 4,14 13,27 10,14 23,26 41,35 18,10 35,15 53,15 69,0 127,-30 176,-91 48,-61 72,-125 72,-194 0,-132 -58,-198 -175,-198 -46,0 -86,30 -120,89 z"
   id="path4512"
   style="fill:#000000;fill-rule:nonzero" />
    <path
   d="m 5997,10044 14,-75 c -47,58 -111,86 -193,86 -70,0 -126,-22 -165,-65 -40,-43 -60,-102 -60,-176 0,-127 34,-231 102,-312 68,-81 155,-121 261,-121 62,0 109,25 142,76 l 61,-332 110,0 -159,918 -114,0 z m 80,-470 0,0 c 1,-4 -5,-15 -16,-34 -12,-19 -26,-34 -42,-44 -16,-11 -34,-16 -52,-16 -72,0 -131,29 -178,87 -47,58 -71,133 -71,223 0,115 47,172 142,172 43,0 82,-21 119,-63 37,-42 61,-96 72,-163 l 27,-163 z"
   id="path4514"
   style="fill:#000000;fill-rule:nonzero" />
    <path
   d="m 6426,9737 c -4,19 -6,38 -6,56 0,53 15,95 45,123 30,29 72,43 126,43 48,0 96,-18 145,-53 l -12,118 c -65,21 -122,32 -172,32 -168,0 -252,-94 -252,-282 0,-111 35,-204 106,-280 71,-76 159,-114 266,-114 64,0 116,14 154,41 39,28 58,67 58,118 0,71 -30,127 -90,168 -60,41 -133,61 -221,61 -58,0 -108,-11 -148,-33 z m 20,-84 0,0 c 31,14 67,21 109,21 63,0 115,-10 155,-31 40,-20 60,-50 60,-90 0,-50 -34,-75 -103,-75 -105,0 -178,58 -221,174 z"
   id="path4516"
   style="fill:#000000;fill-rule:nonzero" />
    <polygon
   points="7202,9839 7450,9392 7583,9392 7185,10056 7154,10056 6965,9392 7086,9392 "
   id="polygon4518"
   style="fill:#000000;fill-rule:nonzero" />
    <path
   d="m 7704,9737 c -4,19 -6,38 -6,56 0,53 15,95 45,123 30,29 72,43 126,43 48,0 96,-18 145,-53 l -12,118 c -65,21 -122,32 -172,32 -168,0 -252,-94 -252,-282 0,-111 35,-204 106,-280 71,-76 159,-114 266,-114 64,0 116,14 154,41 39,28 58,67 58,118 0,71 -30,127 -90,168 -60,41 -133,61 -221,61 -58,0 -108,-11 -148,-33 z m 20,-84 0,0 c 31,14 67,21 109,21 63,0 115,-10 155,-31 40,-20 60,-50 60,-90 0,-50 -34,-75 -103,-75 -105,0 -178,58 -221,174 z"
   id="path4520"
   style="fill:#000000;fill-rule:nonzero" />
    <path
   d="m 8480,9971 -13,85 c -130,0 -195,-48 -195,-145 0,-29 10,-94 30,-195 l 117,-590 120,0 -111,554 c -23,115 -35,187 -35,216 0,49 29,74 87,74 z"
   id="path4522"
   style="fill:#000000;fill-rule:nonzero" />
    <path
   d="m 8626,9805 c 0,-116 34,-216 102,-299 68,-83 155,-125 260,-125 79,0 139,21 181,64 42,43 63,103 63,182 0,62 -12,127 -37,194 -25,67 -66,123 -122,168 -56,45 -124,67 -203,67 -78,0 -138,-22 -180,-66 -42,-44 -63,-106 -63,-186 z m 122,-7 0,0 c 0,110 46,165 138,165 68,0 123,-33 163,-100 40,-66 60,-143 60,-230 0,-105 -46,-157 -138,-157 -47,0 -88,17 -123,50 -35,33 -61,76 -77,128 -16,52 -24,100 -24,145 z"
   id="path4524"
   style="fill:#000000;fill-rule:nonzero" />
    <path
   d="m 9407,10011 -51,291 -116,0 128,-715 c 6,-31 8,-62 8,-92 0,-31 -3,-61 -9,-90 l 116,-22 c 2,5 6,33 11,83 19,-24 46,-43 82,-59 36,-16 69,-24 100,-24 81,0 142,20 182,60 40,40 60,101 60,181 0,123 -34,226 -102,309 -68,83 -158,125 -269,125 -24,0 -51,-5 -82,-14 -31,-9 -50,-21 -58,-34 z m 17,-95 0,0 c 7,13 22,24 44,33 22,9 43,13 63,13 85,0 150,-29 196,-86 46,-57 69,-136 69,-235 0,-53 -14,-93 -40,-120 -27,-27 -67,-40 -121,-40 -23,0 -51,8 -82,25 -31,16 -53,34 -66,51 l -63,358 z"
   id="path4526"
   style="fill:#000000;fill-rule:nonzero" />
    <path
   d="m 10732,10044 73,-412 c 3,-16 4,-32 4,-47 0,-71 -36,-107 -108,-107 -26,0 -53,8 -80,25 -27,16 -47,36 -61,60 l -85,481 -118,0 82,-462 c 1,-7 2,-13 2,-19 0,-56 -38,-85 -115,-85 -23,0 -49,9 -77,27 -28,18 -50,38 -64,59 l -85,480 -118,0 84,-475 c 2,-14 4,-33 4,-57 0,-45 -4,-81 -12,-109 l 112,-21 c 7,31 12,60 13,85 16,-26 43,-47 80,-63 37,-15 76,-23 117,-23 93,0 153,29 180,87 18,-25 46,-46 84,-62 38,-16 76,-25 113,-25 118,0 177,56 177,169 0,19 -2,38 -6,59 l -77,435 -118,0 z"
   id="path4528"
   style="fill:#000000;fill-rule:nonzero" />
    <path
   d="m 11165,9737 c -4,19 -6,38 -6,56 0,53 15,95 45,123 30,29 72,43 126,43 48,0 96,-18 145,-53 l -12,118 c -65,21 -122,32 -172,32 -168,0 -252,-94 -252,-282 0,-111 35,-204 106,-280 71,-76 159,-114 266,-114 64,0 116,14 154,41 39,28 58,67 58,118 0,71 -30,127 -90,168 -60,41 -133,61 -221,61 -58,0 -108,-11 -148,-33 z m 20,-84 0,0 c 31,14 67,21 109,21 63,0 115,-10 155,-31 40,-20 60,-50 60,-90 0,-50 -34,-75 -103,-75 -105,0 -178,58 -221,174 z"
   id="path4530"
   style="fill:#000000;fill-rule:nonzero" />
    <path
   d="m 12087,10044 68,-379 c 6,-34 9,-62 9,-84 0,-69 -36,-103 -108,-103 -28,0 -57,8 -88,24 -31,16 -56,36 -75,58 l -84,484 -117,0 88,-493 c 2,-11 3,-25 3,-40 0,-41 -4,-77 -13,-108 l 112,-22 c 11,59 16,91 16,97 49,-64 121,-97 214,-97 118,0 176,60 176,180 0,24 -3,51 -8,80 l -70,403 -123,0 z"
   id="path4532"
   style="fill:#000000;fill-rule:nonzero" />
    <path
   d="m 12520,9485 -75,0 19,-91 75,0 27,-136 132,-50 -43,186 179,0 -19,91 -179,0 -68,323 c -5,25 -8,45 -8,58 0,62 31,93 92,93 30,0 62,-7 97,-22 l -4,101 c -33,12 -87,18 -161,18 -46,0 -82,-14 -108,-43 -26,-29 -39,-68 -39,-118 0,-11 2,-25 5,-42 l 78,-370 z"
   id="path4534"
   style="fill:#000000;fill-rule:nonzero" />
    <polygon
   points="13310,9737 13328,9630 13588,9630 13570,9737 "
   id="polygon4536"
   style="fill:#000000;fill-rule:nonzero" />
   </g>
   <g
   id="g4538">
    <polygon
   points="3039,10021 2917,9119 3043,9119 3116,9720 3418,9119 3460,9119 3550,9717 3829,9119 3962,9119 3525,10021 3487,10021 3384,9420 3077,10021 "
   id="polygon4540"
   style="fill:#676767;fill-rule:nonzero" />
    <path
   d="m 3973,9701 c -4,19 -6,38 -6,56 0,53 15,95 45,123 30,29 72,43 126,43 48,0 96,-18 145,-53 l -12,118 c -65,21 -122,32 -172,32 -168,0 -252,-94 -252,-282 0,-111 35,-204 106,-280 71,-76 159,-114 266,-114 64,0 116,14 154,41 39,28 58,67 58,118 0,71 -30,127 -90,168 -60,41 -133,61 -221,61 -58,0 -108,-11 -148,-33 z m 20,-84 0,0 c 31,14 67,21 109,21 63,0 115,-10 155,-31 40,-20 60,-50 60,-90 0,-50 -34,-75 -103,-75 -105,0 -178,58 -221,174 z"
   id="path4542"
   style="fill:#676767;fill-rule:nonzero" />
    <path
   d="m 4606,9946 -61,75 -76,0 c 26,-76 49,-164 67,-264 l 117,-665 112,0 -54,335 c 30,-54 85,-81 162,-81 70,0 127,26 173,78 46,52 68,121 68,208 0,102 -35,193 -106,272 -71,79 -159,118 -263,118 -66,0 -112,-25 -138,-75 z m 88,-414 0,0 -61,317 c -1,4 4,14 13,27 10,14 23,26 41,35 18,10 35,15 53,15 69,0 127,-30 176,-91 48,-61 72,-125 72,-194 0,-132 -58,-198 -175,-198 -46,0 -86,30 -120,89 z"
   id="path4544"
   style="fill:#676767;fill-rule:nonzero" />
    <path
   d="m 5974,10009 14,-75 c -47,58 -111,86 -193,86 -71,0 -126,-22 -165,-65 -40,-43 -60,-102 -60,-176 0,-127 34,-231 102,-312 68,-81 155,-121 261,-121 62,0 109,25 142,76 l 61,-332 110,0 -159,918 -114,0 z m 80,-470 0,0 c 1,-4 -5,-15 -16,-34 -12,-19 -26,-34 -42,-44 -16,-11 -34,-16 -52,-16 -72,0 -131,29 -178,87 -47,58 -71,133 -71,223 0,115 47,172 142,172 43,0 82,-21 119,-63 37,-42 61,-96 72,-163 l 27,-163 z"
   id="path4546"
   style="fill:#676767;fill-rule:nonzero" />
    <path
   d="m 6403,9701 c -4,19 -6,38 -6,56 0,53 15,95 45,123 30,29 72,43 126,43 48,0 96,-18 145,-53 l -12,118 c -65,21 -122,32 -172,32 -168,0 -252,-94 -252,-282 0,-111 35,-204 106,-280 70,-76 159,-114 266,-114 64,0 116,14 154,41 39,28 58,67 58,118 0,71 -30,127 -90,168 -60,41 -133,61 -221,61 -58,0 -108,-11 -148,-33 z m 20,-84 0,0 c 31,14 67,21 109,21 63,0 115,-10 155,-31 40,-20 60,-50 60,-90 0,-50 -34,-75 -103,-75 -105,0 -178,58 -221,174 z"
   id="path4548"
   style="fill:#676767;fill-rule:nonzero" />
    <polygon
   points="7180,9804 7427,9356 7560,9356 7162,10021 7132,10021 6943,9356 7063,9356 "
   id="polygon4550"
   style="fill:#676767;fill-rule:nonzero" />
    <path
   d="m 7681,9701 c -4,19 -6,38 -6,56 0,53 15,95 45,123 30,29 72,43 126,43 48,0 96,-18 145,-53 l -12,118 c -65,21 -122,32 -172,32 -168,0 -252,-94 -252,-282 0,-111 35,-204 106,-280 71,-76 159,-114 266,-114 64,0 116,14 154,41 39,28 58,67 58,118 0,71 -30,127 -90,168 -60,41 -133,61 -221,61 -58,0 -108,-11 -148,-33 z m 20,-84 0,0 c 31,14 67,21 109,21 63,0 115,-10 155,-31 40,-20 60,-50 60,-90 0,-50 -34,-75 -103,-75 -105,0 -178,58 -221,174 z"
   id="path4552"
   style="fill:#676767;fill-rule:nonzero" />
    <path
   d="m 8458,9936 -13,85 c -130,0 -195,-48 -195,-145 0,-29 10,-94 30,-195 l 117,-590 120,0 -111,554 c -23,115 -35,187 -35,216 0,49 29,74 87,74 z"
   id="path4554"
   style="fill:#676767;fill-rule:nonzero" />
    <path
   d="m 8603,9769 c 0,-116 34,-216 102,-299 68,-83 155,-125 260,-125 79,0 139,21 181,64 42,43 63,103 63,182 0,62 -12,127 -37,194 -25,67 -66,123 -122,168 -56,45 -124,67 -203,67 -78,0 -138,-22 -180,-66 -42,-44 -63,-106 -63,-186 z m 122,-7 0,0 c 0,110 46,165 138,165 68,0 123,-33 163,-100 40,-66 60,-143 60,-230 0,-105 -46,-157 -138,-157 -47,0 -88,17 -123,50 -35,33 -61,76 -77,128 -16,52 -24,100 -24,145 z"
   id="path4556"
   style="fill:#676767;fill-rule:nonzero" />
    <path
   d="m 9385,9976 -51,291 -116,0 128,-715 c 6,-31 8,-62 8,-92 0,-31 -3,-61 -9,-90 l 116,-22 c 2,5 6,33 11,83 19,-24 46,-43 82,-59 36,-16 69,-24 100,-24 81,0 142,20 182,60 40,40 60,101 60,181 0,123 -34,226 -102,309 -68,83 -158,125 -269,125 -24,0 -51,-5 -82,-14 -31,-9 -50,-21 -58,-34 z m 17,-95 0,0 c 7,13 22,24 44,33 22,9 43,13 63,13 85,0 150,-29 196,-86 46,-57 69,-136 69,-235 0,-53 -14,-93 -40,-120 -27,-27 -67,-40 -121,-40 -23,0 -51,8 -82,25 -31,16 -53,34 -66,51 l -63,358 z"
   id="path4558"
   style="fill:#676767;fill-rule:nonzero" />
    <path
   d="m 10710,10009 73,-412 c 3,-16 4,-32 4,-47 0,-71 -36,-107 -108,-107 -26,0 -53,8 -80,25 -27,16 -47,36 -61,60 l -85,481 -118,0 82,-462 c 1,-7 2,-13 2,-19 0,-56 -38,-85 -115,-85 -23,0 -49,9 -77,27 -28,18 -50,37 -64,59 l -85,480 -118,0 84,-475 c 2,-14 4,-33 4,-57 0,-45 -4,-81 -12,-109 l 112,-21 c 7,31 12,60 13,85 16,-26 43,-47 80,-63 38,-15 76,-23 117,-23 93,0 153,29 180,87 18,-25 46,-46 84,-62 38,-16 76,-25 113,-25 118,0 177,56 177,169 0,19 -2,38 -6,59 l -77,435 -118,0 z"
   id="path4560"
   style="fill:#676767;fill-rule:nonzero" />
    <path
   d="m 11142,9701 c -4,19 -6,38 -6,56 0,53 15,95 45,123 30,29 72,43 126,43 48,0 96,-18 145,-53 l -12,118 c -65,21 -122,32 -172,32 -168,0 -252,-94 -252,-282 0,-111 35,-204 106,-280 70,-76 159,-114 266,-114 64,0 116,14 154,41 39,28 58,67 58,118 0,71 -30,127 -90,168 -60,41 -133,61 -221,61 -58,0 -108,-11 -148,-33 z m 20,-84 0,0 c 31,14 67,21 109,21 63,0 115,-10 155,-31 40,-20 60,-50 60,-90 0,-50 -34,-75 -103,-75 -105,0 -178,58 -221,174 z"
   id="path4562"
   style="fill:#676767;fill-rule:nonzero" />
    <path
   d="m 12064,10009 68,-379 c 6,-34 9,-62 9,-84 0,-69 -36,-103 -108,-103 -28,0 -57,8 -88,24 -31,16 -56,36 -75,58 l -84,484 -117,0 87,-493 c 2,-11 3,-25 3,-40 0,-41 -4,-77 -13,-108 l 112,-22 c 11,59 16,91 16,97 49,-64 121,-97 214,-97 118,0 176,60 176,180 0,24 -3,51 -8,80 l -70,403 -123,0 z"
   id="path4564"
   style="fill:#676767;fill-rule:nonzero" />
    <path
   d="m 12497,9449 -75,0 19,-91 75,0 27,-136 132,-50 -43,186 179,0 -19,91 -179,0 -68,323 c -5,25 -8,45 -8,58 0,62 31,93 92,93 30,0 62,-7 97,-22 l -4,101 c -33,12 -87,18 -161,18 -46,0 -82,-14 -108,-43 -26,-29 -39,-68 -39,-118 0,-11 2,-25 5,-42 l 78,-369 z"
   id="path4566"
   style="fill:#676767;fill-rule:nonzero" />
    <polygon
   points="13287,9701 13305,9595 13565,9595 13547,9701 "
   id="polygon4568"
   style="fill:#676767;fill-rule:nonzero" />
   </g>
  </g>
 </g>
</svg>